<svg width="225" height="244" viewBox="0 0 225 244" fill="none" xmlns="http://www.w3.org/2000/svg">
<g filter="url(#filter0_d_434_3237)">
<g style="mix-blend-mode:overlay">
<path d="M103.846 203.691L109.449 206.715V15.2395L103.846 18.2409V203.691Z" fill="white"/>
<path d="M86.3032 194.319L91.8368 197.269V24.655L86.3032 27.623V194.319Z" fill="white"/>
<path d="M68.728 184.911L74.2699 187.879V34.0527L68.728 37.0284V184.911Z" fill="white"/>
<path d="M51.0811 51.184V170.779C51.0811 173.68 52.7692 176.378 55.4818 177.823L56.7867 178.517V43.4426L55.529 44.1036C52.7858 45.5464 51.0811 48.2572 51.0811 51.1814V51.184Z" fill="white"/>
<path d="M196.036 102.097C195.239 100.831 194.087 99.7769 192.705 99.044L191.444 98.3753V167.782C191.444 168.531 191.025 169.2 190.322 169.575C189.62 169.951 188.784 169.951 188.084 169.575C185.288 168.078 182.526 166.602 179.761 165.126V92.0742L173.963 89.0214V158.454C173.963 159.195 173.549 159.861 172.855 160.231C172.158 160.604 171.323 160.607 170.626 160.237L166.611 158.086C165.112 157.284 163.621 156.484 162.127 155.684V82.6328L161.699 82.4091C161.191 82.1416 160.694 81.8793 160.189 81.6144C159.398 81.1977 158.593 80.7708 157.696 80.3027L156.441 79.6469V149.064C156.441 149.81 156.024 150.479 155.327 150.852C154.628 151.227 153.789 151.23 153.092 150.857L149.016 148.676C147.517 147.874 146.023 147.074 144.53 146.276V73.2249L138.852 70.2158V139.664C138.852 140.407 138.435 141.076 137.736 141.449C137.036 141.822 136.203 141.822 135.503 141.449L130.208 138.62C128.245 137.565 127.029 135.611 127.029 133.522V5.82642L121.332 8.87409V213.073L121.754 213.299C122.504 213.698 123.342 213.899 124.178 213.899C125.014 213.899 125.872 213.695 126.624 213.287L127.193 212.981V203.112C127.193 202.364 127.61 201.695 128.309 201.32C129.012 200.944 129.85 200.944 130.553 201.32C133.46 202.868 136.306 204.385 139.152 205.905L139.818 206.26L140.24 206.031C140.942 205.651 141.614 205.285 142.297 204.913C142.936 204.565 143.58 204.213 144.263 203.843L145.515 203.166L144.26 202.495C138.427 199.37 132.78 196.34 127.227 193.362V184.343C127.227 183.594 127.646 182.926 128.348 182.55C129.051 182.175 129.886 182.175 130.586 182.55C134.562 184.677 138.519 186.791 142.464 188.9C147.303 191.485 152.126 194.064 156.946 196.644L157.374 196.873L163.052 193.766L161.802 193.097C156.441 190.227 151.129 187.383 145.843 184.554C139.599 181.21 133.39 177.885 127.182 174.564V165.535C127.182 164.789 127.599 164.12 128.301 163.745C129.006 163.367 129.848 163.367 130.553 163.745C145.29 171.622 159.895 179.441 174.48 187.249L174.902 187.475L175.324 187.251C176.373 186.691 177.353 186.166 178.419 185.595L180.655 184.399L179.391 183.723C169.871 178.625 160.422 173.572 151.021 168.541C143.058 164.28 135.128 160.036 127.218 155.803V146.773C127.218 146.027 127.637 145.358 128.337 144.983C129.042 144.605 129.884 144.605 130.589 144.983C142.358 151.276 154.084 157.551 165.784 163.811C174.552 168.503 183.303 173.186 192.049 177.864L192.441 178.075L192.888 177.867C195.584 176.622 197.258 174.114 197.258 171.324V106.294C197.258 104.831 196.836 103.383 196.034 102.102L196.036 102.097Z" fill="white"/>
</g>
<path d="M176.451 232.663V236.323H142.997V233.018C160.256 220.125 171.798 210.972 171.798 201.885C171.798 201.124 171.709 200.396 171.553 199.73L175.504 197.624C175.96 198.886 176.204 200.314 176.204 201.885C176.204 212.237 164.434 221.681 149.763 232.663H176.448H176.451Z" fill="white"/>
<path d="M185.405 229.355L188.371 226.961C191.183 230.693 196.123 233.509 202.586 233.509C210.416 233.509 215.358 229.705 215.358 223.51C215.358 216.748 209.353 213.932 201.748 213.932C199.696 213.932 197.797 214.001 197.033 214.073V210.27C197.794 210.339 199.693 210.339 201.748 210.339C208.514 210.339 214.595 207.664 214.595 201.397C214.595 195.551 208.969 192.313 202.431 192.313C196.653 192.313 192.549 194.424 188.823 198.297L186.086 195.762C189.659 191.747 195.284 188.65 202.658 188.65C211.477 188.65 219.001 193.087 219.001 201.044C219.001 208.227 212.465 211.327 208.131 212.029C212.54 212.451 219.762 215.971 219.762 223.718C219.762 231.464 213.451 237.169 202.656 237.169C194.368 237.169 188.362 233.578 185.397 229.353L185.405 229.355Z" fill="white"/>
<path d="M5 50.6771V47.3671C22.2559 34.482 33.8116 25.3262 33.8116 16.2423C33.8116 9.48086 27.8061 6.66466 22.2559 6.66466C15.9449 6.66466 11.0805 9.20053 8.34567 12.7909L5.38038 10.2576C8.95372 5.74907 15.1092 3.00488 22.2559 3.00488C29.4026 3.00488 38.2207 6.94756 38.2207 16.2449C38.2207 26.5967 26.4373 36.0329 11.7663 47.0173H38.4484V50.6797H5V50.6771Z" fill="white"/>
<path d="M85.5505 17.6597L82.3159 19.3931L81.4941 19.8303C80.0253 12.7191 76.1077 6.66235 68.1697 6.66235C57.4496 6.66235 53.9513 17.5157 53.9513 27.2348C53.9513 29.552 54.1623 31.9336 54.6149 34.2174L54.3178 34.3794L52.4464 35.385L50.5751 36.3881C49.7532 33.3918 49.3867 30.249 49.3867 27.2348C49.3867 16.024 54.476 3 68.1697 3C77.893 3 83.296 9.72288 85.5533 17.6597H85.5505Z" fill="white"/>
</g>
<defs>
<filter id="filter0_d_434_3237" x="0.503972" y="0.751986" width="223.754" height="243.161" filterUnits="userSpaceOnUse" color-interpolation-filters="sRGB">
<feFlood flood-opacity="0" result="BackgroundImageFix"/>
<feColorMatrix in="SourceAlpha" type="matrix" values="0 0 0 0 0 0 0 0 0 0 0 0 0 0 0 0 0 0 127 0" result="hardAlpha"/>
<feOffset dy="2.24801"/>
<feGaussianBlur stdDeviation="2.24801"/>
<feComposite in2="hardAlpha" operator="out"/>
<feColorMatrix type="matrix" values="0 0 0 0 0 0 0 0 0 0 0 0 0 0 0 0 0 0 0.25 0"/>
<feBlend mode="soft-light" in2="BackgroundImageFix" result="effect1_dropShadow_434_3237"/>
<feBlend mode="normal" in="SourceGraphic" in2="effect1_dropShadow_434_3237" result="shape"/>
</filter>
</defs>
</svg>
