<svg width="662" height="602" viewBox="0 0 662 602" fill="none" xmlns="http://www.w3.org/2000/svg">
<g filter="url(#filter0_dddd_648_1433)">
<path fill-rule="evenodd" clip-rule="evenodd" d="M642 22H264V54H20V582H579V464H642V22Z" fill="#353535"/>
<path d="M264 22V19.5H261.5V22H264ZM642 22H644.5V19.5H642V22ZM264 54V56.5H266.5V54H264ZM20 54V51.5H17.5V54H20ZM20 582H17.5V584.5H20V582ZM579 582V584.5H581.5V582H579ZM579 464V461.5H576.5V464H579ZM642 464V466.5H644.5V464H642ZM264 24.5H642V19.5H264V24.5ZM266.5 54V22H261.5V54H266.5ZM20 56.5H264V51.5H20V56.5ZM22.5 582V54H17.5V582H22.5ZM579 579.5H20V584.5H579V579.5ZM576.5 464V582H581.5V464H576.5ZM642 461.5H579V466.5H642V461.5ZM639.5 22V464H644.5V22H639.5Z" fill="#FFC3F4"/>
</g>
<rect x="69" y="539" width="82" height="19" transform="rotate(-90 69 539)" stroke="#FFC3F4" stroke-width="3"/>
<rect x="69" y="539" width="82" height="19" transform="rotate(-90 69 539)" stroke="#FFC3F4" stroke-width="3"/>
<rect x="540" y="210" width="82" height="19" transform="rotate(-90 540 210)" stroke="#FFC3F4" stroke-width="3"/>
<rect x="540" y="210" width="82" height="19" transform="rotate(-90 540 210)" stroke="#FFC3F4" stroke-width="3"/>
<rect x="540" y="372" width="82" height="19" transform="rotate(-90 540 372)" stroke="#FFC3F4" stroke-width="3"/>
<rect x="540" y="372" width="82" height="19" transform="rotate(-90 540 372)" stroke="#FFC3F4" stroke-width="3"/>
<rect x="540" y="472" width="82" height="19" transform="rotate(-90 540 472)" stroke="#FFC3F4" stroke-width="3"/>
<rect x="540" y="472" width="82" height="19" transform="rotate(-90 540 472)" stroke="#FFC3F4" stroke-width="3"/>
<rect x="79" y="117" width="82" height="19" stroke="#FFC3F4" stroke-width="3"/>
<rect x="79" y="117" width="82" height="19" stroke="#FFC3F4" stroke-width="3"/>
<rect x="439" y="117" width="82" height="19" stroke="#FFC3F4" stroke-width="3"/>
<rect x="439" y="117" width="82" height="19" stroke="#FFC3F4" stroke-width="3"/>
<rect x="178" y="117" width="82" height="19" stroke="#FFC3F4" stroke-width="3"/>
<rect x="178" y="117" width="82" height="19" stroke="#FFC3F4" stroke-width="3"/>
<rect x="277" y="117" width="82" height="19" stroke="#FFC3F4" stroke-width="3"/>
<rect x="277" y="117" width="82" height="19" stroke="#FFC3F4" stroke-width="3"/>
<rect x="69" y="438" width="82" height="19" transform="rotate(-90 69 438)" stroke="#FFC3F4" stroke-width="3"/>
<rect x="69" y="438" width="82" height="19" transform="rotate(-90 69 438)" stroke="#FFC3F4" stroke-width="3"/>
<rect x="69" y="339" width="82" height="19" transform="rotate(-90 69 339)" stroke="#FFC3F4" stroke-width="3"/>
<rect x="69" y="339" width="82" height="19" transform="rotate(-90 69 339)" stroke="#FFC3F4" stroke-width="3"/>
<rect x="69" y="240" width="82" height="19" transform="rotate(-90 69 240)" stroke="#FFC3F4" stroke-width="3"/>
<rect x="69" y="240" width="82" height="19" transform="rotate(-90 69 240)" stroke="#FFC3F4" stroke-width="3"/>
<rect x="428" y="480" width="87" height="54" stroke="white" stroke-width="3"/>
<rect x="428" y="480" width="87" height="54" stroke="#FFC3F4" stroke-width="3"/>
<rect x="244" y="380" width="46" height="19" transform="rotate(-90 244 380)" stroke="white" stroke-width="3"/>
<rect x="244" y="380" width="46" height="19" transform="rotate(-90 244 380)" stroke="#FFC3F4" stroke-width="3"/>
<rect x="376" y="117" width="46" height="19" stroke="#FFC3F4" stroke-width="3"/>
<rect x="376" y="117" width="46" height="19" stroke="#FFC3F4" stroke-width="3"/>
<rect x="540" y="274" width="46" height="19" transform="rotate(-90 540 274)" stroke="#FFC3F4" stroke-width="3"/>
<rect x="540" y="274" width="46" height="19" transform="rotate(-90 540 274)" stroke="#FFC3F4" stroke-width="3"/>
<circle cx="425" cy="231" r="9" stroke="#FFC3F4" stroke-width="3"/>
<circle cx="361" cy="436" r="9" stroke="#FFC3F4" stroke-width="3"/>
<circle cx="411" cy="362" r="9" stroke="#FFC3F4" stroke-width="3"/>
<circle cx="357" cy="302" r="9" stroke="#FFC3F4" stroke-width="3"/>
<rect x="286" y="241" width="46" height="19" transform="rotate(-90 286 241)" stroke="white" stroke-width="3"/>
<rect x="286" y="241" width="46" height="19" transform="rotate(-90 286 241)" stroke="#FFC3F4" stroke-width="3"/>
<rect x="273" y="330" width="19" height="19" rx="3" fill="#FFC3F4" stroke="white"/>
<rect x="273" y="366" width="19" height="19" rx="3" fill="#FFC3F4" stroke="white"/>
<rect x="273" y="348" width="19" height="19" rx="3" fill="#FFC3F4" stroke="white"/>
<rect x="286" y="330" width="6" height="19" rx="3" fill="white" stroke="white"/>
<rect x="286" y="348" width="6" height="19" rx="3" fill="white" stroke="white"/>
<rect x="286" y="366" width="6" height="19" rx="3" fill="white" stroke="white"/>
<path d="M277.75 382H290C291.105 382 292 381.105 292 380V335C292 333.895 291.105 333 290 333H277.5C276.672 333 276 332.328 276 331.5C276 330.672 276.672 330 277.5 330H294C295.105 330 296 330.895 296 332V383.5C296 384.605 295.105 385.5 294 385.5H277.75C276.784 385.5 276 384.716 276 383.75C276 382.784 276.784 382 277.75 382Z" fill="#FFC3F4" stroke="white"/>
<rect x="316" y="190" width="19" height="19" rx="3" fill="#FFC3F4" stroke="white"/>
<rect x="316" y="226" width="19" height="19" rx="3" fill="#FFC3F4" stroke="white"/>
<rect x="316" y="208" width="19" height="19" rx="3" fill="#FFC3F4" stroke="white"/>
<rect x="329" y="190" width="6" height="19" rx="3" fill="white" stroke="white"/>
<rect x="329" y="208" width="6" height="19" rx="3" fill="white" stroke="white"/>
<rect x="329" y="226" width="6" height="19" rx="3" fill="white" stroke="white"/>
<path d="M320.75 242H333C334.105 242 335 241.105 335 240V195C335 193.895 334.105 193 333 193H320.5C319.672 193 319 192.328 319 191.5C319 190.672 319.672 190 320.5 190H337C338.105 190 339 190.895 339 192V243.5C339 244.605 338.105 245.5 337 245.5H320.75C319.784 245.5 319 244.716 319 243.75C319 242.784 319.784 242 320.75 242Z" fill="#FFC3F4" stroke="white"/>
<rect x="199" y="251" width="19" height="19" rx="3" fill="#FFC3F4" stroke="white"/>
<rect x="199" y="287" width="19" height="19" rx="3" fill="#FFC3F4" stroke="white"/>
<rect x="199" y="269" width="19" height="19" rx="3" fill="#FFC3F4" stroke="white"/>
<rect x="212" y="251" width="6" height="19" rx="3" fill="white" stroke="white"/>
<rect x="212" y="269" width="6" height="19" rx="3" fill="white" stroke="white"/>
<rect x="212" y="287" width="6" height="19" rx="3" fill="white" stroke="white"/>
<path d="M203.75 303H216C217.105 303 218 302.105 218 301V256C218 254.895 217.105 254 216 254H203.5C202.672 254 202 253.328 202 252.5C202 251.672 202.672 251 203.5 251H220C221.105 251 222 251.895 222 253V304.5C222 305.605 221.105 306.5 220 306.5H203.75C202.784 306.5 202 305.716 202 304.75C202 303.784 202.784 303 203.75 303Z" fill="#FFC3F4" stroke="white"/>
<rect width="19" height="19" rx="3" transform="matrix(-1 0 0 1 232 330)" fill="#FFC3F4" stroke="white"/>
<rect width="19" height="19" rx="3" transform="matrix(-1 0 0 1 232 366)" fill="#FFC3F4" stroke="white"/>
<rect width="19" height="19" rx="3" transform="matrix(-1 0 0 1 232 348)" fill="#FFC3F4" stroke="white"/>
<rect width="6" height="19" rx="3" transform="matrix(-1 0 0 1 219 330)" fill="white" stroke="white"/>
<rect width="6" height="19" rx="3" transform="matrix(-1 0 0 1 219 348)" fill="white" stroke="white"/>
<rect width="6" height="19" rx="3" transform="matrix(-1 0 0 1 219 366)" fill="white" stroke="white"/>
<path d="M227.25 382H215C213.895 382 213 381.105 213 380V335C213 333.895 213.895 333 215 333H227.5C228.328 333 229 332.328 229 331.5C229 330.672 228.328 330 227.5 330H211C209.895 330 209 330.895 209 332V383.5C209 384.605 209.895 385.5 211 385.5H227.25C228.216 385.5 229 384.716 229 383.75C229 382.784 228.216 382 227.25 382Z" fill="#FFC3F4" stroke="white"/>
<rect width="19" height="19" rx="3" transform="matrix(-1 0 0 1 275 191)" fill="#FFC3F4" stroke="white"/>
<rect width="19" height="19" rx="3" transform="matrix(-1 0 0 1 275 227)" fill="#FFC3F4" stroke="white"/>
<rect width="19" height="19" rx="3" transform="matrix(-1 0 0 1 275 209)" fill="#FFC3F4" stroke="white"/>
<rect width="6" height="19" rx="3" transform="matrix(-1 0 0 1 262 191)" fill="white" stroke="white"/>
<rect width="6" height="19" rx="3" transform="matrix(-1 0 0 1 262 209)" fill="white" stroke="white"/>
<rect width="6" height="19" rx="3" transform="matrix(-1 0 0 1 262 227)" fill="white" stroke="white"/>
<path d="M270.25 243H258C256.895 243 256 242.105 256 241V196C256 194.895 256.895 194 258 194H270.5C271.328 194 272 193.328 272 192.5C272 191.672 271.328 191 270.5 191H254C252.895 191 252 191.895 252 193V244.5C252 245.605 252.895 246.5 254 246.5H270.25C271.216 246.5 272 245.716 272 244.75C272 243.784 271.216 243 270.25 243Z" fill="#FFC3F4" stroke="white"/>
<rect width="19" height="19" rx="3" transform="matrix(-1 0 0 1 155 251)" fill="#FFC3F4" stroke="white"/>
<rect width="19" height="19" rx="3" transform="matrix(-1 0 0 1 155 287)" fill="#FFC3F4" stroke="white"/>
<rect width="19" height="19" rx="3" transform="matrix(-1 0 0 1 155 269)" fill="#FFC3F4" stroke="white"/>
<rect width="6" height="19" rx="3" transform="matrix(-1 0 0 1 142 251)" fill="white" stroke="white"/>
<rect width="6" height="19" rx="3" transform="matrix(-1 0 0 1 142 269)" fill="white" stroke="white"/>
<rect width="6" height="19" rx="3" transform="matrix(-1 0 0 1 142 287)" fill="white" stroke="white"/>
<path d="M150.25 303H138C136.895 303 136 302.105 136 301V256C136 254.895 136.895 254 138 254H150.5C151.328 254 152 253.328 152 252.5C152 251.672 151.328 251 150.5 251H134C132.895 251 132 251.895 132 253V304.5C132 305.605 132.895 306.5 134 306.5H150.25C151.216 306.5 152 305.716 152 304.75C152 303.784 151.216 303 150.25 303Z" fill="#FFC3F4" stroke="white"/>
<g filter="url(#filter1_d_648_1433)">
<rect x="168" y="301" width="46" height="19" transform="rotate(-90 168 301)" stroke="#FFC3F4" stroke-width="3" shape-rendering="crispEdges"/>
<rect x="168" y="301" width="46" height="19" transform="rotate(-90 168 301)" stroke="#FFC3F4" stroke-width="3" shape-rendering="crispEdges"/>
</g>
<path d="M430.746 556.432C430.746 557.164 430.578 557.836 430.242 558.448C429.906 559.048 429.39 559.534 428.694 559.906C427.998 560.278 427.134 560.464 426.102 560.464H424.194V565H421.116V552.364H426.102C427.11 552.364 427.962 552.538 428.658 552.886C429.354 553.234 429.876 553.714 430.224 554.326C430.572 554.938 430.746 555.64 430.746 556.432ZM425.868 558.016C426.456 558.016 426.894 557.878 427.182 557.602C427.47 557.326 427.614 556.936 427.614 556.432C427.614 555.928 427.47 555.538 427.182 555.262C426.894 554.986 426.456 554.848 425.868 554.848H424.194V558.016H425.868ZM438.522 554.848C439.674 554.848 440.598 555.232 441.294 556C441.99 556.756 442.338 557.8 442.338 559.132V565H439.278V559.546C439.278 558.874 439.104 558.352 438.756 557.98C438.408 557.608 437.94 557.422 437.352 557.422C436.764 557.422 436.296 557.608 435.948 557.98C435.6 558.352 435.426 558.874 435.426 559.546V565H432.348V551.68H435.426V556.306C435.738 555.862 436.164 555.508 436.704 555.244C437.244 554.98 437.85 554.848 438.522 554.848ZM449.049 565.144C448.065 565.144 447.177 564.934 446.385 564.514C445.605 564.094 444.987 563.494 444.531 562.714C444.087 561.934 443.865 561.022 443.865 559.978C443.865 558.946 444.093 558.04 444.549 557.26C445.005 556.468 445.629 555.862 446.421 555.442C447.213 555.022 448.101 554.812 449.085 554.812C450.069 554.812 450.957 555.022 451.749 555.442C452.541 555.862 453.165 556.468 453.621 557.26C454.077 558.04 454.305 558.946 454.305 559.978C454.305 561.01 454.071 561.922 453.603 562.714C453.147 563.494 452.517 564.094 451.713 564.514C450.921 564.934 450.033 565.144 449.049 565.144ZM449.049 562.48C449.637 562.48 450.135 562.264 450.543 561.832C450.963 561.4 451.173 560.782 451.173 559.978C451.173 559.174 450.969 558.556 450.561 558.124C450.165 557.692 449.673 557.476 449.085 557.476C448.485 557.476 447.987 557.692 447.591 558.124C447.195 558.544 446.997 559.162 446.997 559.978C446.997 560.782 447.189 561.4 447.573 561.832C447.969 562.264 448.461 562.48 449.049 562.48ZM461.536 562.39V565H459.97C458.854 565 457.984 564.73 457.36 564.19C456.736 563.638 456.424 562.744 456.424 561.508V557.512H455.2V554.956H456.424V552.508H459.502V554.956H461.518V557.512H459.502V561.544C459.502 561.844 459.574 562.06 459.718 562.192C459.862 562.324 460.102 562.39 460.438 562.39H461.536ZM467.823 565.144C466.839 565.144 465.951 564.934 465.159 564.514C464.379 564.094 463.761 563.494 463.305 562.714C462.861 561.934 462.639 561.022 462.639 559.978C462.639 558.946 462.867 558.04 463.323 557.26C463.779 556.468 464.403 555.862 465.195 555.442C465.987 555.022 466.875 554.812 467.859 554.812C468.843 554.812 469.731 555.022 470.523 555.442C471.315 555.862 471.939 556.468 472.395 557.26C472.851 558.04 473.079 558.946 473.079 559.978C473.079 561.01 472.845 561.922 472.377 562.714C471.921 563.494 471.291 564.094 470.487 564.514C469.695 564.934 468.807 565.144 467.823 565.144ZM467.823 562.48C468.411 562.48 468.909 562.264 469.317 561.832C469.737 561.4 469.947 560.782 469.947 559.978C469.947 559.174 469.743 558.556 469.335 558.124C468.939 557.692 468.447 557.476 467.859 557.476C467.259 557.476 466.761 557.692 466.365 558.124C465.969 558.544 465.771 559.162 465.771 559.978C465.771 560.782 465.963 561.4 466.347 561.832C466.743 562.264 467.235 562.48 467.823 562.48ZM477.79 556.378C478.078 555.91 478.492 555.532 479.032 555.244C479.572 554.956 480.19 554.812 480.886 554.812C481.714 554.812 482.464 555.022 483.136 555.442C483.808 555.862 484.336 556.462 484.72 557.242C485.116 558.022 485.314 558.928 485.314 559.96C485.314 560.992 485.116 561.904 484.72 562.696C484.336 563.476 483.808 564.082 483.136 564.514C482.464 564.934 481.714 565.144 480.886 565.144C480.178 565.144 479.56 565.006 479.032 564.73C478.504 564.442 478.09 564.064 477.79 563.596V565H474.712V551.68H477.79V556.378ZM482.182 559.96C482.182 559.192 481.966 558.592 481.534 558.16C481.114 557.716 480.592 557.494 479.968 557.494C479.356 557.494 478.834 557.716 478.402 558.16C477.982 558.604 477.772 559.21 477.772 559.978C477.772 560.746 477.982 561.352 478.402 561.796C478.834 562.24 479.356 562.462 479.968 562.462C480.58 562.462 481.102 562.24 481.534 561.796C481.966 561.34 482.182 560.728 482.182 559.96ZM491.501 565.144C490.517 565.144 489.629 564.934 488.837 564.514C488.057 564.094 487.439 563.494 486.983 562.714C486.539 561.934 486.317 561.022 486.317 559.978C486.317 558.946 486.545 558.04 487 557.26C487.457 556.468 488.081 555.862 488.873 555.442C489.665 555.022 490.553 554.812 491.537 554.812C492.521 554.812 493.409 555.022 494.201 555.442C494.993 555.862 495.617 556.468 496.073 557.26C496.529 558.04 496.757 558.946 496.757 559.978C496.757 561.01 496.523 561.922 496.055 562.714C495.599 563.494 494.969 564.094 494.165 564.514C493.373 564.934 492.485 565.144 491.501 565.144ZM491.501 562.48C492.089 562.48 492.587 562.264 492.995 561.832C493.415 561.4 493.625 560.782 493.625 559.978C493.625 559.174 493.421 558.556 493.013 558.124C492.617 557.692 492.125 557.476 491.537 557.476C490.937 557.476 490.439 557.692 490.043 558.124C489.647 558.544 489.449 559.162 489.449 559.978C489.449 560.782 489.641 561.4 490.025 561.832C490.421 562.264 490.913 562.48 491.501 562.48ZM502.961 565.144C501.977 565.144 501.089 564.934 500.297 564.514C499.517 564.094 498.899 563.494 498.443 562.714C497.999 561.934 497.777 561.022 497.777 559.978C497.777 558.946 498.005 558.04 498.461 557.26C498.917 556.468 499.541 555.862 500.333 555.442C501.125 555.022 502.013 554.812 502.997 554.812C503.981 554.812 504.869 555.022 505.661 555.442C506.453 555.862 507.077 556.468 507.533 557.26C507.989 558.04 508.217 558.946 508.217 559.978C508.217 561.01 507.983 561.922 507.515 562.714C507.059 563.494 506.429 564.094 505.625 564.514C504.833 564.934 503.945 565.144 502.961 565.144ZM502.961 562.48C503.549 562.48 504.047 562.264 504.455 561.832C504.875 561.4 505.085 560.782 505.085 559.978C505.085 559.174 504.881 558.556 504.473 558.124C504.077 557.692 503.585 557.476 502.997 557.476C502.397 557.476 501.899 557.692 501.503 558.124C501.107 558.544 500.909 559.162 500.909 559.978C500.909 560.782 501.101 561.4 501.485 561.832C501.881 562.264 502.373 562.48 502.961 562.48ZM515.448 562.39V565H513.882C512.766 565 511.896 564.73 511.272 564.19C510.648 563.638 510.336 562.744 510.336 561.508V557.512H509.112V554.956H510.336V552.508H513.414V554.956H515.43V557.512H513.414V561.544C513.414 561.844 513.486 562.06 513.63 562.192C513.774 562.324 514.014 562.39 514.35 562.39H515.448ZM523.337 554.848C524.489 554.848 525.413 555.232 526.109 556C526.805 556.756 527.153 557.8 527.153 559.132V565H524.093V559.546C524.093 558.874 523.919 558.352 523.571 557.98C523.223 557.608 522.755 557.422 522.167 557.422C521.579 557.422 521.111 557.608 520.763 557.98C520.415 558.352 520.241 558.874 520.241 559.546V565H517.163V551.68H520.241V556.306C520.553 555.862 520.979 555.508 521.519 555.244C522.059 554.98 522.665 554.848 523.337 554.848Z" fill="white"/>
<rect x="232" y="480" width="87" height="54" stroke="white" stroke-width="3"/>
<rect x="232" y="480" width="87" height="54" stroke="#FFC3F4" stroke-width="3"/>
<path d="M241.06 552.364V565H237.982V559.798H233.194V565H230.116V552.364H233.194V557.314H237.982V552.364H241.06ZM252.75 559.816C252.75 560.104 252.732 560.404 252.696 560.716H245.73C245.778 561.34 245.976 561.82 246.324 562.156C246.684 562.48 247.122 562.642 247.638 562.642C248.406 562.642 248.94 562.318 249.24 561.67H252.516C252.348 562.33 252.042 562.924 251.598 563.452C251.166 563.98 250.62 564.394 249.96 564.694C249.3 564.994 248.562 565.144 247.746 565.144C246.762 565.144 245.886 564.934 245.118 564.514C244.35 564.094 243.75 563.494 243.318 562.714C242.886 561.934 242.67 561.022 242.67 559.978C242.67 558.934 242.88 558.022 243.3 557.242C243.732 556.462 244.332 555.862 245.1 555.442C245.868 555.022 246.75 554.812 247.746 554.812C248.718 554.812 249.582 555.016 250.338 555.424C251.094 555.832 251.682 556.414 252.102 557.17C252.534 557.926 252.75 558.808 252.75 559.816ZM249.6 559.006C249.6 558.478 249.42 558.058 249.06 557.746C248.7 557.434 248.25 557.278 247.71 557.278C247.194 557.278 246.756 557.428 246.396 557.728C246.048 558.028 245.832 558.454 245.748 559.006H249.6ZM253.762 559.96C253.762 558.928 253.954 558.022 254.338 557.242C254.734 556.462 255.268 555.862 255.94 555.442C256.612 555.022 257.362 554.812 258.19 554.812C258.898 554.812 259.516 554.956 260.044 555.244C260.584 555.532 260.998 555.91 261.286 556.378V554.956H264.364V565H261.286V563.578C260.986 564.046 260.566 564.424 260.026 564.712C259.498 565 258.88 565.144 258.172 565.144C257.356 565.144 256.612 564.934 255.94 564.514C255.268 564.082 254.734 563.476 254.338 562.696C253.954 561.904 253.762 560.992 253.762 559.96ZM261.286 559.978C261.286 559.21 261.07 558.604 260.638 558.16C260.218 557.716 259.702 557.494 259.09 557.494C258.478 557.494 257.956 557.716 257.524 558.16C257.104 558.592 256.894 559.192 256.894 559.96C256.894 560.728 257.104 561.34 257.524 561.796C257.956 562.24 258.478 562.462 259.09 562.462C259.702 562.462 260.218 562.24 260.638 561.796C261.07 561.352 261.286 560.746 261.286 559.978ZM265.979 559.96C265.979 558.928 266.171 558.022 266.555 557.242C266.951 556.462 267.485 555.862 268.157 555.442C268.829 555.022 269.579 554.812 270.407 554.812C271.067 554.812 271.667 554.95 272.207 555.226C272.759 555.502 273.191 555.874 273.503 556.342V551.68H276.581V565H273.503V563.56C273.215 564.04 272.801 564.424 272.261 564.712C271.733 565 271.115 565.144 270.407 565.144C269.579 565.144 268.829 564.934 268.157 564.514C267.485 564.082 266.951 563.476 266.555 562.696C266.171 561.904 265.979 560.992 265.979 559.96ZM273.503 559.978C273.503 559.21 273.287 558.604 272.855 558.16C272.435 557.716 271.919 557.494 271.307 557.494C270.695 557.494 270.173 557.716 269.741 558.16C269.321 558.592 269.111 559.192 269.111 559.96C269.111 560.728 269.321 561.34 269.741 561.796C270.173 562.24 270.695 562.462 271.307 562.462C271.919 562.462 272.435 562.24 272.855 561.796C273.287 561.352 273.503 560.746 273.503 559.978ZM282.893 565.144C282.017 565.144 281.237 564.994 280.553 564.694C279.869 564.394 279.329 563.986 278.933 563.47C278.537 562.942 278.315 562.354 278.267 561.706H281.309C281.345 562.054 281.507 562.336 281.795 562.552C282.083 562.768 282.437 562.876 282.857 562.876C283.241 562.876 283.535 562.804 283.739 562.66C283.955 562.504 284.063 562.306 284.063 562.066C284.063 561.778 283.913 561.568 283.613 561.436C283.313 561.292 282.827 561.136 282.155 560.968C281.435 560.8 280.835 560.626 280.355 560.446C279.875 560.254 279.461 559.96 279.113 559.564C278.765 559.156 278.591 558.61 278.591 557.926C278.591 557.35 278.747 556.828 279.059 556.36C279.383 555.88 279.851 555.502 280.463 555.226C281.087 554.95 281.825 554.812 282.677 554.812C283.937 554.812 284.927 555.124 285.647 555.748C286.379 556.372 286.799 557.2 286.907 558.232H284.063C284.015 557.884 283.859 557.608 283.595 557.404C283.343 557.2 283.007 557.098 282.587 557.098C282.227 557.098 281.951 557.17 281.759 557.314C281.567 557.446 281.471 557.632 281.471 557.872C281.471 558.16 281.621 558.376 281.921 558.52C282.233 558.664 282.713 558.808 283.361 558.952C284.105 559.144 284.711 559.336 285.179 559.528C285.647 559.708 286.055 560.008 286.403 560.428C286.763 560.836 286.949 561.388 286.961 562.084C286.961 562.672 286.793 563.2 286.457 563.668C286.133 564.124 285.659 564.484 285.035 564.748C284.423 565.012 283.709 565.144 282.893 565.144ZM295.019 554.848C296.171 554.848 297.095 555.232 297.791 556C298.487 556.756 298.835 557.8 298.835 559.132V565H295.775V559.546C295.775 558.874 295.601 558.352 295.253 557.98C294.905 557.608 294.437 557.422 293.849 557.422C293.261 557.422 292.793 557.608 292.445 557.98C292.097 558.352 291.923 558.874 291.923 559.546V565H288.845V551.68H291.923V556.306C292.235 555.862 292.661 555.508 293.201 555.244C293.741 554.98 294.347 554.848 295.019 554.848ZM305.545 565.144C304.561 565.144 303.673 564.934 302.881 564.514C302.101 564.094 301.483 563.494 301.027 562.714C300.583 561.934 300.361 561.022 300.361 559.978C300.361 558.946 300.589 558.04 301.045 557.26C301.501 556.468 302.125 555.862 302.917 555.442C303.709 555.022 304.597 554.812 305.581 554.812C306.565 554.812 307.453 555.022 308.245 555.442C309.037 555.862 309.661 556.468 310.117 557.26C310.573 558.04 310.801 558.946 310.801 559.978C310.801 561.01 310.567 561.922 310.099 562.714C309.643 563.494 309.013 564.094 308.209 564.514C307.417 564.934 306.529 565.144 305.545 565.144ZM305.545 562.48C306.133 562.48 306.631 562.264 307.039 561.832C307.459 561.4 307.669 560.782 307.669 559.978C307.669 559.174 307.465 558.556 307.057 558.124C306.661 557.692 306.169 557.476 305.581 557.476C304.981 557.476 304.483 557.692 304.087 558.124C303.691 558.544 303.493 559.162 303.493 559.978C303.493 560.782 303.685 561.4 304.069 561.832C304.465 562.264 304.957 562.48 305.545 562.48ZM318.032 562.39V565H316.466C315.35 565 314.48 564.73 313.856 564.19C313.232 563.638 312.92 562.744 312.92 561.508V557.512H311.696V554.956H312.92V552.508H315.998V554.956H318.014V557.512H315.998V561.544C315.998 561.844 316.07 562.06 316.214 562.192C316.358 562.324 316.598 562.39 316.934 562.39H318.032ZM323.833 565.144C322.957 565.144 322.177 564.994 321.493 564.694C320.809 564.394 320.269 563.986 319.873 563.47C319.477 562.942 319.255 562.354 319.207 561.706H322.249C322.285 562.054 322.447 562.336 322.735 562.552C323.023 562.768 323.377 562.876 323.797 562.876C324.181 562.876 324.475 562.804 324.679 562.66C324.895 562.504 325.003 562.306 325.003 562.066C325.003 561.778 324.853 561.568 324.553 561.436C324.253 561.292 323.767 561.136 323.095 560.968C322.375 560.8 321.775 560.626 321.295 560.446C320.815 560.254 320.401 559.96 320.053 559.564C319.705 559.156 319.531 558.61 319.531 557.926C319.531 557.35 319.687 556.828 319.999 556.36C320.323 555.88 320.791 555.502 321.403 555.226C322.027 554.95 322.765 554.812 323.617 554.812C324.877 554.812 325.867 555.124 326.587 555.748C327.319 556.372 327.739 557.2 327.847 558.232H325.003C324.955 557.884 324.799 557.608 324.535 557.404C324.283 557.2 323.947 557.098 323.527 557.098C323.167 557.098 322.891 557.17 322.699 557.314C322.507 557.446 322.411 557.632 322.411 557.872C322.411 558.16 322.561 558.376 322.861 558.52C323.173 558.664 323.653 558.808 324.301 558.952C325.045 559.144 325.651 559.336 326.119 559.528C326.587 559.708 326.995 560.008 327.343 560.428C327.703 560.836 327.889 561.388 327.901 562.084C327.901 562.672 327.733 563.2 327.397 563.668C327.073 564.124 326.599 564.484 325.975 564.748C325.363 565.012 324.649 565.144 323.833 565.144Z" fill="white"/>
<path d="M138.688 84.36C139.664 84.568 140.448 85.056 141.04 85.824C141.632 86.576 141.928 87.44 141.928 88.416C141.928 89.824 141.432 90.944 140.44 91.776C139.464 92.592 138.096 93 136.336 93H128.488V76.152H136.072C137.784 76.152 139.12 76.544 140.08 77.328C141.056 78.112 141.544 79.176 141.544 80.52C141.544 81.512 141.28 82.336 140.752 82.992C140.24 83.648 139.552 84.104 138.688 84.36ZM132.592 82.968H135.28C135.952 82.968 136.464 82.824 136.816 82.536C137.184 82.232 137.368 81.792 137.368 81.216C137.368 80.64 137.184 80.2 136.816 79.896C136.464 79.592 135.952 79.44 135.28 79.44H132.592V82.968ZM135.616 89.688C136.304 89.688 136.832 89.536 137.2 89.232C137.584 88.912 137.776 88.456 137.776 87.864C137.776 87.272 137.576 86.808 137.176 86.472C136.792 86.136 136.256 85.968 135.568 85.968H132.592V89.688H135.616ZM150.404 93.192C149.092 93.192 147.908 92.912 146.852 92.352C145.812 91.792 144.988 90.992 144.38 89.952C143.788 88.912 143.492 87.696 143.492 86.304C143.492 84.928 143.796 83.72 144.404 82.68C145.012 81.624 145.844 80.816 146.9 80.256C147.956 79.696 149.14 79.416 150.452 79.416C151.764 79.416 152.948 79.696 154.004 80.256C155.06 80.816 155.892 81.624 156.5 82.68C157.108 83.72 157.412 84.928 157.412 86.304C157.412 87.68 157.1 88.896 156.476 89.952C155.868 90.992 155.028 91.792 153.956 92.352C152.9 92.912 151.716 93.192 150.404 93.192ZM150.404 89.64C151.188 89.64 151.852 89.352 152.396 88.776C152.956 88.2 153.236 87.376 153.236 86.304C153.236 85.232 152.964 84.408 152.42 83.832C151.892 83.256 151.236 82.968 150.452 82.968C149.652 82.968 148.988 83.256 148.46 83.832C147.932 84.392 147.668 85.216 147.668 86.304C147.668 87.376 147.924 88.2 148.436 88.776C148.964 89.352 149.62 89.64 150.404 89.64ZM165.686 93.192C164.374 93.192 163.19 92.912 162.134 92.352C161.094 91.792 160.27 90.992 159.662 89.952C159.07 88.912 158.774 87.696 158.774 86.304C158.774 84.928 159.078 83.72 159.686 82.68C160.294 81.624 161.126 80.816 162.182 80.256C163.238 79.696 164.422 79.416 165.734 79.416C167.046 79.416 168.23 79.696 169.286 80.256C170.342 80.816 171.174 81.624 171.782 82.68C172.39 83.72 172.694 84.928 172.694 86.304C172.694 87.68 172.382 88.896 171.758 89.952C171.15 90.992 170.31 91.792 169.238 92.352C168.182 92.912 166.998 93.192 165.686 93.192ZM165.686 89.64C166.47 89.64 167.134 89.352 167.678 88.776C168.238 88.2 168.518 87.376 168.518 86.304C168.518 85.232 168.246 84.408 167.702 83.832C167.174 83.256 166.518 82.968 165.734 82.968C164.934 82.968 164.27 83.256 163.742 83.832C163.214 84.392 162.95 85.216 162.95 86.304C162.95 87.376 163.206 88.2 163.718 88.776C164.246 89.352 164.902 89.64 165.686 89.64ZM182.335 89.52V93H180.247C178.759 93 177.599 92.64 176.767 91.92C175.935 91.184 175.519 89.992 175.519 88.344V83.016H173.887V79.608H175.519V76.344H179.623V79.608H182.311V83.016H179.623V88.392C179.623 88.792 179.719 89.08 179.911 89.256C180.103 89.432 180.423 89.52 180.871 89.52H182.335ZM192.853 79.464C194.389 79.464 195.621 79.976 196.549 81C197.477 82.008 197.941 83.4 197.941 85.176V93H193.861V85.728C193.861 84.832 193.629 84.136 193.165 83.64C192.701 83.144 192.077 82.896 191.293 82.896C190.509 82.896 189.885 83.144 189.421 83.64C188.957 84.136 188.725 84.832 188.725 85.728V93H184.621V75.24H188.725V81.408C189.141 80.816 189.709 80.344 190.429 79.992C191.149 79.64 191.957 79.464 192.853 79.464ZM206.241 93.192C205.073 93.192 204.033 92.992 203.121 92.592C202.209 92.192 201.489 91.648 200.961 90.96C200.433 90.256 200.137 89.472 200.073 88.608H204.129C204.177 89.072 204.393 89.448 204.777 89.736C205.161 90.024 205.633 90.168 206.193 90.168C206.705 90.168 207.097 90.072 207.369 89.88C207.657 89.672 207.801 89.408 207.801 89.088C207.801 88.704 207.601 88.424 207.201 88.248C206.801 88.056 206.153 87.848 205.257 87.624C204.297 87.4 203.497 87.168 202.857 86.928C202.217 86.672 201.665 86.28 201.201 85.752C200.737 85.208 200.505 84.48 200.505 83.568C200.505 82.8 200.713 82.104 201.129 81.48C201.561 80.84 202.185 80.336 203.001 79.968C203.833 79.6 204.817 79.416 205.953 79.416C207.633 79.416 208.953 79.832 209.913 80.664C210.889 81.496 211.449 82.6 211.593 83.976H207.801C207.737 83.512 207.529 83.144 207.177 82.872C206.841 82.6 206.393 82.464 205.833 82.464C205.353 82.464 204.985 82.56 204.729 82.752C204.473 82.928 204.345 83.176 204.345 83.496C204.345 83.88 204.545 84.168 204.945 84.36C205.361 84.552 206.001 84.744 206.865 84.936C207.857 85.192 208.665 85.448 209.289 85.704C209.913 85.944 210.457 86.344 210.921 86.904C211.401 87.448 211.649 88.184 211.665 89.112C211.665 89.896 211.441 90.6 210.993 91.224C210.561 91.832 209.929 92.312 209.097 92.664C208.281 93.016 207.329 93.192 206.241 93.192Z" fill="white"/>
<path d="M42.36 325.312C42.568 324.336 43.056 323.552 43.824 322.96C44.576 322.368 45.44 322.072 46.416 322.072C47.824 322.072 48.944 322.568 49.776 323.56C50.592 324.536 51 325.904 51 327.664V335.512H34.152V327.928C34.152 326.216 34.544 324.88 35.328 323.92C36.112 322.944 37.176 322.456 38.52 322.456C39.512 322.456 40.336 322.72 40.992 323.248C41.648 323.76 42.104 324.448 42.36 325.312ZM40.968 331.408V328.72C40.968 328.048 40.824 327.536 40.536 327.184C40.232 326.816 39.792 326.632 39.216 326.632C38.64 326.632 38.2 326.816 37.896 327.184C37.592 327.536 37.44 328.048 37.44 328.72V331.408H40.968ZM47.688 328.384C47.688 327.696 47.536 327.168 47.232 326.8C46.912 326.416 46.456 326.224 45.864 326.224C45.272 326.224 44.808 326.424 44.472 326.824C44.136 327.208 43.968 327.744 43.968 328.432V331.408H47.688V328.384ZM51.192 313.596C51.192 314.908 50.912 316.092 50.352 317.148C49.792 318.188 48.992 319.012 47.952 319.62C46.912 320.212 45.696 320.508 44.304 320.508C42.928 320.508 41.72 320.204 40.68 319.596C39.624 318.988 38.816 318.156 38.256 317.1C37.696 316.044 37.416 314.86 37.416 313.548C37.416 312.236 37.696 311.052 38.256 309.996C38.816 308.94 39.624 308.108 40.68 307.5C41.72 306.892 42.928 306.588 44.304 306.588C45.68 306.588 46.896 306.9 47.952 307.524C48.992 308.132 49.792 308.972 50.352 310.044C50.912 311.1 51.192 312.284 51.192 313.596ZM47.64 313.596C47.64 312.812 47.352 312.148 46.776 311.604C46.2 311.044 45.376 310.764 44.304 310.764C43.232 310.764 42.408 311.036 41.832 311.58C41.256 312.108 40.968 312.764 40.968 313.548C40.968 314.348 41.256 315.012 41.832 315.54C42.392 316.068 43.216 316.332 44.304 316.332C45.376 316.332 46.2 316.076 46.776 315.564C47.352 315.036 47.64 314.38 47.64 313.596ZM51.192 298.314C51.192 299.626 50.912 300.81 50.352 301.866C49.792 302.906 48.992 303.73 47.952 304.338C46.912 304.93 45.696 305.226 44.304 305.226C42.928 305.226 41.72 304.922 40.68 304.314C39.624 303.706 38.816 302.874 38.256 301.818C37.696 300.762 37.416 299.578 37.416 298.266C37.416 296.954 37.696 295.77 38.256 294.714C38.816 293.658 39.624 292.826 40.68 292.218C41.72 291.61 42.928 291.306 44.304 291.306C45.68 291.306 46.896 291.618 47.952 292.242C48.992 292.85 49.792 293.69 50.352 294.762C50.912 295.818 51.192 297.002 51.192 298.314ZM47.64 298.314C47.64 297.53 47.352 296.866 46.776 296.322C46.2 295.762 45.376 295.482 44.304 295.482C43.232 295.482 42.408 295.754 41.832 296.298C41.256 296.826 40.968 297.482 40.968 298.266C40.968 299.066 41.256 299.73 41.832 300.258C42.392 300.786 43.216 301.05 44.304 301.05C45.376 301.05 46.2 300.794 46.776 300.282C47.352 299.754 47.64 299.098 47.64 298.314ZM47.52 281.665H51V283.753C51 285.241 50.64 286.401 49.92 287.233C49.184 288.065 47.992 288.481 46.344 288.481H41.016V290.113H37.608V288.481H34.344V284.377H37.608V281.689H41.016V284.377H46.392C46.792 284.377 47.08 284.281 47.256 284.089C47.432 283.897 47.52 283.577 47.52 283.129V281.665ZM37.464 271.147C37.464 269.611 37.976 268.379 39 267.451C40.008 266.523 41.4 266.059 43.176 266.059H51V270.139H43.728C42.832 270.139 42.136 270.371 41.64 270.835C41.144 271.299 40.896 271.923 40.896 272.707C40.896 273.491 41.144 274.115 41.64 274.579C42.136 275.043 42.832 275.275 43.728 275.275H51V279.379H33.24V275.275H39.408C38.816 274.859 38.344 274.291 37.992 273.571C37.64 272.851 37.464 272.043 37.464 271.147ZM51.192 257.759C51.192 258.927 50.992 259.967 50.592 260.879C50.192 261.791 49.648 262.511 48.96 263.039C48.256 263.567 47.472 263.863 46.608 263.927V259.871C47.072 259.823 47.448 259.607 47.736 259.223C48.024 258.839 48.168 258.367 48.168 257.807C48.168 257.295 48.072 256.903 47.88 256.631C47.672 256.343 47.408 256.199 47.088 256.199C46.704 256.199 46.424 256.399 46.248 256.799C46.056 257.199 45.848 257.847 45.624 258.743C45.4 259.703 45.168 260.503 44.928 261.143C44.672 261.783 44.28 262.335 43.752 262.799C43.208 263.263 42.48 263.495 41.568 263.495C40.8 263.495 40.104 263.287 39.48 262.871C38.84 262.439 38.336 261.815 37.968 260.999C37.6 260.167 37.416 259.183 37.416 258.047C37.416 256.367 37.832 255.047 38.664 254.087C39.496 253.111 40.6 252.551 41.976 252.407V256.199C41.512 256.263 41.144 256.471 40.872 256.823C40.6 257.159 40.464 257.607 40.464 258.167C40.464 258.647 40.56 259.015 40.752 259.271C40.928 259.527 41.176 259.655 41.496 259.655C41.88 259.655 42.168 259.455 42.36 259.055C42.552 258.639 42.744 257.999 42.936 257.135C43.192 256.143 43.448 255.335 43.704 254.711C43.944 254.087 44.344 253.543 44.904 253.079C45.448 252.599 46.184 252.351 47.112 252.335C47.896 252.335 48.6 252.559 49.224 253.007C49.832 253.439 50.312 254.071 50.664 254.903C51.016 255.719 51.192 256.671 51.192 257.759Z" fill="white"/>
<path d="M597.64 251.688C597.432 252.664 596.944 253.448 596.176 254.04C595.424 254.632 594.56 254.928 593.584 254.928C592.176 254.928 591.056 254.432 590.224 253.44C589.408 252.464 589 251.096 589 249.336V241.488H605.848V249.072C605.848 250.784 605.456 252.12 604.672 253.08C603.888 254.056 602.824 254.544 601.48 254.544C600.488 254.544 599.664 254.28 599.008 253.752C598.352 253.24 597.896 252.552 597.64 251.688ZM599.032 245.592V248.28C599.032 248.952 599.176 249.464 599.464 249.816C599.768 250.184 600.208 250.368 600.784 250.368C601.36 250.368 601.8 250.184 602.104 249.816C602.408 249.464 602.56 248.952 602.56 248.28V245.592H599.032ZM592.312 248.616C592.312 249.304 592.464 249.832 592.768 250.2C593.088 250.584 593.544 250.776 594.136 250.776C594.728 250.776 595.192 250.576 595.528 250.176C595.864 249.792 596.032 249.256 596.032 248.568V245.592H592.312V248.616ZM588.808 263.404C588.808 262.092 589.088 260.908 589.648 259.852C590.208 258.812 591.008 257.988 592.048 257.38C593.088 256.788 594.304 256.492 595.696 256.492C597.072 256.492 598.28 256.796 599.32 257.404C600.376 258.012 601.184 258.844 601.744 259.9C602.304 260.956 602.584 262.14 602.584 263.452C602.584 264.764 602.304 265.948 601.744 267.004C601.184 268.06 600.376 268.892 599.32 269.5C598.28 270.108 597.072 270.412 595.696 270.412C594.32 270.412 593.104 270.1 592.048 269.476C591.008 268.868 590.208 268.028 589.648 266.956C589.088 265.9 588.808 264.716 588.808 263.404ZM592.36 263.404C592.36 264.188 592.648 264.852 593.224 265.396C593.8 265.956 594.624 266.236 595.696 266.236C596.768 266.236 597.592 265.964 598.168 265.42C598.744 264.892 599.032 264.236 599.032 263.452C599.032 262.652 598.744 261.988 598.168 261.46C597.608 260.932 596.784 260.668 595.696 260.668C594.624 260.668 593.8 260.924 593.224 261.436C592.648 261.964 592.36 262.62 592.36 263.404ZM588.808 278.686C588.808 277.374 589.088 276.19 589.648 275.134C590.208 274.094 591.008 273.27 592.048 272.662C593.088 272.07 594.304 271.774 595.696 271.774C597.072 271.774 598.28 272.078 599.32 272.686C600.376 273.294 601.184 274.126 601.744 275.182C602.304 276.238 602.584 277.422 602.584 278.734C602.584 280.046 602.304 281.23 601.744 282.286C601.184 283.342 600.376 284.174 599.32 284.782C598.28 285.39 597.072 285.694 595.696 285.694C594.32 285.694 593.104 285.382 592.048 284.758C591.008 284.15 590.208 283.31 589.648 282.238C589.088 281.182 588.808 279.998 588.808 278.686ZM592.36 278.686C592.36 279.47 592.648 280.134 593.224 280.678C593.8 281.238 594.624 281.518 595.696 281.518C596.768 281.518 597.592 281.246 598.168 280.702C598.744 280.174 599.032 279.518 599.032 278.734C599.032 277.934 598.744 277.27 598.168 276.742C597.608 276.214 596.784 275.95 595.696 275.95C594.624 275.95 593.8 276.206 593.224 276.718C592.648 277.246 592.36 277.902 592.36 278.686ZM592.48 295.335H589V293.247C589 291.759 589.36 290.599 590.08 289.767C590.816 288.935 592.008 288.519 593.656 288.519H598.984V286.887H602.392V288.519H605.656V292.623H602.392V295.311H598.984V292.623H593.608C593.208 292.623 592.92 292.719 592.744 292.911C592.568 293.103 592.48 293.423 592.48 293.871V295.335ZM602.536 305.853C602.536 307.389 602.024 308.621 601 309.549C599.992 310.477 598.6 310.941 596.824 310.941H589V306.861H596.272C597.168 306.861 597.864 306.629 598.36 306.165C598.856 305.701 599.104 305.077 599.104 304.293C599.104 303.509 598.856 302.885 598.36 302.421C597.864 301.957 597.168 301.725 596.272 301.725H589V297.621H606.76V301.725H600.592C601.184 302.141 601.656 302.709 602.008 303.429C602.36 304.149 602.536 304.957 602.536 305.853ZM588.808 319.241C588.808 318.073 589.008 317.033 589.408 316.121C589.808 315.209 590.352 314.489 591.04 313.961C591.744 313.433 592.528 313.137 593.392 313.073V317.129C592.928 317.177 592.552 317.393 592.264 317.777C591.976 318.161 591.832 318.633 591.832 319.193C591.832 319.705 591.928 320.097 592.12 320.369C592.328 320.657 592.592 320.801 592.912 320.801C593.296 320.801 593.576 320.601 593.752 320.201C593.944 319.801 594.152 319.153 594.376 318.257C594.6 317.297 594.832 316.497 595.072 315.857C595.328 315.217 595.72 314.665 596.248 314.201C596.792 313.737 597.52 313.505 598.432 313.505C599.2 313.505 599.896 313.713 600.52 314.129C601.16 314.561 601.664 315.185 602.032 316.001C602.4 316.833 602.584 317.817 602.584 318.953C602.584 320.633 602.168 321.953 601.336 322.913C600.504 323.889 599.4 324.449 598.024 324.593V320.801C598.488 320.737 598.856 320.529 599.128 320.177C599.4 319.841 599.536 319.393 599.536 318.833C599.536 318.353 599.44 317.985 599.248 317.729C599.072 317.473 598.824 317.345 598.504 317.345C598.12 317.345 597.832 317.545 597.64 317.945C597.448 318.361 597.256 319.001 597.064 319.865C596.808 320.857 596.552 321.665 596.296 322.289C596.056 322.913 595.656 323.457 595.096 323.921C594.552 324.401 593.816 324.649 592.888 324.665C592.104 324.665 591.4 324.441 590.776 323.993C590.168 323.561 589.688 322.929 589.336 322.097C588.984 321.281 588.808 320.329 588.808 319.241Z" fill="white"/>
<path d="M376.753 60.432C376.753 61.164 376.585 61.836 376.249 62.448C375.913 63.048 375.397 63.534 374.701 63.906C374.005 64.278 373.141 64.464 372.109 64.464H370.201V69H367.123V56.364H372.109C373.117 56.364 373.969 56.538 374.665 56.886C375.361 57.234 375.883 57.714 376.231 58.326C376.579 58.938 376.753 59.64 376.753 60.432ZM371.875 62.016C372.463 62.016 372.901 61.878 373.189 61.602C373.477 61.326 373.621 60.936 373.621 60.432C373.621 59.928 373.477 59.538 373.189 59.262C372.901 58.986 372.463 58.848 371.875 58.848H370.201V62.016H371.875ZM381.433 60.63C381.793 60.078 382.243 59.646 382.783 59.334C383.323 59.01 383.923 58.848 384.583 58.848V62.106H383.737C382.969 62.106 382.393 62.274 382.009 62.61C381.625 62.934 381.433 63.51 381.433 64.338V69H378.355V58.956H381.433V60.63ZM390.626 69.144C389.642 69.144 388.754 68.934 387.962 68.514C387.182 68.094 386.564 67.494 386.108 66.714C385.664 65.934 385.442 65.022 385.442 63.978C385.442 62.946 385.67 62.04 386.126 61.26C386.582 60.468 387.206 59.862 387.998 59.442C388.79 59.022 389.678 58.812 390.662 58.812C391.646 58.812 392.534 59.022 393.326 59.442C394.118 59.862 394.742 60.468 395.198 61.26C395.654 62.04 395.882 62.946 395.882 63.978C395.882 65.01 395.648 65.922 395.18 66.714C394.724 67.494 394.094 68.094 393.29 68.514C392.498 68.934 391.61 69.144 390.626 69.144ZM390.626 66.48C391.214 66.48 391.712 66.264 392.12 65.832C392.54 65.4 392.75 64.782 392.75 63.978C392.75 63.174 392.546 62.556 392.138 62.124C391.742 61.692 391.25 61.476 390.662 61.476C390.062 61.476 389.564 61.692 389.168 62.124C388.772 62.544 388.574 63.162 388.574 63.978C388.574 64.782 388.766 65.4 389.15 65.832C389.546 66.264 390.038 66.48 390.626 66.48ZM399.045 57.912C398.505 57.912 398.061 57.756 397.713 57.444C397.377 57.12 397.209 56.724 397.209 56.256C397.209 55.776 397.377 55.38 397.713 55.068C398.061 54.744 398.505 54.582 399.045 54.582C399.573 54.582 400.005 54.744 400.341 55.068C400.689 55.38 400.863 55.776 400.863 56.256C400.863 56.724 400.689 57.12 400.341 57.444C400.005 57.756 399.573 57.912 399.045 57.912ZM400.593 70.296C400.593 71.532 400.281 72.42 399.657 72.96C399.033 73.512 398.163 73.788 397.047 73.788H395.841V71.178H396.579C396.915 71.178 397.155 71.112 397.299 70.98C397.443 70.848 397.515 70.632 397.515 70.332V58.956H400.593V70.296ZM412.274 63.816C412.274 64.104 412.256 64.404 412.22 64.716H405.254C405.302 65.34 405.5 65.82 405.848 66.156C406.208 66.48 406.646 66.642 407.162 66.642C407.93 66.642 408.464 66.318 408.764 65.67H412.04C411.872 66.33 411.566 66.924 411.122 67.452C410.69 67.98 410.144 68.394 409.484 68.694C408.824 68.994 408.086 69.144 407.27 69.144C406.286 69.144 405.41 68.934 404.642 68.514C403.874 68.094 403.274 67.494 402.842 66.714C402.41 65.934 402.194 65.022 402.194 63.978C402.194 62.934 402.404 62.022 402.824 61.242C403.256 60.462 403.856 59.862 404.624 59.442C405.392 59.022 406.274 58.812 407.27 58.812C408.242 58.812 409.106 59.016 409.862 59.424C410.618 59.832 411.206 60.414 411.626 61.17C412.058 61.926 412.274 62.808 412.274 63.816ZM409.124 63.006C409.124 62.478 408.944 62.058 408.584 61.746C408.224 61.434 407.774 61.278 407.234 61.278C406.718 61.278 406.28 61.428 405.92 61.728C405.572 62.028 405.356 62.454 405.272 63.006H409.124ZM413.286 63.978C413.286 62.934 413.496 62.022 413.916 61.242C414.348 60.462 414.942 59.862 415.698 59.442C416.466 59.022 417.342 58.812 418.326 58.812C419.586 58.812 420.636 59.142 421.476 59.802C422.328 60.462 422.886 61.392 423.15 62.592H419.874C419.598 61.824 419.064 61.44 418.272 61.44C417.708 61.44 417.258 61.662 416.922 62.106C416.586 62.538 416.418 63.162 416.418 63.978C416.418 64.794 416.586 65.424 416.922 65.868C417.258 66.3 417.708 66.516 418.272 66.516C419.064 66.516 419.598 66.132 419.874 65.364H423.15C422.886 66.54 422.328 67.464 421.476 68.136C420.624 68.808 419.574 69.144 418.326 69.144C417.342 69.144 416.466 68.934 415.698 68.514C414.942 68.094 414.348 67.494 413.916 66.714C413.496 65.934 413.286 65.022 413.286 63.978ZM430.395 66.39V69H428.829C427.713 69 426.843 68.73 426.219 68.19C425.595 67.638 425.283 66.744 425.283 65.508V61.512H424.059V58.956H425.283V56.508H428.361V58.956H430.377V61.512H428.361V65.544C428.361 65.844 428.433 66.06 428.577 66.192C428.721 66.324 428.961 66.39 429.297 66.39H430.395ZM356.938 96.126C356.014 96.126 355.186 95.976 354.454 95.676C353.722 95.376 353.134 94.932 352.69 94.344C352.258 93.756 352.03 93.048 352.006 92.22H355.282C355.33 92.688 355.492 93.048 355.768 93.3C356.044 93.54 356.404 93.66 356.848 93.66C357.304 93.66 357.664 93.558 357.928 93.354C358.192 93.138 358.324 92.844 358.324 92.472C358.324 92.16 358.216 91.902 358 91.698C357.796 91.494 357.538 91.326 357.226 91.194C356.926 91.062 356.494 90.912 355.93 90.744C355.114 90.492 354.448 90.24 353.932 89.988C353.416 89.736 352.972 89.364 352.6 88.872C352.228 88.38 352.042 87.738 352.042 86.946C352.042 85.77 352.468 84.852 353.32 84.192C354.172 83.52 355.282 83.184 356.65 83.184C358.042 83.184 359.164 83.52 360.016 84.192C360.868 84.852 361.324 85.776 361.384 86.964H358.054C358.03 86.556 357.88 86.238 357.604 86.01C357.328 85.77 356.974 85.65 356.542 85.65C356.17 85.65 355.87 85.752 355.642 85.956C355.414 86.148 355.3 86.43 355.3 86.802C355.3 87.21 355.492 87.528 355.876 87.756C356.26 87.984 356.86 88.23 357.676 88.494C358.492 88.77 359.152 89.034 359.656 89.286C360.172 89.538 360.616 89.904 360.988 90.384C361.36 90.864 361.546 91.482 361.546 92.238C361.546 92.958 361.36 93.612 360.988 94.2C360.628 94.788 360.1 95.256 359.404 95.604C358.708 95.952 357.886 96.126 356.938 96.126ZM369.614 85.848C370.766 85.848 371.69 86.232 372.386 87C373.082 87.756 373.43 88.8 373.43 90.132V96H370.37V90.546C370.37 89.874 370.196 89.352 369.848 88.98C369.5 88.608 369.032 88.422 368.444 88.422C367.856 88.422 367.388 88.608 367.04 88.98C366.692 89.352 366.518 89.874 366.518 90.546V96H363.44V82.68H366.518V87.306C366.83 86.862 367.256 86.508 367.796 86.244C368.336 85.98 368.942 85.848 369.614 85.848ZM380.141 96.144C379.157 96.144 378.269 95.934 377.477 95.514C376.697 95.094 376.079 94.494 375.623 93.714C375.179 92.934 374.957 92.022 374.957 90.978C374.957 89.946 375.185 89.04 375.641 88.26C376.097 87.468 376.721 86.862 377.513 86.442C378.305 86.022 379.193 85.812 380.177 85.812C381.161 85.812 382.049 86.022 382.841 86.442C383.633 86.862 384.257 87.468 384.713 88.26C385.169 89.04 385.397 89.946 385.397 90.978C385.397 92.01 385.163 92.922 384.695 93.714C384.239 94.494 383.609 95.094 382.805 95.514C382.013 95.934 381.125 96.144 380.141 96.144ZM380.141 93.48C380.729 93.48 381.227 93.264 381.635 92.832C382.055 92.4 382.265 91.782 382.265 90.978C382.265 90.174 382.061 89.556 381.653 89.124C381.257 88.692 380.765 88.476 380.177 88.476C379.577 88.476 379.079 88.692 378.683 89.124C378.287 89.544 378.089 90.162 378.089 90.978C378.089 91.782 378.281 92.4 378.665 92.832C379.061 93.264 379.553 93.48 380.141 93.48ZM401.448 85.956L398.73 96H395.328L393.744 89.484L392.106 96H388.722L385.986 85.956H389.064L390.486 93.138L392.178 85.956H395.436L397.146 93.102L398.55 85.956H401.448ZM402.01 90.978C402.01 89.934 402.22 89.022 402.64 88.242C403.072 87.462 403.666 86.862 404.422 86.442C405.19 86.022 406.066 85.812 407.05 85.812C408.31 85.812 409.36 86.142 410.2 86.802C411.052 87.462 411.61 88.392 411.874 89.592H408.598C408.322 88.824 407.788 88.44 406.996 88.44C406.432 88.44 405.982 88.662 405.646 89.106C405.31 89.538 405.142 90.162 405.142 90.978C405.142 91.794 405.31 92.424 405.646 92.868C405.982 93.3 406.432 93.516 406.996 93.516C407.788 93.516 408.322 93.132 408.598 92.364H411.874C411.61 93.54 411.052 94.464 410.2 95.136C409.348 95.808 408.298 96.144 407.05 96.144C406.066 96.144 405.19 95.934 404.422 95.514C403.666 95.094 403.072 94.494 402.64 93.714C402.22 92.934 402.01 92.022 402.01 90.978ZM412.908 90.96C412.908 89.928 413.1 89.022 413.484 88.242C413.88 87.462 414.414 86.862 415.086 86.442C415.758 86.022 416.508 85.812 417.336 85.812C418.044 85.812 418.662 85.956 419.19 86.244C419.73 86.532 420.144 86.91 420.432 87.378V85.956H423.51V96H420.432V94.578C420.132 95.046 419.712 95.424 419.172 95.712C418.644 96 418.026 96.144 417.318 96.144C416.502 96.144 415.758 95.934 415.086 95.514C414.414 95.082 413.88 94.476 413.484 93.696C413.1 92.904 412.908 91.992 412.908 90.96ZM420.432 90.978C420.432 90.21 420.216 89.604 419.784 89.16C419.364 88.716 418.848 88.494 418.236 88.494C417.624 88.494 417.102 88.716 416.67 89.16C416.25 89.592 416.04 90.192 416.04 90.96C416.04 91.728 416.25 92.34 416.67 92.796C417.102 93.24 417.624 93.462 418.236 93.462C418.848 93.462 419.364 93.24 419.784 92.796C420.216 92.352 420.432 91.746 420.432 90.978ZM429.823 96.144C428.947 96.144 428.167 95.994 427.483 95.694C426.799 95.394 426.259 94.986 425.863 94.47C425.467 93.942 425.245 93.354 425.197 92.706H428.239C428.275 93.054 428.437 93.336 428.725 93.552C429.013 93.768 429.367 93.876 429.787 93.876C430.171 93.876 430.465 93.804 430.669 93.66C430.885 93.504 430.993 93.306 430.993 93.066C430.993 92.778 430.843 92.568 430.543 92.436C430.243 92.292 429.757 92.136 429.085 91.968C428.365 91.8 427.765 91.626 427.285 91.446C426.805 91.254 426.391 90.96 426.043 90.564C425.695 90.156 425.521 89.61 425.521 88.926C425.521 88.35 425.677 87.828 425.989 87.36C426.313 86.88 426.781 86.502 427.393 86.226C428.017 85.95 428.755 85.812 429.607 85.812C430.867 85.812 431.857 86.124 432.577 86.748C433.309 87.372 433.729 88.2 433.837 89.232H430.993C430.945 88.884 430.789 88.608 430.525 88.404C430.273 88.2 429.937 88.098 429.517 88.098C429.157 88.098 428.881 88.17 428.689 88.314C428.497 88.446 428.401 88.632 428.401 88.872C428.401 89.16 428.551 89.376 428.851 89.52C429.163 89.664 429.643 89.808 430.291 89.952C431.035 90.144 431.641 90.336 432.109 90.528C432.577 90.708 432.985 91.008 433.333 91.428C433.693 91.836 433.879 92.388 433.891 93.084C433.891 93.672 433.723 94.2 433.387 94.668C433.063 95.124 432.589 95.484 431.965 95.748C431.353 96.012 430.639 96.144 429.823 96.144ZM445.242 90.816C445.242 91.104 445.224 91.404 445.188 91.716H438.222C438.27 92.34 438.468 92.82 438.816 93.156C439.176 93.48 439.614 93.642 440.13 93.642C440.898 93.642 441.432 93.318 441.732 92.67H445.008C444.84 93.33 444.534 93.924 444.09 94.452C443.658 94.98 443.112 95.394 442.452 95.694C441.792 95.994 441.054 96.144 440.238 96.144C439.254 96.144 438.378 95.934 437.61 95.514C436.842 95.094 436.242 94.494 435.81 93.714C435.378 92.934 435.162 92.022 435.162 90.978C435.162 89.934 435.372 89.022 435.792 88.242C436.224 87.462 436.824 86.862 437.592 86.442C438.36 86.022 439.242 85.812 440.238 85.812C441.21 85.812 442.074 86.016 442.83 86.424C443.586 86.832 444.174 87.414 444.594 88.17C445.026 88.926 445.242 89.808 445.242 90.816ZM442.092 90.006C442.092 89.478 441.912 89.058 441.552 88.746C441.192 88.434 440.742 88.278 440.202 88.278C439.686 88.278 439.248 88.428 438.888 88.728C438.54 89.028 438.324 89.454 438.24 90.006H442.092Z" fill="white"/>
<path fill-rule="evenodd" clip-rule="evenodd" d="M152 580H153H155H171H174V583V599V602C172.982 602 171.981 601.931 171 601.797C161.819 600.545 154.44 593.629 152.5 584.685C150.56 593.629 143.181 600.545 134 601.797C133.019 601.931 132.018 602 131 602V599V583V580H134H150H152ZM134 583V598.764C142.091 597.481 148.481 591.091 149.764 583H134ZM171 583V598.764C162.909 597.481 156.519 591.091 155.236 583H171Z" fill="white"/>
<path fill-rule="evenodd" clip-rule="evenodd" d="M427 580H428H430H446H449V583V599V602C447.982 602 446.981 601.931 446 601.797C436.819 600.545 429.44 593.629 427.5 584.685C425.56 593.629 418.181 600.545 409 601.797C408.019 601.931 407.018 602 406 602V599V583V580H409H425H427ZM409 583V598.764C417.091 597.481 423.481 591.091 424.764 583H409ZM446 583V598.764C437.909 597.481 431.519 591.091 430.236 583H446Z" fill="white"/>
<path fill-rule="evenodd" clip-rule="evenodd" d="M351 22H352H354H370H373V19V3V0C371.982 0 370.981 0.0690899 370 0.202837C360.819 1.45469 353.44 8.37082 351.5 17.3146C349.56 8.37082 342.181 1.45469 333 0.202837C332.019 0.0690899 331.018 0 330 0V3V19V22H333H349H351ZM333 19V3.2355C341.091 4.51885 347.481 10.9092 348.764 19H333ZM370 19V3.2355C361.909 4.51885 355.519 10.9092 354.236 19H370Z" fill="white"/>
<defs>
<filter id="filter0_dddd_648_1433" x="0.317879" y="2.31788" width="661.364" height="599.364" filterUnits="userSpaceOnUse" color-interpolation-filters="sRGB">
<feFlood flood-opacity="0" result="BackgroundImageFix"/>
<feColorMatrix in="SourceAlpha" type="matrix" values="0 0 0 0 0 0 0 0 0 0 0 0 0 0 0 0 0 0 127 0" result="hardAlpha"/>
<feOffset/>
<feGaussianBlur stdDeviation="0.613647"/>
<feColorMatrix type="matrix" values="0 0 0 0 1 0 0 0 0 1 0 0 0 0 1 0 0 0 1 0"/>
<feBlend mode="normal" in2="BackgroundImageFix" result="effect1_dropShadow_648_1433"/>
<feColorMatrix in="SourceAlpha" type="matrix" values="0 0 0 0 0 0 0 0 0 0 0 0 0 0 0 0 0 0 127 0" result="hardAlpha"/>
<feOffset/>
<feGaussianBlur stdDeviation="1.22729"/>
<feColorMatrix type="matrix" values="0 0 0 0 1 0 0 0 0 1 0 0 0 0 1 0 0 0 1 0"/>
<feBlend mode="normal" in2="effect1_dropShadow_648_1433" result="effect2_dropShadow_648_1433"/>
<feColorMatrix in="SourceAlpha" type="matrix" values="0 0 0 0 0 0 0 0 0 0 0 0 0 0 0 0 0 0 127 0" result="hardAlpha"/>
<feOffset/>
<feGaussianBlur stdDeviation="4.29553"/>
<feColorMatrix type="matrix" values="0 0 0 0 1 0 0 0 0 1 0 0 0 0 1 0 0 0 1 0"/>
<feBlend mode="normal" in2="effect2_dropShadow_648_1433" result="effect3_dropShadow_648_1433"/>
<feColorMatrix in="SourceAlpha" type="matrix" values="0 0 0 0 0 0 0 0 0 0 0 0 0 0 0 0 0 0 127 0" result="hardAlpha"/>
<feOffset/>
<feGaussianBlur stdDeviation="8.59106"/>
<feColorMatrix type="matrix" values="0 0 0 0 1 0 0 0 0 0.764706 0 0 0 0 0.956863 0 0 0 1 0"/>
<feBlend mode="normal" in2="effect3_dropShadow_648_1433" result="effect4_dropShadow_648_1433"/>
<feBlend mode="normal" in="SourceGraphic" in2="effect4_dropShadow_648_1433" result="shape"/>
</filter>
<filter id="filter1_d_648_1433" x="162.5" y="253.5" width="30" height="57" filterUnits="userSpaceOnUse" color-interpolation-filters="sRGB">
<feFlood flood-opacity="0" result="BackgroundImageFix"/>
<feColorMatrix in="SourceAlpha" type="matrix" values="0 0 0 0 0 0 0 0 0 0 0 0 0 0 0 0 0 0 127 0" result="hardAlpha"/>
<feOffset dy="4"/>
<feGaussianBlur stdDeviation="2"/>
<feComposite in2="hardAlpha" operator="out"/>
<feColorMatrix type="matrix" values="0 0 0 0 0 0 0 0 0 0 0 0 0 0 0 0 0 0 0.25 0"/>
<feBlend mode="normal" in2="BackgroundImageFix" result="effect1_dropShadow_648_1433"/>
<feBlend mode="normal" in="SourceGraphic" in2="effect1_dropShadow_648_1433" result="shape"/>
</filter>
</defs>
</svg>
