<svg width="850" height="674" viewBox="0 0 850 674" fill="none" xmlns="http://www.w3.org/2000/svg">
<g opacity="0.5" filter="url(#filter0_dddddd_648_1516)">
<path d="M29 306.275V521.997L214.268 597.396M213.222 597.396L399.537 521.997V306.275L217.408 238.208M215.315 113.592V238.208M29 181.345L215.315 113.277M29 311.511V181.659" stroke="#FFC3F4" stroke-width="2" stroke-linecap="round" stroke-linejoin="round"/>
</g>
<g opacity="0.5" filter="url(#filter1_dddddd_648_1516)">
<path d="M830 414.049L830 198.38L633.5 123M634.61 123L437 198.38L437 414.049L630.169 482.1M632.39 606.686L632.39 482.1M830 538.949L632.39 607M830 408.814L830 538.635" stroke="#FFC3F4" stroke-width="2" stroke-linecap="round" stroke-linejoin="round"/>
</g>
<g opacity="0.5" filter="url(#filter2_dddd_648_1516)">
<path d="M240 209V50L398 109V269L240 209Z" stroke="#FFC3F4" stroke-width="2"/>
</g>
<g opacity="0.5" filter="url(#filter3_dddd_648_1516)">
<path d="M487 10L430 79V168L560 112V36L487 10Z" stroke="#FFC3F4" stroke-width="2"/>
</g>
<g opacity="0.5" filter="url(#filter4_dddd_648_1516)">
<path d="M354 664L242 612L384 559L446 612L354 664Z" stroke="#FFC3F4" stroke-width="2"/>
</g>
<g opacity="0.5" filter="url(#filter5_dddd_648_1516)">
<path d="M433 531V442L607 504V619L562 645L468 598L408 550L433 531Z" stroke="#FFC3F4" stroke-width="2"/>
</g>
<g filter="url(#filter6_dddd_648_1516)">
<path d="M73.957 384.712H37.5623L40.9343 362.855H61.258L66.8216 357.436L68.5695 346.089L65.3475 341.598H44.2346L47.5089 319.742H67.8456L73.4091 314.323L73.6374 312.856H47.4175L41.854 318.275L31.6726 384.712H0L10.788 314.323L34.712 291H108.676L104.469 318.283L91.2869 331.134L100.568 343.993L97.881 361.396L73.9635 384.719L73.957 384.712Z" fill="url(#paint0_linear_648_1516)"/>
<path d="M194.203 385.462H99.9219L114.31 291.75H145.976L134.953 363.605H197.575L194.203 385.462Z" fill="url(#paint1_linear_648_1516)"/>
<path d="M294.778 385.462H221.623L204.234 361.21L214.885 291.75H246.551L236.227 359.115L239.449 363.605H266.477L277.5 291.75H309.173L294.784 385.462H294.778Z" fill="url(#paint2_linear_648_1516)"/>
<path d="M412.533 313.606H347.179L341.622 319.025L339.228 334.863H401.856L398.483 356.719H335.869L334.806 363.605H397.42L394.048 385.462H299.768L310.556 315.073L334.473 291.75H510.316" fill="url(#paint3_linear_648_1516)"/>
<path d="M510.315 291.75L503.891 333.396L480.039 356.719H443.644L447.016 334.863H467.327L472.832 329.452L475.277 313.606H449.058L443.494 319.025L433.313 385.462H401.646L412.434 313.576" fill="url(#paint4_linear_648_1516)"/>
<path d="M596.495 385.462H566.342L558.254 356.719H544.218L547.59 334.863H567.901L573.406 329.452L575.852 313.606H549.632L544.068 319.025L533.887 385.462H502.221L513.009 315.073L536.926 291.75H610.89L604.465 333.396L588.094 349.407L592.092 363.605H599.867L596.495 385.462Z" fill="url(#paint5_linear_648_1516)"/>
<path d="M634.455 385.462H602.789L617.177 291.75H648.843L634.455 385.462Z" fill="url(#paint6_linear_648_1516)"/>
<path d="M735.031 385.462H703.365L713.689 318.097L710.467 313.606H683.439L672.416 385.462H640.75L655.138 291.75H728.293L745.682 316.001L735.031 385.462Z" fill="url(#paint7_linear_648_1516)"/>
<path d="M804.297 385.462H772.631L783.654 313.606H752.34L755.712 291.75H849.999L846.627 313.606H815.32L804.297 385.462Z" fill="url(#paint8_linear_648_1516)"/>
</g>
<g filter="url(#filter7_dd_648_1516)">
<path d="M96 229.5H99.75V245.1H96V229.5ZM107.25 229.5H111V249H107.25V229.5ZM99.75 245.1H107.25V249H99.75V245.1ZM125.971 241.35H129.721V245.25H125.971V241.35ZM118.471 233.4H125.971V229.5H118.471V233.4ZM118.471 249H125.971V245.1H118.471V249ZM114.721 229.5H118.471V249H114.721V229.5ZM118.471 241.2H125.971V237.3H118.471V241.2ZM125.971 233.4H129.721V237.3H125.971V233.4ZM133.441 245.1V233.4H137.191V245.1H133.441ZM137.191 249V245.1H144.691V249H137.191ZM137.191 233.4V229.5H144.691V233.4H137.191ZM144.691 245.1V241.2H148.441V245.1H144.691ZM144.691 237.3V233.4H148.441V237.3H144.691ZM174.691 241.35H178.441V245.25H174.691V241.35ZM167.191 233.4H174.691V229.5H167.191V233.4ZM167.191 249H174.691V245.1H167.191V249ZM163.441 229.5H167.191V249H163.441V229.5ZM167.191 241.2H174.691V237.3H167.191V241.2ZM174.691 233.4H178.441V237.3H174.691V233.4ZM185.912 233.4V245.1H189.662V233.4H185.912ZM182.162 233.4V229.5H193.412V233.4H182.162ZM182.162 249V245.1H193.412V249H182.162ZM197.133 245.1V241.2H200.883V245.1H197.133ZM197.133 249V245.1H208.383V249H197.133ZM200.883 241.2V237.3H204.633V241.2H200.883ZM204.633 237.3V233.4H208.383V237.3H204.633ZM197.133 233.4V229.5H208.383V233.4H197.133ZM215.883 233.4H219.633V249H215.883V233.4ZM212.133 233.4H223.383V229.5H212.133V233.4ZM227.104 249V229.5H230.854V249H227.104ZM230.854 249V245.1H238.354V249H230.854ZM230.854 233.4V229.5H238.354V233.4H230.854ZM230.854 241.2V237.3H234.604V241.2H230.854ZM242.133 245.1V233.4H245.883V245.1H242.133ZM245.883 249V245.1H253.383V249H245.883ZM245.883 233.4V229.5H253.383V233.4H245.883ZM253.383 245.1V241.2H257.133V245.1H253.383ZM253.383 237.3V233.4H257.133V237.3H253.383ZM260.912 229.5H264.662V249H260.912V229.5ZM264.662 237.3H272.162V241.2H264.662V237.3ZM272.162 229.5H275.912V249H272.162V229.5ZM284.523 227.91C284.343 228.61 284.113 229.37 283.833 230.19C283.553 231.01 283.243 231.83 282.903 232.65C282.583 233.45 282.263 234.21 281.943 234.93H279.993C280.133 234.37 280.273 233.77 280.413 233.13C280.573 232.49 280.713 231.85 280.833 231.21C280.973 230.55 281.093 229.91 281.193 229.29C281.313 228.67 281.413 228.1 281.493 227.58H284.313L284.523 227.91ZM292.377 245.1V241.2H296.127V245.1H292.377ZM284.877 249V245.1H296.127V249H284.877ZM284.877 237.3V233.4H288.627V237.3H284.877ZM284.877 233.4V229.5H296.127V233.4H284.877ZM284.877 241.2V237.3H296.127V241.2H284.877ZM314.789 237.3V241.2H322.289V237.3H314.789ZM311.039 249V233.4H314.789V249H311.039ZM322.289 233.4V229.5H314.789V233.4H322.289ZM322.289 249V233.4H326.039V249H322.289ZM341.01 229.5H344.76V249H341.01V229.5ZM329.76 229.5H333.51V249H329.76V229.5ZM337.26 237.3H341.01V241.2H337.26V237.3ZM333.51 233.4H337.26V237.3H333.51V233.4ZM359.73 229.5H363.48V249H359.73V229.5ZM348.48 229.5H352.23V249H348.48V229.5ZM355.98 237.3H359.73V241.2H355.98V237.3ZM352.23 233.4H355.98V237.3H352.23V233.4ZM367.201 229.5H370.951V245.1H367.201V229.5ZM378.451 229.5H382.201V249H378.451V229.5ZM370.951 245.1H378.451V249H370.951V245.1ZM389.672 237.3V241.2H397.172V237.3H389.672ZM385.922 249V233.4H389.672V249H385.922ZM397.172 233.4V229.5H389.672V233.4H397.172ZM397.172 249V233.4H400.922V249H397.172ZM404.643 249V229.5H408.393V249H404.643ZM408.393 249V245.1H415.893V249H408.393ZM430.893 249V229.5H434.643V249H430.893ZM434.643 233.4V229.5H442.143V233.4H434.643ZM434.643 241.2V237.3H438.393V241.2H434.643ZM445.922 249V229.5H449.672V249H445.922ZM449.672 249V245.1H457.172V249H449.672ZM464.701 237.3V241.2H472.201V237.3H464.701ZM460.951 249V233.4H464.701V249H460.951ZM472.201 233.4V229.5H464.701V233.4H472.201ZM472.201 249V233.4H475.951V249H472.201ZM479.672 245.1V233.4H483.422V245.1H479.672ZM483.422 249V245.1H490.922V249H483.422ZM483.422 233.4V229.5H490.922V233.4H483.422ZM490.922 245.1V237.3H494.672V245.1H490.922ZM487.172 241.2V237.3H490.922V241.2H487.172ZM505.951 245.1V241.2H509.701V245.1H505.951ZM498.451 249V245.1H509.701V249H498.451ZM498.451 237.3V233.4H502.201V237.3H498.451ZM498.451 233.4V229.5H509.701V233.4H498.451ZM498.451 241.2V237.3H509.701V241.2H498.451ZM513.393 229.5H517.143V249H513.393V229.5ZM517.143 237.3H524.643V241.2H517.143V237.3ZM524.643 229.5H528.393V249H524.643V229.5ZM535.863 233.4V245.1H539.613V233.4H535.863ZM532.113 233.4V229.5H543.363V233.4H532.113ZM532.113 249V245.1H543.363V249H532.113ZM558.334 233.4H562.084V241.2H558.334V233.4ZM550.834 233.4H558.334V229.5H550.834V233.4ZM550.834 245.1H558.334V241.2H550.834V245.1ZM547.084 229.5H550.834V249H547.084V229.5ZM577.025 245.1V233.4H580.775V245.1H577.025ZM580.775 249V245.1H588.275V249H580.775ZM580.775 233.4V229.5H588.275V233.4H580.775ZM588.275 245.1V241.2H592.025V245.1H588.275ZM588.275 237.3V233.4H592.025V237.3H588.275ZM595.805 245.1V233.4H599.555V245.1H595.805ZM599.555 249V245.1H610.805V249H599.555ZM599.555 233.4V229.5H610.805V233.4H599.555ZM610.805 245.1V233.4H614.555V245.1H610.805ZM629.555 229.5H633.305V249H629.555V229.5ZM618.305 229.5H622.055V249H618.305V229.5ZM625.805 237.3H629.555V241.2H625.805V237.3ZM622.055 233.4H625.805V237.3H622.055V233.4ZM637.025 249V229.5H640.775V249H637.025ZM640.775 233.4V229.5H648.275V233.4H640.775ZM640.775 241.2V237.3H644.525V241.2H640.775ZM652.055 249V229.5H655.805V249H652.055ZM655.805 249V245.1H663.305V249H655.805ZM655.805 233.4V229.5H663.305V233.4H655.805ZM655.805 241.2V237.3H659.555V241.2H655.805ZM678.334 233.4H682.084V241.2H678.334V233.4ZM667.084 229.5H670.834V249H667.084V229.5ZM670.834 233.4V229.5H678.334V233.4H670.834ZM670.834 245.1V241.2H678.334V245.1H670.834ZM678.334 249V245.1H682.084V249H678.334ZM685.805 249V229.5H689.555V249H685.805ZM689.555 249V245.1H697.055V249H689.555ZM689.555 233.4V229.5H697.055V233.4H689.555ZM689.555 241.2V237.3H693.305V241.2H689.555ZM712.084 229.5H715.834V249H712.084V229.5ZM700.834 229.5H704.584V249H700.834V229.5ZM708.334 237.3H712.084V241.2H708.334V237.3ZM704.584 233.4H708.334V237.3H704.584V233.4ZM719.555 245.1V233.4H723.305V245.1H719.555ZM723.305 249V245.1H730.805V249H723.305ZM723.305 233.4V229.5H730.805V233.4H723.305ZM730.805 245.1V241.2H734.555V245.1H730.805ZM730.805 237.3V233.4H734.555V237.3H730.805ZM738.334 249V229.5H742.084V249H738.334ZM742.084 249V245.1H749.584V249H742.084ZM742.084 233.4V229.5H749.584V233.4H742.084ZM742.084 241.2V237.3H745.834V241.2H742.084Z" fill="#FFC3F4"/>
</g>
<g filter="url(#filter8_dd_648_1516)">
<path d="M237.145 421.01C236.935 421.897 236.713 422.853 236.48 423.88C236.247 424.907 236.037 425.91 235.85 426.89C235.663 427.87 235.512 428.768 235.395 429.585H232.07L231.825 429.2C232.035 428.383 232.303 427.508 232.63 426.575C232.957 425.618 233.318 424.662 233.715 423.705C234.112 422.748 234.497 421.85 234.87 421.01H237.145ZM230.67 421.01C230.46 421.897 230.238 422.853 230.005 423.88C229.772 424.907 229.562 425.91 229.375 426.89C229.188 427.87 229.037 428.768 228.92 429.585H225.63L225.42 429.2C225.63 428.383 225.898 427.508 226.225 426.575C226.552 425.618 226.902 424.662 227.275 423.705C227.672 422.748 228.057 421.85 228.43 421.01H230.67ZM256.759 427.8H261.134V441.45H256.759V427.8ZM248.044 427.8H256.794V423.25H248.044V427.8ZM248.044 446H256.794V441.45H248.044V446ZM243.669 423.25H248.044V446H243.669V423.25ZM269.919 427.8V441.45H274.294V427.8H269.919ZM265.544 427.8V423.25H278.669V427.8H265.544ZM265.544 446V441.45H278.669V446H265.544ZM283.01 441.45V427.8H287.385V441.45H283.01ZM287.385 446V441.45H296.135V446H287.385ZM287.385 427.8V423.25H296.135V427.8H287.385ZM296.135 441.45V432.35H300.51V441.45H296.135ZM291.76 436.9V432.35H296.135V436.9H291.76ZM309.294 427.8V441.45H313.669V427.8H309.294ZM304.919 427.8V423.25H318.044V427.8H304.919ZM304.919 446V441.45H318.044V446H304.919ZM326.76 427.8H331.135V446H326.76V427.8ZM322.385 427.8H335.51V423.25H322.385V427.8ZM344.226 432.35V436.9H352.976V432.35H344.226ZM339.851 446V427.8H344.226V446H339.851ZM352.976 427.8V423.25H344.226V427.8H352.976ZM352.976 446V427.8H357.351V446H352.976ZM361.691 446V423.25H366.066V446H361.691ZM366.066 446V441.45H374.816V446H366.066ZM405.406 427.8H409.781V441.45H405.406V427.8ZM396.691 427.8H405.441V423.25H396.691V427.8ZM396.691 446H405.441V441.45H396.691V446ZM392.316 423.25H396.691V446H392.316V423.25ZM418.566 427.8V441.45H422.941V427.8H418.566ZM414.191 427.8V423.25H427.316V427.8H414.191ZM414.191 446V441.45H427.316V446H414.191ZM440.407 441.45V436.9H444.782V441.45H440.407ZM431.657 446V441.45H444.782V446H431.657ZM431.657 432.35V427.8H436.032V432.35H431.657ZM431.657 427.8V423.25H444.782V427.8H431.657ZM431.657 436.9V432.35H444.782V436.9H431.657ZM462.214 427.8H466.589V436.9H462.214V427.8ZM449.089 423.25H453.464V446H449.089V423.25ZM453.464 427.8V423.25H462.214V427.8H453.464ZM453.464 441.45V436.9H462.214V441.45H453.464ZM462.214 446V441.45H466.589V446H462.214ZM470.93 423.25H475.305V441.45H470.93V423.25ZM484.055 423.25H488.43V446H484.055V423.25ZM475.305 441.45H484.055V446H475.305V441.45ZM505.896 427.8H510.271V436.9H505.896V427.8ZM497.146 427.8H505.896V423.25H497.146V427.8ZM497.146 441.45H505.896V436.9H497.146V441.45ZM492.771 423.25H497.146V446H492.771V423.25ZM518.986 427.8H523.361V446H518.986V427.8ZM514.611 427.8H527.736V423.25H514.611V427.8ZM536.452 427.8V441.45H540.827V427.8H536.452ZM532.077 427.8V423.25H545.202V427.8H532.077ZM532.077 446V441.45H545.202V446H532.077ZM549.543 441.45V427.8H553.918V441.45H549.543ZM553.918 446V441.45H567.043V446H553.918ZM553.918 427.8V423.25H567.043V427.8H553.918ZM567.043 441.45V427.8H571.418V441.45H567.043ZM588.918 423.25H593.293V446H588.918V423.25ZM575.793 423.25H580.168V446H575.793V423.25ZM584.543 432.35H588.918V436.9H584.543V432.35ZM580.168 427.8H584.543V432.35H580.168V427.8ZM606.384 441.45V436.9H610.759V441.45H606.384ZM597.634 446V441.45H610.759V446H597.634ZM597.634 432.35V427.8H602.009V432.35H597.634ZM597.634 427.8V423.25H610.759V427.8H597.634ZM597.634 436.9V432.35H610.759V436.9H597.634ZM628.96 421.395C628.75 422.212 628.482 423.098 628.155 424.055C627.829 425.012 627.467 425.968 627.07 426.925C626.697 427.858 626.324 428.745 625.95 429.585H623.64C623.874 428.698 624.095 427.753 624.305 426.75C624.539 425.723 624.749 424.72 624.935 423.74C625.145 422.737 625.309 421.827 625.425 421.01H628.715L628.96 421.395ZM622.485 421.395C622.275 422.212 622.007 423.098 621.68 424.055C621.354 425.012 620.992 425.968 620.595 426.925C620.222 427.858 619.849 428.745 619.475 429.585H617.235C617.399 428.932 617.562 428.232 617.725 427.485C617.889 426.738 618.04 425.992 618.18 425.245C618.344 424.475 618.484 423.728 618.6 423.005C618.74 422.282 618.857 421.617 618.95 421.01H622.24L622.485 421.395Z" fill="#FFC3F4"/>
</g>
<defs>
<filter id="filter0_dddddd_648_1516" x="-19.2038" y="65.0736" width="466.945" height="580.525" filterUnits="userSpaceOnUse" color-interpolation-filters="sRGB">
<feFlood flood-opacity="0" result="BackgroundImageFix"/>
<feColorMatrix in="SourceAlpha" type="matrix" values="0 0 0 0 0 0 0 0 0 0 0 0 0 0 0 0 0 0 127 0" result="hardAlpha"/>
<feOffset/>
<feGaussianBlur stdDeviation="0.561949"/>
<feColorMatrix type="matrix" values="0 0 0 0 1 0 0 0 0 1 0 0 0 0 1 0 0 0 1 0"/>
<feBlend mode="normal" in2="BackgroundImageFix" result="effect1_dropShadow_648_1516"/>
<feColorMatrix in="SourceAlpha" type="matrix" values="0 0 0 0 0 0 0 0 0 0 0 0 0 0 0 0 0 0 127 0" result="hardAlpha"/>
<feOffset/>
<feGaussianBlur stdDeviation="1.1239"/>
<feColorMatrix type="matrix" values="0 0 0 0 1 0 0 0 0 1 0 0 0 0 1 0 0 0 1 0"/>
<feBlend mode="normal" in2="effect1_dropShadow_648_1516" result="effect2_dropShadow_648_1516"/>
<feColorMatrix in="SourceAlpha" type="matrix" values="0 0 0 0 0 0 0 0 0 0 0 0 0 0 0 0 0 0 127 0" result="hardAlpha"/>
<feOffset/>
<feGaussianBlur stdDeviation="3.93365"/>
<feColorMatrix type="matrix" values="0 0 0 0 1 0 0 0 0 1 0 0 0 0 1 0 0 0 1 0"/>
<feBlend mode="normal" in2="effect2_dropShadow_648_1516" result="effect3_dropShadow_648_1516"/>
<feColorMatrix in="SourceAlpha" type="matrix" values="0 0 0 0 0 0 0 0 0 0 0 0 0 0 0 0 0 0 127 0" result="hardAlpha"/>
<feOffset/>
<feGaussianBlur stdDeviation="7.86729"/>
<feColorMatrix type="matrix" values="0 0 0 0 1 0 0 0 0 0.764706 0 0 0 0 0.956863 0 0 0 1 0"/>
<feBlend mode="normal" in2="effect3_dropShadow_648_1516" result="effect4_dropShadow_648_1516"/>
<feColorMatrix in="SourceAlpha" type="matrix" values="0 0 0 0 0 0 0 0 0 0 0 0 0 0 0 0 0 0 127 0" result="hardAlpha"/>
<feOffset/>
<feGaussianBlur stdDeviation="13.4868"/>
<feColorMatrix type="matrix" values="0 0 0 0 1 0 0 0 0 0.764706 0 0 0 0 0.956863 0 0 0 1 0"/>
<feBlend mode="normal" in2="effect4_dropShadow_648_1516" result="effect5_dropShadow_648_1516"/>
<feColorMatrix in="SourceAlpha" type="matrix" values="0 0 0 0 0 0 0 0 0 0 0 0 0 0 0 0 0 0 127 0" result="hardAlpha"/>
<feOffset/>
<feGaussianBlur stdDeviation="23.6019"/>
<feColorMatrix type="matrix" values="0 0 0 0 1 0 0 0 0 0.764706 0 0 0 0 0.956863 0 0 0 1 0"/>
<feBlend mode="normal" in2="effect5_dropShadow_648_1516" result="effect6_dropShadow_648_1516"/>
<feBlend mode="normal" in="SourceGraphic" in2="effect6_dropShadow_648_1516" result="shape"/>
</filter>
<filter id="filter1_dddddd_648_1516" x="388.796" y="74.7962" width="489.408" height="580.408" filterUnits="userSpaceOnUse" color-interpolation-filters="sRGB">
<feFlood flood-opacity="0" result="BackgroundImageFix"/>
<feColorMatrix in="SourceAlpha" type="matrix" values="0 0 0 0 0 0 0 0 0 0 0 0 0 0 0 0 0 0 127 0" result="hardAlpha"/>
<feOffset/>
<feGaussianBlur stdDeviation="0.561949"/>
<feColorMatrix type="matrix" values="0 0 0 0 1 0 0 0 0 1 0 0 0 0 1 0 0 0 1 0"/>
<feBlend mode="normal" in2="BackgroundImageFix" result="effect1_dropShadow_648_1516"/>
<feColorMatrix in="SourceAlpha" type="matrix" values="0 0 0 0 0 0 0 0 0 0 0 0 0 0 0 0 0 0 127 0" result="hardAlpha"/>
<feOffset/>
<feGaussianBlur stdDeviation="1.1239"/>
<feColorMatrix type="matrix" values="0 0 0 0 1 0 0 0 0 1 0 0 0 0 1 0 0 0 1 0"/>
<feBlend mode="normal" in2="effect1_dropShadow_648_1516" result="effect2_dropShadow_648_1516"/>
<feColorMatrix in="SourceAlpha" type="matrix" values="0 0 0 0 0 0 0 0 0 0 0 0 0 0 0 0 0 0 127 0" result="hardAlpha"/>
<feOffset/>
<feGaussianBlur stdDeviation="3.93365"/>
<feColorMatrix type="matrix" values="0 0 0 0 1 0 0 0 0 1 0 0 0 0 1 0 0 0 1 0"/>
<feBlend mode="normal" in2="effect2_dropShadow_648_1516" result="effect3_dropShadow_648_1516"/>
<feColorMatrix in="SourceAlpha" type="matrix" values="0 0 0 0 0 0 0 0 0 0 0 0 0 0 0 0 0 0 127 0" result="hardAlpha"/>
<feOffset/>
<feGaussianBlur stdDeviation="7.86729"/>
<feColorMatrix type="matrix" values="0 0 0 0 1 0 0 0 0 0.764706 0 0 0 0 0.956863 0 0 0 1 0"/>
<feBlend mode="normal" in2="effect3_dropShadow_648_1516" result="effect4_dropShadow_648_1516"/>
<feColorMatrix in="SourceAlpha" type="matrix" values="0 0 0 0 0 0 0 0 0 0 0 0 0 0 0 0 0 0 127 0" result="hardAlpha"/>
<feOffset/>
<feGaussianBlur stdDeviation="13.4868"/>
<feColorMatrix type="matrix" values="0 0 0 0 1 0 0 0 0 0.764706 0 0 0 0 0.956863 0 0 0 1 0"/>
<feBlend mode="normal" in2="effect4_dropShadow_648_1516" result="effect5_dropShadow_648_1516"/>
<feColorMatrix in="SourceAlpha" type="matrix" values="0 0 0 0 0 0 0 0 0 0 0 0 0 0 0 0 0 0 127 0" result="hardAlpha"/>
<feOffset/>
<feGaussianBlur stdDeviation="23.6019"/>
<feColorMatrix type="matrix" values="0 0 0 0 1 0 0 0 0 0.764706 0 0 0 0 0.956863 0 0 0 1 0"/>
<feBlend mode="normal" in2="effect5_dropShadow_648_1516" result="effect6_dropShadow_648_1516"/>
<feBlend mode="normal" in="SourceGraphic" in2="effect6_dropShadow_648_1516" result="shape"/>
</filter>
<filter id="filter2_dddd_648_1516" x="230.55" y="40.1082" width="176.901" height="238.791" filterUnits="userSpaceOnUse" color-interpolation-filters="sRGB">
<feFlood flood-opacity="0" result="BackgroundImageFix"/>
<feColorMatrix in="SourceAlpha" type="matrix" values="0 0 0 0 0 0 0 0 0 0 0 0 0 0 0 0 0 0 127 0" result="hardAlpha"/>
<feOffset/>
<feGaussianBlur stdDeviation="0.3018"/>
<feColorMatrix type="matrix" values="0 0 0 0 1 0 0 0 0 1 0 0 0 0 1 0 0 0 1 0"/>
<feBlend mode="normal" in2="BackgroundImageFix" result="effect1_dropShadow_648_1516"/>
<feColorMatrix in="SourceAlpha" type="matrix" values="0 0 0 0 0 0 0 0 0 0 0 0 0 0 0 0 0 0 127 0" result="hardAlpha"/>
<feOffset/>
<feGaussianBlur stdDeviation="0.6036"/>
<feColorMatrix type="matrix" values="0 0 0 0 1 0 0 0 0 1 0 0 0 0 1 0 0 0 1 0"/>
<feBlend mode="normal" in2="effect1_dropShadow_648_1516" result="effect2_dropShadow_648_1516"/>
<feColorMatrix in="SourceAlpha" type="matrix" values="0 0 0 0 0 0 0 0 0 0 0 0 0 0 0 0 0 0 127 0" result="hardAlpha"/>
<feOffset/>
<feGaussianBlur stdDeviation="2.1126"/>
<feColorMatrix type="matrix" values="0 0 0 0 1 0 0 0 0 1 0 0 0 0 1 0 0 0 1 0"/>
<feBlend mode="normal" in2="effect2_dropShadow_648_1516" result="effect3_dropShadow_648_1516"/>
<feColorMatrix in="SourceAlpha" type="matrix" values="0 0 0 0 0 0 0 0 0 0 0 0 0 0 0 0 0 0 127 0" result="hardAlpha"/>
<feOffset/>
<feGaussianBlur stdDeviation="4.2252"/>
<feColorMatrix type="matrix" values="0 0 0 0 1 0 0 0 0 0.764706 0 0 0 0 0.956863 0 0 0 1 0"/>
<feBlend mode="normal" in2="effect3_dropShadow_648_1516" result="effect4_dropShadow_648_1516"/>
<feBlend mode="normal" in="SourceGraphic" in2="effect4_dropShadow_648_1516" result="shape"/>
</filter>
<filter id="filter3_dddd_648_1516" x="420.55" y="0.373818" width="148.901" height="177.596" filterUnits="userSpaceOnUse" color-interpolation-filters="sRGB">
<feFlood flood-opacity="0" result="BackgroundImageFix"/>
<feColorMatrix in="SourceAlpha" type="matrix" values="0 0 0 0 0 0 0 0 0 0 0 0 0 0 0 0 0 0 127 0" result="hardAlpha"/>
<feOffset/>
<feGaussianBlur stdDeviation="0.3018"/>
<feColorMatrix type="matrix" values="0 0 0 0 1 0 0 0 0 1 0 0 0 0 1 0 0 0 1 0"/>
<feBlend mode="normal" in2="BackgroundImageFix" result="effect1_dropShadow_648_1516"/>
<feColorMatrix in="SourceAlpha" type="matrix" values="0 0 0 0 0 0 0 0 0 0 0 0 0 0 0 0 0 0 127 0" result="hardAlpha"/>
<feOffset/>
<feGaussianBlur stdDeviation="0.6036"/>
<feColorMatrix type="matrix" values="0 0 0 0 1 0 0 0 0 1 0 0 0 0 1 0 0 0 1 0"/>
<feBlend mode="normal" in2="effect1_dropShadow_648_1516" result="effect2_dropShadow_648_1516"/>
<feColorMatrix in="SourceAlpha" type="matrix" values="0 0 0 0 0 0 0 0 0 0 0 0 0 0 0 0 0 0 127 0" result="hardAlpha"/>
<feOffset/>
<feGaussianBlur stdDeviation="2.1126"/>
<feColorMatrix type="matrix" values="0 0 0 0 1 0 0 0 0 1 0 0 0 0 1 0 0 0 1 0"/>
<feBlend mode="normal" in2="effect2_dropShadow_648_1516" result="effect3_dropShadow_648_1516"/>
<feColorMatrix in="SourceAlpha" type="matrix" values="0 0 0 0 0 0 0 0 0 0 0 0 0 0 0 0 0 0 127 0" result="hardAlpha"/>
<feOffset/>
<feGaussianBlur stdDeviation="4.2252"/>
<feColorMatrix type="matrix" values="0 0 0 0 1 0 0 0 0 0.764706 0 0 0 0 0.956863 0 0 0 1 0"/>
<feBlend mode="normal" in2="effect3_dropShadow_648_1516" result="effect4_dropShadow_648_1516"/>
<feBlend mode="normal" in="SourceGraphic" in2="effect4_dropShadow_648_1516" result="shape"/>
</filter>
<filter id="filter4_dddd_648_1516" x="230.958" y="549.405" width="225.227" height="124.17" filterUnits="userSpaceOnUse" color-interpolation-filters="sRGB">
<feFlood flood-opacity="0" result="BackgroundImageFix"/>
<feColorMatrix in="SourceAlpha" type="matrix" values="0 0 0 0 0 0 0 0 0 0 0 0 0 0 0 0 0 0 127 0" result="hardAlpha"/>
<feOffset/>
<feGaussianBlur stdDeviation="0.3018"/>
<feColorMatrix type="matrix" values="0 0 0 0 1 0 0 0 0 1 0 0 0 0 1 0 0 0 1 0"/>
<feBlend mode="normal" in2="BackgroundImageFix" result="effect1_dropShadow_648_1516"/>
<feColorMatrix in="SourceAlpha" type="matrix" values="0 0 0 0 0 0 0 0 0 0 0 0 0 0 0 0 0 0 127 0" result="hardAlpha"/>
<feOffset/>
<feGaussianBlur stdDeviation="0.6036"/>
<feColorMatrix type="matrix" values="0 0 0 0 1 0 0 0 0 1 0 0 0 0 1 0 0 0 1 0"/>
<feBlend mode="normal" in2="effect1_dropShadow_648_1516" result="effect2_dropShadow_648_1516"/>
<feColorMatrix in="SourceAlpha" type="matrix" values="0 0 0 0 0 0 0 0 0 0 0 0 0 0 0 0 0 0 127 0" result="hardAlpha"/>
<feOffset/>
<feGaussianBlur stdDeviation="2.1126"/>
<feColorMatrix type="matrix" values="0 0 0 0 1 0 0 0 0 1 0 0 0 0 1 0 0 0 1 0"/>
<feBlend mode="normal" in2="effect2_dropShadow_648_1516" result="effect3_dropShadow_648_1516"/>
<feColorMatrix in="SourceAlpha" type="matrix" values="0 0 0 0 0 0 0 0 0 0 0 0 0 0 0 0 0 0 127 0" result="hardAlpha"/>
<feOffset/>
<feGaussianBlur stdDeviation="4.2252"/>
<feColorMatrix type="matrix" values="0 0 0 0 1 0 0 0 0 0.764706 0 0 0 0 0.956863 0 0 0 1 0"/>
<feBlend mode="normal" in2="effect3_dropShadow_648_1516" result="effect4_dropShadow_648_1516"/>
<feBlend mode="normal" in="SourceGraphic" in2="effect4_dropShadow_648_1516" result="shape"/>
</filter>
<filter id="filter5_dddd_648_1516" x="397.923" y="432.132" width="218.528" height="222.455" filterUnits="userSpaceOnUse" color-interpolation-filters="sRGB">
<feFlood flood-opacity="0" result="BackgroundImageFix"/>
<feColorMatrix in="SourceAlpha" type="matrix" values="0 0 0 0 0 0 0 0 0 0 0 0 0 0 0 0 0 0 127 0" result="hardAlpha"/>
<feOffset/>
<feGaussianBlur stdDeviation="0.3018"/>
<feColorMatrix type="matrix" values="0 0 0 0 1 0 0 0 0 1 0 0 0 0 1 0 0 0 1 0"/>
<feBlend mode="normal" in2="BackgroundImageFix" result="effect1_dropShadow_648_1516"/>
<feColorMatrix in="SourceAlpha" type="matrix" values="0 0 0 0 0 0 0 0 0 0 0 0 0 0 0 0 0 0 127 0" result="hardAlpha"/>
<feOffset/>
<feGaussianBlur stdDeviation="0.6036"/>
<feColorMatrix type="matrix" values="0 0 0 0 1 0 0 0 0 1 0 0 0 0 1 0 0 0 1 0"/>
<feBlend mode="normal" in2="effect1_dropShadow_648_1516" result="effect2_dropShadow_648_1516"/>
<feColorMatrix in="SourceAlpha" type="matrix" values="0 0 0 0 0 0 0 0 0 0 0 0 0 0 0 0 0 0 127 0" result="hardAlpha"/>
<feOffset/>
<feGaussianBlur stdDeviation="2.1126"/>
<feColorMatrix type="matrix" values="0 0 0 0 1 0 0 0 0 1 0 0 0 0 1 0 0 0 1 0"/>
<feBlend mode="normal" in2="effect2_dropShadow_648_1516" result="effect3_dropShadow_648_1516"/>
<feColorMatrix in="SourceAlpha" type="matrix" values="0 0 0 0 0 0 0 0 0 0 0 0 0 0 0 0 0 0 127 0" result="hardAlpha"/>
<feOffset/>
<feGaussianBlur stdDeviation="4.2252"/>
<feColorMatrix type="matrix" values="0 0 0 0 1 0 0 0 0 0.764706 0 0 0 0 0.956863 0 0 0 1 0"/>
<feBlend mode="normal" in2="effect3_dropShadow_648_1516" result="effect4_dropShadow_648_1516"/>
<feBlend mode="normal" in="SourceGraphic" in2="effect4_dropShadow_648_1516" result="shape"/>
</filter>
<filter id="filter6_dddd_648_1516" x="-10" y="282.219" width="870" height="117.242" filterUnits="userSpaceOnUse" color-interpolation-filters="sRGB">
<feFlood flood-opacity="0" result="BackgroundImageFix"/>
<feColorMatrix in="SourceAlpha" type="matrix" values="0 0 0 0 0 0 0 0 0 0 0 0 0 0 0 0 0 0 127 0" result="hardAlpha"/>
<feOffset/>
<feGaussianBlur stdDeviation="0.627213"/>
<feColorMatrix type="matrix" values="0 0 0 0 1 0 0 0 0 1 0 0 0 0 1 0 0 0 1 0"/>
<feBlend mode="normal" in2="BackgroundImageFix" result="effect1_dropShadow_648_1516"/>
<feColorMatrix in="SourceAlpha" type="matrix" values="0 0 0 0 0 0 0 0 0 0 0 0 0 0 0 0 0 0 127 0" result="hardAlpha"/>
<feOffset/>
<feGaussianBlur stdDeviation="1.25443"/>
<feColorMatrix type="matrix" values="0 0 0 0 1 0 0 0 0 1 0 0 0 0 1 0 0 0 1 0"/>
<feBlend mode="normal" in2="effect1_dropShadow_648_1516" result="effect2_dropShadow_648_1516"/>
<feColorMatrix in="SourceAlpha" type="matrix" values="0 0 0 0 0 0 0 0 0 0 0 0 0 0 0 0 0 0 127 0" result="hardAlpha"/>
<feOffset/>
<feGaussianBlur stdDeviation="4.39049"/>
<feColorMatrix type="matrix" values="0 0 0 0 1 0 0 0 0 1 0 0 0 0 1 0 0 0 1 0"/>
<feBlend mode="normal" in2="effect2_dropShadow_648_1516" result="effect3_dropShadow_648_1516"/>
<feColorMatrix in="SourceAlpha" type="matrix" values="0 0 0 0 0 0 0 0 0 0 0 0 0 0 0 0 0 0 127 0" result="hardAlpha"/>
<feOffset dy="4"/>
<feGaussianBlur stdDeviation="5"/>
<feComposite in2="hardAlpha" operator="out"/>
<feColorMatrix type="matrix" values="0 0 0 0 0 0 0 0 0 0 0 0 0 0 0 0 0 0 0.5 0"/>
<feBlend mode="normal" in2="effect3_dropShadow_648_1516" result="effect4_dropShadow_648_1516"/>
<feBlend mode="normal" in="SourceGraphic" in2="effect4_dropShadow_648_1516" result="shape"/>
</filter>
<filter id="filter7_dd_648_1516" x="94.0128" y="225.591" width="657.558" height="25.3964" filterUnits="userSpaceOnUse" color-interpolation-filters="sRGB">
<feFlood flood-opacity="0" result="BackgroundImageFix"/>
<feColorMatrix in="SourceAlpha" type="matrix" values="0 0 0 0 0 0 0 0 0 0 0 0 0 0 0 0 0 0 127 0" result="hardAlpha"/>
<feOffset/>
<feGaussianBlur stdDeviation="0.496811"/>
<feColorMatrix type="matrix" values="0 0 0 0 1 0 0 0 0 1 0 0 0 0 1 0 0 0 1 0"/>
<feBlend mode="normal" in2="BackgroundImageFix" result="effect1_dropShadow_648_1516"/>
<feColorMatrix in="SourceAlpha" type="matrix" values="0 0 0 0 0 0 0 0 0 0 0 0 0 0 0 0 0 0 127 0" result="hardAlpha"/>
<feOffset/>
<feGaussianBlur stdDeviation="0.993621"/>
<feColorMatrix type="matrix" values="0 0 0 0 1 0 0 0 0 1 0 0 0 0 1 0 0 0 1 0"/>
<feBlend mode="normal" in2="effect1_dropShadow_648_1516" result="effect2_dropShadow_648_1516"/>
<feBlend mode="normal" in="SourceGraphic" in2="effect2_dropShadow_648_1516" result="shape"/>
</filter>
<filter id="filter8_dd_648_1516" x="222.217" y="417.808" width="409.948" height="31.3949" filterUnits="userSpaceOnUse" color-interpolation-filters="sRGB">
<feFlood flood-opacity="0" result="BackgroundImageFix"/>
<feColorMatrix in="SourceAlpha" type="matrix" values="0 0 0 0 0 0 0 0 0 0 0 0 0 0 0 0 0 0 127 0" result="hardAlpha"/>
<feOffset/>
<feGaussianBlur stdDeviation="0.800829"/>
<feColorMatrix type="matrix" values="0 0 0 0 1 0 0 0 0 1 0 0 0 0 1 0 0 0 1 0"/>
<feBlend mode="normal" in2="BackgroundImageFix" result="effect1_dropShadow_648_1516"/>
<feColorMatrix in="SourceAlpha" type="matrix" values="0 0 0 0 0 0 0 0 0 0 0 0 0 0 0 0 0 0 127 0" result="hardAlpha"/>
<feOffset/>
<feGaussianBlur stdDeviation="1.60166"/>
<feColorMatrix type="matrix" values="0 0 0 0 1 0 0 0 0 1 0 0 0 0 1 0 0 0 1 0"/>
<feBlend mode="normal" in2="effect1_dropShadow_648_1516" result="effect2_dropShadow_648_1516"/>
<feBlend mode="normal" in="SourceGraphic" in2="effect2_dropShadow_648_1516" result="shape"/>
</filter>
<linearGradient id="paint0_linear_648_1516" x1="54.3378" y1="291" x2="54.3378" y2="384.719" gradientUnits="userSpaceOnUse">
<stop stop-color="#FFDFF9"/>
<stop offset="1" stop-color="white"/>
</linearGradient>
<linearGradient id="paint1_linear_648_1516" x1="148.748" y1="291.75" x2="148.748" y2="385.462" gradientUnits="userSpaceOnUse">
<stop stop-color="#FFDFF9"/>
<stop offset="1" stop-color="white"/>
</linearGradient>
<linearGradient id="paint2_linear_648_1516" x1="256.703" y1="291.75" x2="256.703" y2="385.462" gradientUnits="userSpaceOnUse">
<stop stop-color="#FFDFF9"/>
<stop offset="1" stop-color="white"/>
</linearGradient>
<linearGradient id="paint3_linear_648_1516" x1="405.042" y1="291.75" x2="405.042" y2="385.462" gradientUnits="userSpaceOnUse">
<stop stop-color="#FFDFF9"/>
<stop offset="1" stop-color="white"/>
</linearGradient>
<linearGradient id="paint4_linear_648_1516" x1="455.981" y1="291.75" x2="455.981" y2="385.462" gradientUnits="userSpaceOnUse">
<stop stop-color="#FFDFF9"/>
<stop offset="1" stop-color="white"/>
</linearGradient>
<linearGradient id="paint5_linear_648_1516" x1="556.555" y1="291.75" x2="556.555" y2="385.462" gradientUnits="userSpaceOnUse">
<stop stop-color="#FFDFF9"/>
<stop offset="1" stop-color="white"/>
</linearGradient>
<linearGradient id="paint6_linear_648_1516" x1="625.816" y1="291.75" x2="625.816" y2="385.462" gradientUnits="userSpaceOnUse">
<stop stop-color="#FFDFF9"/>
<stop offset="1" stop-color="white"/>
</linearGradient>
<linearGradient id="paint7_linear_648_1516" x1="693.216" y1="291.75" x2="693.216" y2="385.462" gradientUnits="userSpaceOnUse">
<stop stop-color="#FFDFF9"/>
<stop offset="1" stop-color="white"/>
</linearGradient>
<linearGradient id="paint8_linear_648_1516" x1="801.169" y1="291.75" x2="801.169" y2="385.462" gradientUnits="userSpaceOnUse">
<stop stop-color="#FFDFF9"/>
<stop offset="1" stop-color="white"/>
</linearGradient>
</defs>
</svg>
