<svg width="353" height="316" viewBox="0 0 353 316" fill="none" xmlns="http://www.w3.org/2000/svg">
<g filter="url(#filter0_ddd_649_1645)">
<path d="M7 259.5H50" stroke="#FFC3F4" stroke-width="4"/>
<path d="M7 269.5H50.5" stroke="#FFC3F4" stroke-width="4"/>
<path d="M28 26C35.1797 26 41 31.8203 41 39C41 46.1797 35.1797 52 28 52C20.8203 52 15 46.1797 15 39C15 31.8203 20.8203 26 28 26Z" fill="#FFC3F4"/>
<path d="M322.5 276L286 309H28V41L68.5 7H322.5V276Z" stroke="#FFC3F4" stroke-width="4"/>
<path d="M301 47.5H344" stroke="#FFC3F4" stroke-width="4"/>
<path d="M301 57.5H344.5" stroke="#FFC3F4" stroke-width="4"/>
<path d="M324 265C331.18 265 337 270.82 337 278C337 285.18 331.18 291 324 291C316.82 291 311 285.18 311 278C311 270.82 316.82 265 324 265Z" fill="#FFC3F4"/>
</g>
<defs>
<filter id="filter0_ddd_649_1645" x="2.7748" y="0.7748" width="345.95" height="314.45" filterUnits="userSpaceOnUse" color-interpolation-filters="sRGB">
<feFlood flood-opacity="0" result="BackgroundImageFix"/>
<feColorMatrix in="SourceAlpha" type="matrix" values="0 0 0 0 0 0 0 0 0 0 0 0 0 0 0 0 0 0 127 0" result="hardAlpha"/>
<feOffset/>
<feGaussianBlur stdDeviation="0.3018"/>
<feColorMatrix type="matrix" values="0 0 0 0 1 0 0 0 0 0.764706 0 0 0 0 0.956863 0 0 0 1 0"/>
<feBlend mode="normal" in2="BackgroundImageFix" result="effect1_dropShadow_649_1645"/>
<feColorMatrix in="SourceAlpha" type="matrix" values="0 0 0 0 0 0 0 0 0 0 0 0 0 0 0 0 0 0 127 0" result="hardAlpha"/>
<feOffset/>
<feGaussianBlur stdDeviation="0.6036"/>
<feColorMatrix type="matrix" values="0 0 0 0 1 0 0 0 0 0.764706 0 0 0 0 0.956863 0 0 0 1 0"/>
<feBlend mode="normal" in2="effect1_dropShadow_649_1645" result="effect2_dropShadow_649_1645"/>
<feColorMatrix in="SourceAlpha" type="matrix" values="0 0 0 0 0 0 0 0 0 0 0 0 0 0 0 0 0 0 127 0" result="hardAlpha"/>
<feOffset/>
<feGaussianBlur stdDeviation="2.1126"/>
<feColorMatrix type="matrix" values="0 0 0 0 1 0 0 0 0 0.764706 0 0 0 0 0.956863 0 0 0 1 0"/>
<feBlend mode="normal" in2="effect2_dropShadow_649_1645" result="effect3_dropShadow_649_1645"/>
<feBlend mode="normal" in="SourceGraphic" in2="effect3_dropShadow_649_1645" result="shape"/>
</filter>
</defs>
</svg>
