<svg width="781" height="346" viewBox="0 0 781 346" fill="none" xmlns="http://www.w3.org/2000/svg">
<path d="M118.3 327.05C119.567 327.25 120.717 327.767 121.75 328.6C122.817 329.433 123.65 330.467 124.25 331.7C124.883 332.933 125.2 334.25 125.2 335.65C125.2 337.417 124.75 339.017 123.85 340.45C122.95 341.85 121.633 342.967 119.9 343.8C118.2 344.6 116.183 345 113.85 345H100.85V310.15H113.35C115.717 310.15 117.733 310.55 119.4 311.35C121.067 312.117 122.317 313.167 123.15 314.5C123.983 315.833 124.4 317.333 124.4 319C124.4 321.067 123.833 322.783 122.7 324.15C121.6 325.483 120.133 326.45 118.3 327.05ZM105.4 325.2H113.05C115.183 325.2 116.833 324.7 118 323.7C119.167 322.7 119.75 321.317 119.75 319.55C119.75 317.783 119.167 316.4 118 315.4C116.833 314.4 115.15 313.9 112.95 313.9H105.4V325.2ZM113.45 341.25C115.717 341.25 117.483 340.717 118.75 339.65C120.017 338.583 120.65 337.1 120.65 335.2C120.65 333.267 119.983 331.75 118.65 330.65C117.317 329.517 115.533 328.95 113.3 328.95H105.4V341.25H113.45ZM154.864 345L146.564 330.75H141.064V345H136.514V310.15H147.764C150.397 310.15 152.614 310.6 154.414 311.5C156.247 312.4 157.614 313.617 158.514 315.15C159.414 316.683 159.864 318.433 159.864 320.4C159.864 322.8 159.164 324.917 157.764 326.75C156.397 328.583 154.331 329.8 151.564 330.4L160.314 345H154.864ZM141.064 327.1H147.764C150.231 327.1 152.081 326.5 153.314 325.3C154.547 324.067 155.164 322.433 155.164 320.4C155.164 318.333 154.547 316.733 153.314 315.6C152.114 314.467 150.264 313.9 147.764 313.9H141.064V327.1ZM176.484 313.85V325.5H189.184V329.25H176.484V341.25H190.684V345H171.934V310.1H190.684V313.85H176.484ZM223.169 337.25H207.969L205.169 345H200.369L212.969 310.35H218.219L230.769 345H225.969L223.169 337.25ZM221.869 333.55L215.569 315.95L209.269 333.55H221.869ZM260.16 345L245.81 329.1V345H241.26V310.15H245.81V326.3L260.21 310.15H265.96L250.16 327.6L266.11 345H260.16ZM280.742 310.15V345H276.192V310.15H280.742ZM320.896 345H316.346L298.046 317.25V345H293.496V310.1H298.046L316.346 337.8V310.1H320.896V345ZM360.053 320.25C359.086 318.217 357.686 316.65 355.853 315.55C354.019 314.417 351.886 313.85 349.453 313.85C347.019 313.85 344.819 314.417 342.853 315.55C340.919 316.65 339.386 318.25 338.253 320.35C337.153 322.417 336.603 324.817 336.603 327.55C336.603 330.283 337.153 332.683 338.253 334.75C339.386 336.817 340.919 338.417 342.853 339.55C344.819 340.65 347.019 341.2 349.453 341.2C352.853 341.2 355.653 340.183 357.853 338.15C360.053 336.117 361.336 333.367 361.703 329.9H347.803V326.2H366.553V329.7C366.286 332.567 365.386 335.2 363.853 337.6C362.319 339.967 360.303 341.85 357.803 343.25C355.303 344.617 352.519 345.3 349.453 345.3C346.219 345.3 343.269 344.55 340.603 343.05C337.936 341.517 335.819 339.4 334.253 336.7C332.719 334 331.953 330.95 331.953 327.55C331.953 324.15 332.719 321.1 334.253 318.4C335.819 315.667 337.936 313.55 340.603 312.05C343.269 310.517 346.219 309.75 349.453 309.75C353.153 309.75 356.419 310.667 359.253 312.5C362.119 314.333 364.203 316.917 365.503 320.25H360.053ZM400.449 310.15V345H395.899V310.15H400.449ZM440.604 345H436.054L417.754 317.25V345H413.204V310.1H417.754L436.054 337.8V310.1H440.604V345ZM474.81 310.15V313.85H465.31V345H460.76V313.85H451.21V310.15H474.81ZM501.211 345.35C497.977 345.35 495.027 344.6 492.361 343.1C489.694 341.567 487.577 339.45 486.011 336.75C484.477 334.017 483.711 330.95 483.711 327.55C483.711 324.15 484.477 321.1 486.011 318.4C487.577 315.667 489.694 313.55 492.361 312.05C495.027 310.517 497.977 309.75 501.211 309.75C504.477 309.75 507.444 310.517 510.111 312.05C512.777 313.55 514.877 315.65 516.411 318.35C517.944 321.05 518.711 324.117 518.711 327.55C518.711 330.983 517.944 334.05 516.411 336.75C514.877 339.45 512.777 341.567 510.111 343.1C507.444 344.6 504.477 345.35 501.211 345.35ZM501.211 341.4C503.644 341.4 505.827 340.833 507.761 339.7C509.727 338.567 511.261 336.95 512.361 334.85C513.494 332.75 514.061 330.317 514.061 327.55C514.061 324.75 513.494 322.317 512.361 320.25C511.261 318.15 509.744 316.533 507.811 315.4C505.877 314.267 503.677 313.7 501.211 313.7C498.744 313.7 496.544 314.267 494.611 315.4C492.677 316.533 491.144 318.15 490.011 320.25C488.911 322.317 488.361 324.75 488.361 327.55C488.361 330.317 488.911 332.75 490.011 334.85C491.144 336.95 492.677 338.567 494.611 339.7C496.577 340.833 498.777 341.4 501.211 341.4ZM569.497 310.15V313.85H559.997V345H555.447V313.85H545.897V310.15H569.497ZM584.648 313.85V325.5H597.348V329.25H584.648V341.25H598.848V345H580.098V310.1H598.848V313.85H584.648ZM609.033 327.55C609.033 324.15 609.799 321.1 611.333 318.4C612.866 315.667 614.949 313.533 617.583 312C620.249 310.467 623.199 309.7 626.433 309.7C630.233 309.7 633.549 310.617 636.383 312.45C639.216 314.283 641.283 316.883 642.583 320.25H637.133C636.166 318.15 634.766 316.533 632.933 315.4C631.133 314.267 628.966 313.7 626.433 313.7C623.999 313.7 621.816 314.267 619.883 315.4C617.949 316.533 616.433 318.15 615.333 320.25C614.233 322.317 613.683 324.75 613.683 327.55C613.683 330.317 614.233 332.75 615.333 334.85C616.433 336.917 617.949 338.517 619.883 339.65C621.816 340.783 623.999 341.35 626.433 341.35C628.966 341.35 631.133 340.8 632.933 339.7C634.766 338.567 636.166 336.95 637.133 334.85H642.583C641.283 338.183 639.216 340.767 636.383 342.6C633.549 344.4 630.233 345.3 626.433 345.3C623.199 345.3 620.249 344.55 617.583 343.05C614.949 341.517 612.866 339.4 611.333 336.7C609.799 334 609.033 330.95 609.033 327.55ZM681.206 310.15V345H676.656V329.2H658.906V345H654.356V310.15H658.906V325.45H676.656V310.15H681.206Z" fill="white"/>
<g filter="url(#filter0_d_0_1)">
<line x1="175.133" y1="209.164" x2="14.6693" y2="209.164" stroke="#0062A9" stroke-width="2.93509"/>
</g>
<g filter="url(#filter1_d_0_1)">
<ellipse cx="14.6754" cy="208.185" rx="14.6754" ry="14.1863" fill="#0062A9"/>
</g>
<g filter="url(#filter2_d_0_1)">
<path d="M334.787 2.39059V134H293.705V68.3812L273.443 134H238.124L217.863 68.3812V134H176.595V2.39059H227.157L256.156 81.3934L284.411 2.39059H334.787ZM394.675 2.39059V134H353.408V2.39059H394.675ZM464.805 135.301C449.066 135.301 436.054 131.645 425.768 124.334C415.606 116.898 410.091 106.055 409.224 91.8032H453.093C453.713 99.3627 457.059 103.142 463.132 103.142C465.362 103.142 467.221 102.647 468.708 101.655C470.319 100.54 471.125 98.867 471.125 96.6363C471.125 93.5382 469.452 91.0596 466.106 89.2008C462.76 87.2179 457.555 84.9873 450.491 82.5087C442.064 79.5345 435.062 76.6223 429.486 73.772C424.033 70.9217 419.324 66.7701 415.358 61.3174C411.392 55.8647 409.472 48.8628 409.595 40.3119C409.595 31.7611 411.764 24.5114 416.102 18.5629C420.563 12.4906 426.573 7.90529 434.133 4.80714C441.816 1.70899 450.429 0.15992 459.971 0.15992C476.082 0.15992 488.846 3.8777 498.265 11.3133C507.807 18.7488 512.826 29.2206 513.322 42.7285H468.894C468.77 39.0107 467.841 36.3463 466.106 34.7353C464.371 33.1242 462.264 32.3187 459.785 32.3187C458.051 32.3187 456.625 32.9383 455.51 34.1776C454.395 35.2929 453.837 36.904 453.837 39.0107C453.837 41.9849 455.448 44.4635 458.67 46.4463C462.016 48.3052 467.283 50.5978 474.471 53.3242C482.774 56.4223 489.59 59.3965 494.919 62.2468C500.371 65.0971 505.08 69.0628 509.046 74.1437C513.012 79.2247 514.995 85.6069 514.995 93.2903C514.995 101.345 513.012 108.595 509.046 115.039C505.08 121.36 499.318 126.317 491.758 129.91C484.199 133.504 475.214 135.301 464.805 135.301ZM302.814 282H261.547L217.863 215.824V282H176.595V150.391H217.863L261.547 217.682V150.391H302.814V282ZM362.725 150.391V282H321.458V150.391H362.725ZM462.039 195.376C460.428 192.773 458.136 190.79 455.162 189.427C452.187 187.94 448.593 187.197 444.38 187.197C436.449 187.197 430.314 189.799 425.977 195.004C421.64 200.085 419.471 207.087 419.471 216.009C419.471 226.295 421.887 233.979 426.72 239.06C431.554 244.141 438.989 246.681 449.027 246.681C458.569 246.681 466.253 242.839 472.077 235.156H439.175V205.971H506.281V247.239C500.58 257.029 492.711 265.456 482.673 272.52C472.635 279.46 459.933 282.929 444.566 282.929C430.934 282.929 419.037 280.141 408.875 274.564C398.837 268.864 391.092 260.933 385.639 250.771C380.31 240.609 377.646 229.022 377.646 216.009C377.646 202.997 380.31 191.41 385.639 181.248C391.092 171.086 398.837 163.217 408.875 157.64C418.913 151.94 430.686 149.089 444.194 149.089C461.42 149.089 475.423 153.241 486.205 161.544C497.11 169.847 503.555 181.124 505.537 195.376H462.039ZM642.901 150.391V282H601.633V230.695H562.411V282H521.143V150.391H562.411V197.792H601.633V150.391H642.901ZM764.822 150.391V183.107H729.875V282H688.608V183.107H654.032V150.391H764.822Z" fill="white"/>
</g>
<defs>
<filter id="filter0_d_0_1" x="14.6689" y="207.696" width="169.269" height="11.7404" filterUnits="userSpaceOnUse" color-interpolation-filters="sRGB">
<feFlood flood-opacity="0" result="BackgroundImageFix"/>
<feColorMatrix in="SourceAlpha" type="matrix" values="0 0 0 0 0 0 0 0 0 0 0 0 0 0 0 0 0 0 127 0" result="hardAlpha"/>
<feOffset dx="4.89182" dy="4.89182"/>
<feGaussianBlur stdDeviation="1.95673"/>
<feComposite in2="hardAlpha" operator="out"/>
<feColorMatrix type="matrix" values="0 0 0 0 0 0 0 0 0 0 0 0 0 0 0 0 0 0 0.25 0"/>
<feBlend mode="normal" in2="BackgroundImageFix" result="effect1_dropShadow_0_1"/>
<feBlend mode="normal" in="SourceGraphic" in2="effect1_dropShadow_0_1" result="shape"/>
</filter>
<filter id="filter1_d_0_1" x="0" y="193.999" width="38.1559" height="37.1778" filterUnits="userSpaceOnUse" color-interpolation-filters="sRGB">
<feFlood flood-opacity="0" result="BackgroundImageFix"/>
<feColorMatrix in="SourceAlpha" type="matrix" values="0 0 0 0 0 0 0 0 0 0 0 0 0 0 0 0 0 0 127 0" result="hardAlpha"/>
<feOffset dx="4.89182" dy="4.89182"/>
<feGaussianBlur stdDeviation="1.95673"/>
<feComposite in2="hardAlpha" operator="out"/>
<feColorMatrix type="matrix" values="0 0 0 0 0 0 0 0 0 0 0 0 0 0 0 0 0 0 0.25 0"/>
<feBlend mode="normal" in2="BackgroundImageFix" result="effect1_dropShadow_0_1"/>
<feBlend mode="normal" in="SourceGraphic" in2="effect1_dropShadow_0_1" result="shape"/>
</filter>
<filter id="filter2_d_0_1" x="176.596" y="0.159912" width="604.076" height="298.619" filterUnits="userSpaceOnUse" color-interpolation-filters="sRGB">
<feFlood flood-opacity="0" result="BackgroundImageFix"/>
<feColorMatrix in="SourceAlpha" type="matrix" values="0 0 0 0 0 0 0 0 0 0 0 0 0 0 0 0 0 0 127 0" result="hardAlpha"/>
<feOffset dx="8.80527" dy="8.80527"/>
<feGaussianBlur stdDeviation="3.52211"/>
<feComposite in2="hardAlpha" operator="out"/>
<feColorMatrix type="matrix" values="0 0 0 0 0 0 0 0 0 0.38503 0 0 0 0 0.663846 0 0 0 1 0"/>
<feBlend mode="normal" in2="BackgroundImageFix" result="effect1_dropShadow_0_1"/>
<feBlend mode="normal" in="SourceGraphic" in2="effect1_dropShadow_0_1" result="shape"/>
</filter>
</defs>
</svg>
