<svg width="61" height="55" viewBox="0 0 61 55" fill="none" xmlns="http://www.w3.org/2000/svg">
<path d="M30.0243 9.07712L54.7108 30.0244C54.7108 30.0244 49.3414 35.2611 43.1163 39.6251C39.1898 42.3777 33.0486 45.7031 30.8453 46.8733C30.3319 47.1459 29.7208 47.1399 29.2129 46.8573C27.0641 45.6616 21.1278 42.3063 17.2814 39.6251C10.8227 35.1229 5.33778 30.0244 5.33778 30.0244L30.0243 9.07712Z" fill="#96FF50"/>
<path d="M60.0486 17.456C60.0486 27.0967 52.2333 34.912 42.5926 34.912C32.9519 34.912 25.1366 27.0967 25.1366 17.456C29.6752 7.68064 32.9519 0 42.5926 0C52.2333 0 60.0486 7.81532 60.0486 17.456Z" fill="#96FF50"/>
<path d="M-7.62939e-06 17.456C-7.62939e-06 27.0967 7.81531 34.912 17.456 34.912C27.0967 34.912 34.912 27.0967 34.912 17.456C30.3734 7.68064 27.0967 0 17.456 0C7.81531 0 -7.62939e-06 7.81532 -7.62939e-06 17.456Z" fill="#96FF50"/>
</svg>
