<svg width="523" height="444" viewBox="0 0 523 444" fill="none" xmlns="http://www.w3.org/2000/svg">
<g filter="url(#filter0_d)">
<g opacity="0.8">
<rect x="151.315" y="136.625" width="54.2509" height="187.611" rx="0.477669" fill="#00C614"/>
<path d="M263.923 119.907L380.645 260.151H151.312L263.923 119.907Z" fill="#96FF50"/>
<rect x="151.312" y="253.65" width="230.155" height="187.611" fill="#96FF50"/>
<rect x="381.551" y="260.751" width="114.665" height="179.906" fill="#1A9313"/>
<path d="M266.892 114.455H361.787L521.923 263.718V302.066H419.12L266.892 114.455Z" fill="#1C2B4F"/>
<path d="M263.592 112.816C263.777 112.628 264.079 112.626 264.267 112.81L419.96 265.583C420.052 265.673 420.103 265.796 420.103 265.924V302.684C420.103 303.105 419.599 303.32 419.295 303.029L264.262 154.593C264.075 154.414 263.78 154.416 263.596 154.598L113.495 302.998C113.193 303.297 112.682 303.083 112.682 302.659V265.919C112.682 265.794 112.731 265.673 112.819 265.584L263.592 112.816Z" fill="#00C614"/>
<circle cx="216.475" cy="319.073" r="16.8044" fill="#172442"/>
<circle cx="307.422" cy="319.073" r="16.8044" fill="#172442"/>
<path d="M278.75 336.866C278.75 346.146 271.227 353.67 261.946 353.67C252.665 353.67 245.142 346.146 245.142 336.866C245.142 333.9 245.142 333.9 261.946 333.9C278.75 333.9 278.75 333.9 278.75 336.866Z" fill="#192631"/>
</g>
</g>
<ellipse cx="13.8389" cy="34.498" rx="13.8389" ry="10.8734" fill="#485A78"/>
<path d="M61.284 23.6207H115.651C115.651 23.6207 128.999 24.6092 130.479 34.4941C132.55 48.333 118.617 54.264 118.617 54.264H179.903C179.903 54.264 199.673 53.2755 199.673 78.9764C199.673 107.643 168.041 120.493 168.041 120.493L170.018 91.8268H68.2035C68.2035 91.8268 50.4106 91.8268 50.4106 69.0914C50.4106 52.287 77.0999 53.2755 77.0999 53.2755C77.0999 53.2755 98.8468 54.2641 98.8468 50.3102C98.8468 47.4998 91.9273 46.3561 91.9273 46.3561H61.284C61.284 46.3561 39.5371 45.3677 39.5371 34.4942C39.5371 21.6438 61.284 23.6207 61.284 23.6207Z" fill="url(#paint0_linear)"/>
<path d="M345.239 90.1727C335.394 72.9308 338.058 47.3715 356.039 26.1206C383.476 -1.44068 419.911 20.7734 424.139 26.1206C437.078 38.6941 436.003 49.7893 436.133 54.4551C446.245 53.3808 456.001 56.6418 463.411 66.0124C474.025 79.4338 476.954 99.5012 468.749 114.554C483.833 141.345 446.373 163.333 424.139 143.46C404.555 160.083 418.98 164.044 409.573 161.093C400.166 158.141 379.316 135.581 374.699 130.934C365.643 119.657 343.096 117.802 338.058 116.868C334.028 116.121 341.166 98.7598 345.239 90.1727Z" fill="white"/>
<path d="M345.239 90.1728C335.394 72.9308 338.058 47.3715 356.039 26.1206C383.476 -1.44068 419.911 20.7734 424.139 26.1206C437.078 38.6941 436.003 49.7893 436.133 54.4551C446.245 53.3808 456.001 56.6418 463.411 66.0124C474.025 79.4338 476.954 99.5012 468.749 114.554C483.833 141.345 446.373 163.333 424.139 143.46M345.239 90.1728C341.166 98.7598 334.028 116.121 338.058 116.868C343.096 117.802 365.643 119.657 374.699 130.934C379.316 135.581 400.166 158.141 409.573 161.093C418.98 164.044 404.555 160.083 424.139 143.46M345.239 90.1728C362.677 89.9519 399.863 98.8736 424.139 143.46M368.947 87.7093C369.237 74.4565 370.58 68.2493 378.036 64.1483" stroke="#172442" stroke-width="2.2369"/>
<path d="M392.529 99.8242C397.283 87.45 400.645 82.0622 409.049 80.7237" stroke="#172442" stroke-width="2.2369"/>
<path d="M410.505 117.509C419.852 108.109 425.104 104.538 433.332 106.708" stroke="#172442" stroke-width="2.2369"/>
<defs>
<filter id="filter0_d" x="111.665" y="112.674" width="411.275" height="330.621" filterUnits="userSpaceOnUse" color-interpolation-filters="sRGB">
<feFlood flood-opacity="0" result="BackgroundImageFix"/>
<feColorMatrix in="SourceAlpha" type="matrix" values="0 0 0 0 0 0 0 0 0 0 0 0 0 0 0 0 0 0 127 0"/>
<feOffset dy="1.01677"/>
<feGaussianBlur stdDeviation="0.508387"/>
<feColorMatrix type="matrix" values="0 0 0 0 0 0 0 0 0 0 0 0 0 0 0 0 0 0 0.25 0"/>
<feBlend mode="normal" in2="BackgroundImageFix" result="effect1_dropShadow"/>
<feBlend mode="normal" in="SourceGraphic" in2="effect1_dropShadow" result="shape"/>
</filter>
<linearGradient id="paint0_linear" x1="-50" y1="24" x2="200" y2="89" gradientUnits="userSpaceOnUse">
<stop stop-color="#485A78"/>
<stop offset="1" stop-color="#1C2B4F"/>
</linearGradient>
</defs>
</svg>
