<svg width="1366" height="768" viewBox="0 0 1366 768" fill="none" xmlns="http://www.w3.org/2000/svg">
<g clip-path="url(#clip0)">
<rect width="1366" height="768" rx="10" fill="#050B18"/>
<g filter="url(#filter0_d)">
<path d="M168.332 611.05C170.21 613.074 173.374 613.192 175.398 611.313L229.902 560.719C231.926 558.84 232.043 555.677 230.164 553.653L227.084 550.334C225.205 548.31 222.041 548.192 220.017 550.071L165.514 600.665C163.49 602.544 163.372 605.708 165.251 607.731L168.332 611.05Z" fill="#1E2839"/>
</g>
<g filter="url(#filter1_d)">
<path d="M219.122 99.6988C221.001 101.723 224.165 101.84 226.188 99.9617L256.251 72.0556C258.275 70.1769 258.392 67.0132 256.514 64.9894L253.433 61.6704C251.554 59.6465 248.391 59.5289 246.367 61.4075L216.304 89.3137C214.28 91.1923 214.163 94.356 216.041 96.3798L219.122 99.6988Z" fill="#1E2839"/>
</g>
<g filter="url(#filter2_d)">
<path d="M245.612 101.76C247.49 103.784 250.654 103.902 252.678 102.023L307.181 51.429C309.205 49.5503 309.323 46.3867 307.444 44.3628L304.223 40.8925C302.344 38.8687 299.181 38.751 297.157 40.6297L242.653 91.2239C240.629 93.1026 240.511 96.2662 242.39 98.29L245.612 101.76Z" fill="#1E2839"/>
</g>
<g filter="url(#filter3_d)">
<path d="M406.263 357.618C408.142 359.642 411.305 359.759 413.329 357.881L459.624 314.907C461.647 313.028 461.765 309.864 459.886 307.841L456.665 304.37C454.786 302.346 451.623 302.229 449.599 304.107L403.304 347.081C401.281 348.96 401.163 352.124 403.042 354.147L406.263 357.618Z" fill="#1E2839"/>
</g>
<g filter="url(#filter4_d)">
<path d="M444.996 351.386C446.875 353.41 450.039 353.527 452.062 351.649L513.513 294.606C515.537 292.727 515.654 289.564 513.776 287.54L510.554 284.07C508.676 282.046 505.512 281.928 503.488 283.807L442.038 340.849C440.014 342.728 439.896 345.892 441.775 347.916L444.996 351.386Z" fill="#1E2839"/>
</g>
<g filter="url(#filter5_d)">
<path d="M577.872 77.4264C579.751 79.4502 582.915 79.5679 584.938 77.6892L646.389 20.6466C648.413 18.7679 648.53 15.6043 646.652 13.5804L643.43 10.1101C641.552 8.08626 638.388 7.96858 636.364 9.84726L574.914 66.8899C572.89 68.7686 572.772 71.9322 574.651 73.9561L577.872 77.4264Z" fill="#1E2839"/>
</g>
<g filter="url(#filter6_d)">
<path d="M532.469 91.2784C534.348 93.3023 537.511 93.4199 539.535 91.5413L600.986 34.4986C603.009 32.62 603.127 29.4563 601.248 27.4325L598.027 23.9622C596.148 21.9383 592.985 21.8206 590.961 23.6993L529.51 80.7419C527.487 82.6206 527.369 85.7843 529.248 87.8081L532.469 91.2784Z" fill="#1E2839"/>
</g>
<g filter="url(#filter7_d)">
<path d="M534.008 61.7633C535.887 63.7871 539.05 63.9048 541.074 62.0261L547.516 56.0461C549.54 54.1674 549.658 51.0038 547.779 48.98L544.558 45.5097C542.679 43.4858 539.515 43.3681 537.492 45.2468L531.05 51.2268C529.026 53.1055 528.908 56.2691 530.787 58.293L534.008 61.7633Z" fill="#1E2839"/>
</g>
<g filter="url(#filter8_d)">
<path d="M464.749 305.778C466.627 307.802 469.791 307.92 471.815 306.041L475.015 303.071C477.039 301.192 477.156 298.029 475.278 296.005L472.056 292.535C470.177 290.511 467.014 290.393 464.99 292.272L461.79 295.242C459.766 297.121 459.649 300.284 461.527 302.308L464.749 305.778Z" fill="#1E2839"/>
</g>
<g filter="url(#filter9_d)">
<path d="M413.189 380.139C415.068 382.163 418.232 382.281 420.255 380.402L437.24 364.635C439.264 362.757 439.382 359.593 437.503 357.569L434.282 354.099C432.403 352.075 429.24 351.957 427.216 353.836L410.231 369.603C408.207 371.481 408.089 374.645 409.968 376.669L413.189 380.139Z" fill="#1E2839"/>
</g>
<g filter="url(#filter10_d)">
<path d="M221.154 125.642C223.032 127.666 226.196 127.784 228.22 125.905L241.999 113.114C244.023 111.235 244.141 108.072 242.262 106.048L239.642 103.226C237.764 101.202 234.6 101.084 232.576 102.963L218.797 115.754C216.773 117.633 216.655 120.796 218.534 122.82L221.154 125.642Z" fill="#1E2839"/>
</g>
<g filter="url(#filter11_d)">
<path d="M202.192 550.403C204.071 552.427 207.234 552.545 209.258 550.666L225.786 535.324C227.81 533.446 227.927 530.282 226.049 528.258L222.968 524.939C221.089 522.915 217.925 522.798 215.902 524.676L199.374 540.018C197.35 541.897 197.233 545.061 199.111 547.084L202.192 550.403Z" fill="#1E2839"/>
</g>
<g filter="url(#filter12_d)">
<path d="M105.366 643.292C107.245 645.315 110.408 645.433 112.432 643.554L198.83 563.354C200.854 561.475 200.971 558.312 199.093 556.288L193.566 550.334C191.687 548.31 188.524 548.193 186.5 550.071L100.102 630.272C98.0783 632.15 97.9606 635.314 99.8393 637.338L105.366 643.292Z" fill="#1E2839"/>
</g>
<g filter="url(#filter13_d)">
<path d="M1034.31 667.605C1036.19 669.629 1039.35 669.747 1041.37 667.868L1095.88 617.274C1097.9 615.395 1098.02 612.231 1096.14 610.208L1093.06 606.889C1091.18 604.865 1088.02 604.747 1085.99 606.626L1031.49 657.22C1029.46 659.099 1029.35 662.262 1031.23 664.286L1034.31 667.605Z" fill="#1E2839"/>
</g>
<g filter="url(#filter14_d)">
<path d="M1085.1 156.253C1086.98 158.277 1090.14 158.395 1092.16 156.516L1122.23 128.61C1124.25 126.732 1124.37 123.568 1122.49 121.544L1119.41 118.225C1117.53 116.201 1114.37 116.084 1112.34 117.962L1082.28 145.868C1080.26 147.747 1080.14 150.911 1082.02 152.935L1085.1 156.253Z" fill="#1E2839"/>
</g>
<g filter="url(#filter15_d)">
<path d="M1111.59 158.315C1113.47 160.339 1116.63 160.457 1118.65 158.578L1173.16 107.984C1175.18 106.105 1175.3 102.941 1173.42 100.918L1170.2 97.4472C1168.32 95.4234 1165.16 95.3057 1163.13 97.1844L1108.63 147.779C1106.6 149.657 1106.49 152.821 1108.37 154.845L1111.59 158.315Z" fill="#1E2839"/>
</g>
<g filter="url(#filter16_d)">
<path d="M1272.24 414.172C1274.12 416.196 1277.28 416.314 1279.3 414.435L1325.6 371.462C1327.62 369.583 1327.74 366.419 1325.86 364.395L1322.64 360.925C1320.76 358.901 1317.6 358.783 1315.57 360.662L1269.28 403.636C1267.26 405.515 1267.14 408.678 1269.02 410.702L1272.24 414.172Z" fill="#1E2839"/>
</g>
<g filter="url(#filter17_d)">
<path d="M1310.97 407.941C1312.85 409.964 1316.01 410.082 1318.04 408.203L1379.49 351.161C1381.51 349.282 1381.63 346.118 1379.75 344.095L1376.53 340.624C1374.65 338.6 1371.49 338.483 1369.46 340.361L1308.01 397.404C1305.99 399.283 1305.87 402.446 1307.75 404.47L1310.97 407.941Z" fill="#1E2839"/>
</g>
<g filter="url(#filter18_d)">
<path d="M1330.72 362.333C1332.6 364.357 1335.77 364.475 1337.79 362.596L1340.99 359.626C1343.01 357.747 1343.13 354.583 1341.25 352.56L1338.03 349.089C1336.15 347.065 1332.99 346.948 1330.97 348.826L1327.77 351.797C1325.74 353.675 1325.62 356.839 1327.5 358.863L1330.72 362.333Z" fill="#1E2839"/>
</g>
<g filter="url(#filter19_d)">
<path d="M1279.16 436.694C1281.04 438.718 1284.21 438.835 1286.23 436.957L1303.22 421.19C1305.24 419.311 1305.36 416.148 1303.48 414.124L1300.26 410.654C1298.38 408.63 1295.21 408.512 1293.19 410.391L1276.21 426.157C1274.18 428.036 1274.06 431.2 1275.94 433.224L1279.16 436.694Z" fill="#1E2839"/>
</g>
<g filter="url(#filter20_d)">
<path d="M715.355 475.511C717.233 477.535 720.397 477.653 722.421 475.774L780.208 422.132C782.232 420.254 782.349 417.09 780.471 415.066L778.518 412.962C776.639 410.938 773.476 410.821 771.452 412.7L713.665 466.341C711.641 468.22 711.523 471.384 713.402 473.408L715.355 475.511Z" fill="#1E2839"/>
</g>
<g filter="url(#filter21_d)">
<path d="M716.483 503.252C718.362 505.275 721.525 505.393 723.549 503.514L759.341 470.29C761.365 468.411 761.483 465.247 759.604 463.224L756.523 459.905C754.645 457.881 751.481 457.763 749.457 459.642L713.665 492.866C711.641 494.745 711.524 497.909 713.402 499.933L716.483 503.252Z" fill="#1E2839"/>
</g>
<g filter="url(#filter22_d)">
<path d="M764.195 457.848C766.074 459.872 769.237 459.99 771.261 458.111L775.752 453.943C777.776 452.064 777.893 448.9 776.015 446.877L772.934 443.558C771.055 441.534 767.891 441.416 765.867 443.295L761.377 447.463C759.353 449.342 759.235 452.505 761.114 454.529L764.195 457.848Z" fill="#1E2839"/>
</g>
<g filter="url(#filter23_d)">
<path d="M1087.13 182.197C1089.01 184.221 1092.17 184.338 1094.19 182.46L1107.97 169.669C1110 167.79 1110.12 164.626 1108.24 162.603L1105.62 159.781C1103.74 157.757 1100.58 157.639 1098.55 159.518L1084.77 172.309C1082.75 174.187 1082.63 177.351 1084.51 179.375L1087.13 182.197Z" fill="#1E2839"/>
</g>
<g filter="url(#filter24_d)">
<path d="M1068.17 606.958C1070.05 608.982 1073.21 609.1 1075.23 607.221L1091.76 591.879C1093.78 590 1093.9 586.837 1092.02 584.813L1088.94 581.494C1087.06 579.47 1083.9 579.352 1081.88 581.231L1065.35 596.573C1063.33 598.452 1063.21 601.615 1065.09 603.639L1068.17 606.958Z" fill="#1E2839"/>
</g>
<g filter="url(#filter25_d)">
<path d="M971.341 699.846C973.22 701.87 976.383 701.988 978.407 700.109L1064.8 619.909C1066.83 618.03 1066.95 614.866 1065.07 612.843L1059.54 606.889C1057.66 604.865 1054.5 604.747 1052.47 606.626L966.077 686.826C964.053 688.705 963.936 691.869 965.814 693.893L971.341 699.846Z" fill="#1E2839"/>
</g>
<path d="M1102 800.657L1366 554V914H1102V800.657Z" fill="#101928"/>
<g filter="url(#filter26_d)">
<path d="M935.625 18.9801C937.504 21.0039 940.667 21.1216 942.691 19.2429L953.257 9.43484C955.281 7.55615 955.399 4.39251 953.52 2.36865L947.297 -4.33563C945.418 -6.35949 942.254 -6.47717 940.23 -4.59848L929.664 5.2096C927.641 7.08828 927.523 10.2519 929.402 12.2758L935.625 18.9801Z" fill="#1E2839"/>
</g>
</g>
<defs>
<filter id="filter0_d" x="157.849" y="542.669" width="79.717" height="76.0455" filterUnits="userSpaceOnUse" color-interpolation-filters="sRGB">
<feFlood flood-opacity="0" result="BackgroundImageFix"/>
<feColorMatrix in="SourceAlpha" type="matrix" values="0 0 0 0 0 0 0 0 0 0 0 0 0 0 0 0 0 0 127 0"/>
<feOffset/>
<feGaussianBlur stdDeviation="2"/>
<feColorMatrix type="matrix" values="0 0 0 0 1 0 0 0 0 1 0 0 0 0 1 0 0 0 0.1 0"/>
<feBlend mode="normal" in2="BackgroundImageFix" result="effect1_dropShadow"/>
<feBlend mode="normal" in="SourceGraphic" in2="effect1_dropShadow" result="shape"/>
</filter>
<filter id="filter1_d" x="208.64" y="54.0059" width="55.2757" height="53.3574" filterUnits="userSpaceOnUse" color-interpolation-filters="sRGB">
<feFlood flood-opacity="0" result="BackgroundImageFix"/>
<feColorMatrix in="SourceAlpha" type="matrix" values="0 0 0 0 0 0 0 0 0 0 0 0 0 0 0 0 0 0 127 0"/>
<feOffset/>
<feGaussianBlur stdDeviation="2"/>
<feColorMatrix type="matrix" values="0 0 0 0 1 0 0 0 0 1 0 0 0 0 1 0 0 0 0.1 0"/>
<feBlend mode="normal" in2="BackgroundImageFix" result="effect1_dropShadow"/>
<feBlend mode="normal" in="SourceGraphic" in2="effect1_dropShadow" result="shape"/>
</filter>
<filter id="filter2_d" x="234.989" y="33.228" width="79.8574" height="76.1968" filterUnits="userSpaceOnUse" color-interpolation-filters="sRGB">
<feFlood flood-opacity="0" result="BackgroundImageFix"/>
<feColorMatrix in="SourceAlpha" type="matrix" values="0 0 0 0 0 0 0 0 0 0 0 0 0 0 0 0 0 0 127 0"/>
<feOffset/>
<feGaussianBlur stdDeviation="2"/>
<feColorMatrix type="matrix" values="0 0 0 0 1 0 0 0 0 1 0 0 0 0 1 0 0 0 0.1 0"/>
<feBlend mode="normal" in2="BackgroundImageFix" result="effect1_dropShadow"/>
<feBlend mode="normal" in="SourceGraphic" in2="effect1_dropShadow" result="shape"/>
</filter>
<filter id="filter3_d" x="395.64" y="296.706" width="71.6482" height="68.5765" filterUnits="userSpaceOnUse" color-interpolation-filters="sRGB">
<feFlood flood-opacity="0" result="BackgroundImageFix"/>
<feColorMatrix in="SourceAlpha" type="matrix" values="0 0 0 0 0 0 0 0 0 0 0 0 0 0 0 0 0 0 127 0"/>
<feOffset/>
<feGaussianBlur stdDeviation="2"/>
<feColorMatrix type="matrix" values="0 0 0 0 1 0 0 0 0 1 0 0 0 0 1 0 0 0 0.1 0"/>
<feBlend mode="normal" in2="BackgroundImageFix" result="effect1_dropShadow"/>
<feBlend mode="normal" in="SourceGraphic" in2="effect1_dropShadow" result="shape"/>
</filter>
<filter id="filter4_d" x="434.373" y="276.405" width="86.8042" height="82.6453" filterUnits="userSpaceOnUse" color-interpolation-filters="sRGB">
<feFlood flood-opacity="0" result="BackgroundImageFix"/>
<feColorMatrix in="SourceAlpha" type="matrix" values="0 0 0 0 0 0 0 0 0 0 0 0 0 0 0 0 0 0 127 0"/>
<feOffset/>
<feGaussianBlur stdDeviation="2"/>
<feColorMatrix type="matrix" values="0 0 0 0 1 0 0 0 0 1 0 0 0 0 1 0 0 0 0.1 0"/>
<feBlend mode="normal" in2="BackgroundImageFix" result="effect1_dropShadow"/>
<feBlend mode="normal" in="SourceGraphic" in2="effect1_dropShadow" result="shape"/>
</filter>
<filter id="filter5_d" x="567.249" y="2.4458" width="86.8042" height="82.6453" filterUnits="userSpaceOnUse" color-interpolation-filters="sRGB">
<feFlood flood-opacity="0" result="BackgroundImageFix"/>
<feColorMatrix in="SourceAlpha" type="matrix" values="0 0 0 0 0 0 0 0 0 0 0 0 0 0 0 0 0 0 127 0"/>
<feOffset/>
<feGaussianBlur stdDeviation="2"/>
<feColorMatrix type="matrix" values="0 0 0 0 1 0 0 0 0 1 0 0 0 0 1 0 0 0 0.1 0"/>
<feBlend mode="normal" in2="BackgroundImageFix" result="effect1_dropShadow"/>
<feBlend mode="normal" in="SourceGraphic" in2="effect1_dropShadow" result="shape"/>
</filter>
<filter id="filter6_d" x="521.846" y="16.2979" width="86.8042" height="82.6453" filterUnits="userSpaceOnUse" color-interpolation-filters="sRGB">
<feFlood flood-opacity="0" result="BackgroundImageFix"/>
<feColorMatrix in="SourceAlpha" type="matrix" values="0 0 0 0 0 0 0 0 0 0 0 0 0 0 0 0 0 0 127 0"/>
<feOffset/>
<feGaussianBlur stdDeviation="2"/>
<feColorMatrix type="matrix" values="0 0 0 0 1 0 0 0 0 1 0 0 0 0 1 0 0 0 0.1 0"/>
<feBlend mode="normal" in2="BackgroundImageFix" result="effect1_dropShadow"/>
<feBlend mode="normal" in="SourceGraphic" in2="effect1_dropShadow" result="shape"/>
</filter>
<filter id="filter7_d" x="523.385" y="37.8452" width="31.7958" height="31.5826" filterUnits="userSpaceOnUse" color-interpolation-filters="sRGB">
<feFlood flood-opacity="0" result="BackgroundImageFix"/>
<feColorMatrix in="SourceAlpha" type="matrix" values="0 0 0 0 0 0 0 0 0 0 0 0 0 0 0 0 0 0 127 0"/>
<feOffset/>
<feGaussianBlur stdDeviation="2"/>
<feColorMatrix type="matrix" values="0 0 0 0 1 0 0 0 0 1 0 0 0 0 1 0 0 0 0.1 0"/>
<feBlend mode="normal" in2="BackgroundImageFix" result="effect1_dropShadow"/>
<feBlend mode="normal" in="SourceGraphic" in2="effect1_dropShadow" result="shape"/>
</filter>
<filter id="filter8_d" x="456.192" y="286.936" width="24.4212" height="24.4406" filterUnits="userSpaceOnUse" color-interpolation-filters="sRGB">
<feFlood flood-opacity="0" result="BackgroundImageFix"/>
<feColorMatrix in="SourceAlpha" type="matrix" values="0 0 0 0 0 0 0 0 0 0 0 0 0 0 0 0 0 0 127 0"/>
<feOffset/>
<feGaussianBlur stdDeviation="2"/>
<feColorMatrix type="matrix" values="0 0 0 0 1 0 0 0 0 1 0 0 0 0 1 0 0 0 0.1 0"/>
<feBlend mode="normal" in2="BackgroundImageFix" result="effect1_dropShadow"/>
<feBlend mode="normal" in="SourceGraphic" in2="effect1_dropShadow" result="shape"/>
</filter>
<filter id="filter9_d" x="402.566" y="346.434" width="42.3389" height="41.3694" filterUnits="userSpaceOnUse" color-interpolation-filters="sRGB">
<feFlood flood-opacity="0" result="BackgroundImageFix"/>
<feColorMatrix in="SourceAlpha" type="matrix" values="0 0 0 0 0 0 0 0 0 0 0 0 0 0 0 0 0 0 127 0"/>
<feOffset/>
<feGaussianBlur stdDeviation="2"/>
<feColorMatrix type="matrix" values="0 0 0 0 1 0 0 0 0 1 0 0 0 0 1 0 0 0 0.1 0"/>
<feBlend mode="normal" in2="BackgroundImageFix" result="effect1_dropShadow"/>
<feBlend mode="normal" in="SourceGraphic" in2="effect1_dropShadow" result="shape"/>
</filter>
<filter id="filter10_d" x="211.132" y="95.5615" width="38.5312" height="37.7453" filterUnits="userSpaceOnUse" color-interpolation-filters="sRGB">
<feFlood flood-opacity="0" result="BackgroundImageFix"/>
<feColorMatrix in="SourceAlpha" type="matrix" values="0 0 0 0 0 0 0 0 0 0 0 0 0 0 0 0 0 0 127 0"/>
<feOffset/>
<feGaussianBlur stdDeviation="2"/>
<feColorMatrix type="matrix" values="0 0 0 0 1 0 0 0 0 1 0 0 0 0 1 0 0 0 0.1 0"/>
<feBlend mode="normal" in2="BackgroundImageFix" result="effect1_dropShadow"/>
<feBlend mode="normal" in="SourceGraphic" in2="effect1_dropShadow" result="shape"/>
</filter>
<filter id="filter11_d" x="191.709" y="517.274" width="41.7407" height="40.7933" filterUnits="userSpaceOnUse" color-interpolation-filters="sRGB">
<feFlood flood-opacity="0" result="BackgroundImageFix"/>
<feColorMatrix in="SourceAlpha" type="matrix" values="0 0 0 0 0 0 0 0 0 0 0 0 0 0 0 0 0 0 127 0"/>
<feOffset/>
<feGaussianBlur stdDeviation="2"/>
<feColorMatrix type="matrix" values="0 0 0 0 1 0 0 0 0 1 0 0 0 0 1 0 0 0 0.1 0"/>
<feBlend mode="normal" in2="BackgroundImageFix" result="effect1_dropShadow"/>
<feBlend mode="normal" in="SourceGraphic" in2="effect1_dropShadow" result="shape"/>
</filter>
<filter id="filter12_d" x="92.4377" y="542.669" width="114.057" height="108.286" filterUnits="userSpaceOnUse" color-interpolation-filters="sRGB">
<feFlood flood-opacity="0" result="BackgroundImageFix"/>
<feColorMatrix in="SourceAlpha" type="matrix" values="0 0 0 0 0 0 0 0 0 0 0 0 0 0 0 0 0 0 127 0"/>
<feOffset/>
<feGaussianBlur stdDeviation="2"/>
<feColorMatrix type="matrix" values="0 0 0 0 1 0 0 0 0 1 0 0 0 0 1 0 0 0 0.1 0"/>
<feBlend mode="normal" in2="BackgroundImageFix" result="effect1_dropShadow"/>
<feBlend mode="normal" in="SourceGraphic" in2="effect1_dropShadow" result="shape"/>
</filter>
<filter id="filter13_d" x="1023.82" y="599.224" width="79.717" height="76.0455" filterUnits="userSpaceOnUse" color-interpolation-filters="sRGB">
<feFlood flood-opacity="0" result="BackgroundImageFix"/>
<feColorMatrix in="SourceAlpha" type="matrix" values="0 0 0 0 0 0 0 0 0 0 0 0 0 0 0 0 0 0 127 0"/>
<feOffset/>
<feGaussianBlur stdDeviation="2"/>
<feColorMatrix type="matrix" values="0 0 0 0 1 0 0 0 0 1 0 0 0 0 1 0 0 0 0.1 0"/>
<feBlend mode="normal" in2="BackgroundImageFix" result="effect1_dropShadow"/>
<feBlend mode="normal" in="SourceGraphic" in2="effect1_dropShadow" result="shape"/>
</filter>
<filter id="filter14_d" x="1074.61" y="110.561" width="55.2757" height="53.3574" filterUnits="userSpaceOnUse" color-interpolation-filters="sRGB">
<feFlood flood-opacity="0" result="BackgroundImageFix"/>
<feColorMatrix in="SourceAlpha" type="matrix" values="0 0 0 0 0 0 0 0 0 0 0 0 0 0 0 0 0 0 127 0"/>
<feOffset/>
<feGaussianBlur stdDeviation="2"/>
<feColorMatrix type="matrix" values="0 0 0 0 1 0 0 0 0 1 0 0 0 0 1 0 0 0 0.1 0"/>
<feBlend mode="normal" in2="BackgroundImageFix" result="effect1_dropShadow"/>
<feBlend mode="normal" in="SourceGraphic" in2="effect1_dropShadow" result="shape"/>
</filter>
<filter id="filter15_d" x="1100.96" y="89.7827" width="79.8574" height="76.1968" filterUnits="userSpaceOnUse" color-interpolation-filters="sRGB">
<feFlood flood-opacity="0" result="BackgroundImageFix"/>
<feColorMatrix in="SourceAlpha" type="matrix" values="0 0 0 0 0 0 0 0 0 0 0 0 0 0 0 0 0 0 127 0"/>
<feOffset/>
<feGaussianBlur stdDeviation="2"/>
<feColorMatrix type="matrix" values="0 0 0 0 1 0 0 0 0 1 0 0 0 0 1 0 0 0 0.1 0"/>
<feBlend mode="normal" in2="BackgroundImageFix" result="effect1_dropShadow"/>
<feBlend mode="normal" in="SourceGraphic" in2="effect1_dropShadow" result="shape"/>
</filter>
<filter id="filter16_d" x="1261.61" y="353.261" width="71.6482" height="68.5765" filterUnits="userSpaceOnUse" color-interpolation-filters="sRGB">
<feFlood flood-opacity="0" result="BackgroundImageFix"/>
<feColorMatrix in="SourceAlpha" type="matrix" values="0 0 0 0 0 0 0 0 0 0 0 0 0 0 0 0 0 0 127 0"/>
<feOffset/>
<feGaussianBlur stdDeviation="2"/>
<feColorMatrix type="matrix" values="0 0 0 0 1 0 0 0 0 1 0 0 0 0 1 0 0 0 0.1 0"/>
<feBlend mode="normal" in2="BackgroundImageFix" result="effect1_dropShadow"/>
<feBlend mode="normal" in="SourceGraphic" in2="effect1_dropShadow" result="shape"/>
</filter>
<filter id="filter17_d" x="1300.35" y="332.96" width="86.8042" height="82.6453" filterUnits="userSpaceOnUse" color-interpolation-filters="sRGB">
<feFlood flood-opacity="0" result="BackgroundImageFix"/>
<feColorMatrix in="SourceAlpha" type="matrix" values="0 0 0 0 0 0 0 0 0 0 0 0 0 0 0 0 0 0 127 0"/>
<feOffset/>
<feGaussianBlur stdDeviation="2"/>
<feColorMatrix type="matrix" values="0 0 0 0 1 0 0 0 0 1 0 0 0 0 1 0 0 0 0.1 0"/>
<feBlend mode="normal" in2="BackgroundImageFix" result="effect1_dropShadow"/>
<feBlend mode="normal" in="SourceGraphic" in2="effect1_dropShadow" result="shape"/>
</filter>
<filter id="filter18_d" x="1322.17" y="343.491" width="24.4212" height="24.4406" filterUnits="userSpaceOnUse" color-interpolation-filters="sRGB">
<feFlood flood-opacity="0" result="BackgroundImageFix"/>
<feColorMatrix in="SourceAlpha" type="matrix" values="0 0 0 0 0 0 0 0 0 0 0 0 0 0 0 0 0 0 127 0"/>
<feOffset/>
<feGaussianBlur stdDeviation="2"/>
<feColorMatrix type="matrix" values="0 0 0 0 1 0 0 0 0 1 0 0 0 0 1 0 0 0 0.1 0"/>
<feBlend mode="normal" in2="BackgroundImageFix" result="effect1_dropShadow"/>
<feBlend mode="normal" in="SourceGraphic" in2="effect1_dropShadow" result="shape"/>
</filter>
<filter id="filter19_d" x="1268.54" y="402.989" width="42.3389" height="41.3694" filterUnits="userSpaceOnUse" color-interpolation-filters="sRGB">
<feFlood flood-opacity="0" result="BackgroundImageFix"/>
<feColorMatrix in="SourceAlpha" type="matrix" values="0 0 0 0 0 0 0 0 0 0 0 0 0 0 0 0 0 0 127 0"/>
<feOffset/>
<feGaussianBlur stdDeviation="2"/>
<feColorMatrix type="matrix" values="0 0 0 0 1 0 0 0 0 1 0 0 0 0 1 0 0 0 0.1 0"/>
<feBlend mode="normal" in2="BackgroundImageFix" result="effect1_dropShadow"/>
<feBlend mode="normal" in="SourceGraphic" in2="effect1_dropShadow" result="shape"/>
</filter>
<filter id="filter20_d" x="706" y="405.298" width="81.8721" height="77.878" filterUnits="userSpaceOnUse" color-interpolation-filters="sRGB">
<feFlood flood-opacity="0" result="BackgroundImageFix"/>
<feColorMatrix in="SourceAlpha" type="matrix" values="0 0 0 0 0 0 0 0 0 0 0 0 0 0 0 0 0 0 127 0"/>
<feOffset/>
<feGaussianBlur stdDeviation="2"/>
<feColorMatrix type="matrix" values="0 0 0 0 1 0 0 0 0 1 0 0 0 0 1 0 0 0 0.1 0"/>
<feBlend mode="normal" in2="BackgroundImageFix" result="effect1_dropShadow"/>
<feBlend mode="normal" in="SourceGraphic" in2="effect1_dropShadow" result="shape"/>
</filter>
<filter id="filter21_d" x="706" y="452.24" width="61.0052" height="58.6759" filterUnits="userSpaceOnUse" color-interpolation-filters="sRGB">
<feFlood flood-opacity="0" result="BackgroundImageFix"/>
<feColorMatrix in="SourceAlpha" type="matrix" values="0 0 0 0 0 0 0 0 0 0 0 0 0 0 0 0 0 0 127 0"/>
<feOffset/>
<feGaussianBlur stdDeviation="2"/>
<feColorMatrix type="matrix" values="0 0 0 0 1 0 0 0 0 1 0 0 0 0 1 0 0 0 0.1 0"/>
<feBlend mode="normal" in2="BackgroundImageFix" result="effect1_dropShadow"/>
<feBlend mode="normal" in="SourceGraphic" in2="effect1_dropShadow" result="shape"/>
</filter>
<filter id="filter22_d" x="753.712" y="435.893" width="29.7037" height="29.6197" filterUnits="userSpaceOnUse" color-interpolation-filters="sRGB">
<feFlood flood-opacity="0" result="BackgroundImageFix"/>
<feColorMatrix in="SourceAlpha" type="matrix" values="0 0 0 0 0 0 0 0 0 0 0 0 0 0 0 0 0 0 127 0"/>
<feOffset/>
<feGaussianBlur stdDeviation="2"/>
<feColorMatrix type="matrix" values="0 0 0 0 1 0 0 0 0 1 0 0 0 0 1 0 0 0 0.1 0"/>
<feBlend mode="normal" in2="BackgroundImageFix" result="effect1_dropShadow"/>
<feBlend mode="normal" in="SourceGraphic" in2="effect1_dropShadow" result="shape"/>
</filter>
<filter id="filter23_d" x="1077.11" y="152.116" width="38.5312" height="37.7453" filterUnits="userSpaceOnUse" color-interpolation-filters="sRGB">
<feFlood flood-opacity="0" result="BackgroundImageFix"/>
<feColorMatrix in="SourceAlpha" type="matrix" values="0 0 0 0 0 0 0 0 0 0 0 0 0 0 0 0 0 0 127 0"/>
<feOffset/>
<feGaussianBlur stdDeviation="2"/>
<feColorMatrix type="matrix" values="0 0 0 0 1 0 0 0 0 1 0 0 0 0 1 0 0 0 0.1 0"/>
<feBlend mode="normal" in2="BackgroundImageFix" result="effect1_dropShadow"/>
<feBlend mode="normal" in="SourceGraphic" in2="effect1_dropShadow" result="shape"/>
</filter>
<filter id="filter24_d" x="1057.68" y="573.829" width="41.7407" height="40.7933" filterUnits="userSpaceOnUse" color-interpolation-filters="sRGB">
<feFlood flood-opacity="0" result="BackgroundImageFix"/>
<feColorMatrix in="SourceAlpha" type="matrix" values="0 0 0 0 0 0 0 0 0 0 0 0 0 0 0 0 0 0 127 0"/>
<feOffset/>
<feGaussianBlur stdDeviation="2"/>
<feColorMatrix type="matrix" values="0 0 0 0 1 0 0 0 0 1 0 0 0 0 1 0 0 0 0.1 0"/>
<feBlend mode="normal" in2="BackgroundImageFix" result="effect1_dropShadow"/>
<feBlend mode="normal" in="SourceGraphic" in2="effect1_dropShadow" result="shape"/>
</filter>
<filter id="filter25_d" x="958.413" y="599.224" width="114.057" height="108.286" filterUnits="userSpaceOnUse" color-interpolation-filters="sRGB">
<feFlood flood-opacity="0" result="BackgroundImageFix"/>
<feColorMatrix in="SourceAlpha" type="matrix" values="0 0 0 0 0 0 0 0 0 0 0 0 0 0 0 0 0 0 127 0"/>
<feOffset/>
<feGaussianBlur stdDeviation="2"/>
<feColorMatrix type="matrix" values="0 0 0 0 1 0 0 0 0 1 0 0 0 0 1 0 0 0 0.1 0"/>
<feBlend mode="normal" in2="BackgroundImageFix" result="effect1_dropShadow"/>
<feBlend mode="normal" in="SourceGraphic" in2="effect1_dropShadow" result="shape"/>
</filter>
<filter id="filter26_d" x="922" y="-12" width="38.9217" height="38.6447" filterUnits="userSpaceOnUse" color-interpolation-filters="sRGB">
<feFlood flood-opacity="0" result="BackgroundImageFix"/>
<feColorMatrix in="SourceAlpha" type="matrix" values="0 0 0 0 0 0 0 0 0 0 0 0 0 0 0 0 0 0 127 0"/>
<feOffset/>
<feGaussianBlur stdDeviation="2"/>
<feColorMatrix type="matrix" values="0 0 0 0 1 0 0 0 0 1 0 0 0 0 1 0 0 0 0.1 0"/>
<feBlend mode="normal" in2="BackgroundImageFix" result="effect1_dropShadow"/>
<feBlend mode="normal" in="SourceGraphic" in2="effect1_dropShadow" result="shape"/>
</filter>
<clipPath id="clip0">
<rect width="1366" height="768" rx="10" fill="white"/>
</clipPath>
</defs>
</svg>
