<svg width="203" height="95" viewBox="0 0 203 95" fill="none" xmlns="http://www.w3.org/2000/svg">
<rect y="0.432129" width="202.762" height="77.9301" rx="27" fill="#96FF50"/>
<path d="M30.04 36V22.66H27.7V28.1H20.76V22.66H18.42V36H20.76V30.16H27.7V36H30.04ZM37.1931 36.24C40.2731 36.24 42.1531 33.92 42.1531 31.16C42.1531 28.38 40.2731 26.1 37.1931 26.1C34.1131 26.1 32.2331 28.38 32.2331 31.16C32.2331 33.92 34.1131 36.24 37.1931 36.24ZM37.1931 34.38C35.4131 34.38 34.4131 32.88 34.4131 31.16C34.4131 29.46 35.4131 27.96 37.1931 27.96C38.9931 27.96 39.9731 29.46 39.9731 31.16C39.9731 32.88 38.9931 34.38 37.1931 34.38ZM58.2575 36V29.02C58.2575 27.06 57.2375 26.1 55.4775 26.1C54.0175 26.1 52.7375 27 52.1975 27.86C51.8775 26.82 50.9975 26.1 49.5575 26.1C48.0775 26.1 46.8175 27.06 46.3975 27.64V26.34H44.2975V36H46.3975V29.24C46.8375 28.62 47.6975 27.96 48.6375 27.96C49.7775 27.96 50.2175 28.66 50.2175 29.7V36H52.3175V29.24C52.7375 28.6 53.6175 27.96 54.5575 27.96C55.6975 27.96 56.1575 28.66 56.1575 29.7V36H58.2575ZM65.4572 36.24C66.9772 36.24 68.3972 35.74 69.3772 34.82L68.4172 33.44C67.7172 34.14 66.6172 34.52 65.6572 34.52C63.8372 34.52 62.7572 33.3 62.5972 31.86H70.0372V31.34C70.0372 28.3 68.1972 26.1 65.2972 26.1C62.4372 26.1 60.3972 28.36 60.3972 31.16C60.3972 34.22 62.5372 36.24 65.4572 36.24ZM68.0172 30.36H62.5772C62.6572 29.2 63.4972 27.82 65.2772 27.82C67.1772 27.82 67.9572 29.22 68.0172 30.36ZM79.3663 36V29.42C79.7863 28.72 80.9663 28.12 81.8663 28.12C82.1263 28.12 82.3263 28.14 82.5063 28.18V26.1C81.2663 26.1 80.1063 26.82 79.3663 27.74V26.34H77.2663V36H79.3663ZM88.6798 36.24C90.1998 36.24 91.6198 35.74 92.5998 34.82L91.6398 33.44C90.9398 34.14 89.8398 34.52 88.8798 34.52C87.0598 34.52 85.9798 33.3 85.8198 31.86H93.2598V31.34C93.2598 28.3 91.4198 26.1 88.5198 26.1C85.6598 26.1 83.6198 28.36 83.6198 31.16C83.6198 34.22 85.7598 36.24 88.6798 36.24ZM91.2398 30.36H85.7998C85.8798 29.2 86.7198 27.82 88.4998 27.82C90.3998 27.82 91.1798 29.22 91.2398 30.36ZM103.973 36V29.2C103.973 27.22 102.933 26.1 100.853 26.1C99.3327 26.1 98.0727 26.88 97.4327 27.64V26.34H95.3327V36H97.4327V29.24C97.9327 28.6 98.8527 27.96 99.9127 27.96C101.093 27.96 101.873 28.44 101.873 29.96V36H103.973ZM111.08 36.24C114.16 36.24 116.04 33.92 116.04 31.16C116.04 28.38 114.16 26.1 111.08 26.1C108 26.1 106.12 28.38 106.12 31.16C106.12 33.92 108 36.24 111.08 36.24ZM111.08 34.38C109.3 34.38 108.3 32.88 108.3 31.16C108.3 29.46 109.3 27.96 111.08 27.96C112.88 27.96 113.86 29.46 113.86 31.16C113.86 32.88 112.88 34.38 111.08 34.38ZM122.984 36L126.924 26.34H124.684L121.864 33.58L119.044 26.34H116.784L120.724 36H122.984ZM136.263 36V29.58C136.263 27 134.383 26.1 132.223 26.1C130.683 26.1 129.283 26.58 128.163 27.66L129.043 29.12C129.863 28.28 130.823 27.88 131.903 27.88C133.223 27.88 134.163 28.56 134.163 29.68V31.12C133.443 30.3 132.343 29.88 131.023 29.88C129.443 29.88 127.683 30.8 127.683 33.04C127.683 35.16 129.463 36.24 131.023 36.24C132.303 36.24 133.443 35.78 134.163 34.94V36H136.263ZM131.863 34.8C130.683 34.8 129.783 34.12 129.783 33.06C129.783 32.02 130.683 31.32 131.863 31.32C132.763 31.32 133.663 31.66 134.163 32.32V33.8C133.663 34.46 132.763 34.8 131.863 34.8ZM141.905 36.24C142.865 36.24 143.485 35.96 143.865 35.62L143.365 34.02C143.205 34.2 142.845 34.38 142.445 34.38C141.845 34.38 141.525 33.88 141.525 33.22V28.16H143.485V26.34H141.525V23.7H139.425V26.34H137.825V28.16H139.425V33.74C139.425 35.36 140.265 36.24 141.905 36.24ZM146.432 25.16C147.152 25.16 147.732 24.58 147.732 23.86C147.732 23.14 147.152 22.56 146.432 22.56C145.712 22.56 145.132 23.14 145.132 23.86C145.132 24.58 145.712 25.16 146.432 25.16ZM147.472 36V26.34H145.372V36H147.472ZM154.576 36.24C157.656 36.24 159.536 33.92 159.536 31.16C159.536 28.38 157.656 26.1 154.576 26.1C151.496 26.1 149.616 28.38 149.616 31.16C149.616 33.92 151.496 36.24 154.576 36.24ZM154.576 34.38C152.796 34.38 151.796 32.88 151.796 31.16C151.796 29.46 152.796 27.96 154.576 27.96C156.376 27.96 157.356 29.46 157.356 31.16C157.356 32.88 156.376 34.38 154.576 34.38ZM170.32 36V29.2C170.32 27.22 169.28 26.1 167.2 26.1C165.68 26.1 164.42 26.88 163.78 27.64V26.34H161.68V36H163.78V29.24C164.28 28.6 165.2 27.96 166.26 27.96C167.44 27.96 168.22 28.44 168.22 29.96V36H170.32ZM176.368 36.24C178.968 36.24 180.388 34.94 180.388 33.22C180.388 29.38 174.548 30.66 174.548 28.96C174.548 28.28 175.228 27.76 176.328 27.76C177.548 27.76 178.608 28.28 179.188 28.92L180.068 27.44C179.208 26.68 177.968 26.1 176.328 26.1C173.888 26.1 172.528 27.44 172.528 29.02C172.528 32.74 178.368 31.38 178.368 33.28C178.368 34.04 177.708 34.56 176.448 34.56C175.208 34.56 173.868 33.92 173.188 33.22L172.228 34.72C173.228 35.7 174.708 36.24 176.368 36.24ZM185.081 35.24C185.081 34.08 184.361 33.42 183.541 33.42C182.781 33.42 182.181 34.04 182.181 34.78C182.181 35.52 182.701 36.06 183.361 36.06C183.501 36.06 183.661 36.02 183.701 36C183.581 36.68 182.901 37.5 182.261 37.88L183.221 38.66C184.321 37.88 185.081 36.62 185.081 35.24ZM22.76 56.24C24.66 56.24 25.78 55.42 26.46 54.52L25.08 53.22C24.54 53.98 23.8 54.38 22.86 54.38C21.12 54.38 19.94 53.04 19.94 51.16C19.94 49.28 21.12 47.96 22.86 47.96C23.8 47.96 24.54 48.32 25.08 49.08L26.46 47.82C25.78 46.9 24.66 46.1 22.76 46.1C19.84 46.1 17.78 48.24 17.78 51.16C17.78 54.08 19.84 56.24 22.76 56.24ZM36.9609 56V49.16C36.9609 47.18 35.9209 46.1 33.8409 46.1C32.3209 46.1 31.0809 46.88 30.4409 47.64V42.66H28.3409V56H30.4409V49.24C30.9209 48.6 31.8409 47.96 32.9209 47.96C34.1009 47.96 34.8609 48.4 34.8609 49.92V56H36.9609ZM44.1681 56.24C45.6881 56.24 47.1081 55.74 48.0881 54.82L47.1281 53.44C46.4281 54.14 45.3281 54.52 44.3681 54.52C42.5481 54.52 41.4681 53.3 41.3081 51.86H48.7481V51.34C48.7481 48.3 46.9081 46.1 44.0081 46.1C41.1481 46.1 39.1081 48.36 39.1081 51.16C39.1081 54.22 41.2481 56.24 44.1681 56.24ZM46.7281 50.36H41.2881C41.3681 49.2 42.2081 47.82 43.9881 47.82C45.8881 47.82 46.6681 49.22 46.7281 50.36ZM55.2209 56.24C57.1209 56.24 58.2409 55.42 58.9209 54.52L57.5409 53.22C57.0009 53.98 56.2609 54.38 55.3209 54.38C53.5809 54.38 52.4009 53.04 52.4009 51.16C52.4009 49.28 53.5809 47.96 55.3209 47.96C56.2609 47.96 57.0009 48.32 57.5409 49.08L58.9209 47.82C58.2409 46.9 57.1209 46.1 55.2209 46.1C52.3009 46.1 50.2409 48.24 50.2409 51.16C50.2409 54.08 52.3009 56.24 55.2209 56.24ZM69.8219 56L65.7419 50.72L69.7419 46.34H67.1419L62.8819 51V42.66H60.7819V56H62.8819V53.4L64.2419 52L67.1819 56H69.8219ZM78.585 53.1V49.26C79.065 48.54 80.085 47.96 81.085 47.96C82.745 47.96 83.805 49.3 83.805 51.16C83.805 53.04 82.745 54.38 81.085 54.38C80.085 54.38 79.065 53.82 78.585 53.1ZM78.585 56V54.68C79.325 55.64 80.445 56.24 81.685 56.24C84.165 56.24 85.985 54.36 85.985 51.16C85.985 48.04 84.185 46.1 81.685 46.1C80.485 46.1 79.365 46.64 78.585 47.68V42.66H76.485V56H78.585ZM96.1261 56V49.58C96.1261 47 94.2461 46.1 92.0861 46.1C90.5461 46.1 89.1461 46.58 88.0261 47.66L88.9061 49.12C89.7261 48.28 90.6861 47.88 91.7661 47.88C93.0861 47.88 94.0261 48.56 94.0261 49.68V51.12C93.3061 50.3 92.2061 49.88 90.8861 49.88C89.3061 49.88 87.5461 50.8 87.5461 53.04C87.5461 55.16 89.3261 56.24 90.8861 56.24C92.1661 56.24 93.3061 55.78 94.0261 54.94V56H96.1261ZM91.7261 54.8C90.5461 54.8 89.6461 54.12 89.6461 53.06C89.6461 52.02 90.5461 51.32 91.7261 51.32C92.6261 51.32 93.5261 51.66 94.0261 52.32V53.8C93.5261 54.46 92.6261 54.8 91.7261 54.8ZM103.248 56.24C105.148 56.24 106.268 55.42 106.948 54.52L105.568 53.22C105.028 53.98 104.288 54.38 103.348 54.38C101.608 54.38 100.428 53.04 100.428 51.16C100.428 49.28 101.608 47.96 103.348 47.96C104.288 47.96 105.028 48.32 105.568 49.08L106.948 47.82C106.268 46.9 105.148 46.1 103.248 46.1C100.328 46.1 98.2683 48.24 98.2683 51.16C98.2683 54.08 100.328 56.24 103.248 56.24ZM117.849 56L113.769 50.72L117.769 46.34H115.169L110.909 51V42.66H108.809V56H110.909V53.4L112.269 52L115.209 56H117.849ZM127.832 56.24C130.432 56.24 131.852 54.94 131.852 53.22C131.852 49.38 126.012 50.66 126.012 48.96C126.012 48.28 126.692 47.76 127.792 47.76C129.012 47.76 130.072 48.28 130.652 48.92L131.532 47.44C130.672 46.68 129.432 46.1 127.792 46.1C125.352 46.1 123.992 47.44 123.992 49.02C123.992 52.74 129.832 51.38 129.832 53.28C129.832 54.04 129.172 54.56 127.912 54.56C126.672 54.56 125.332 53.92 124.652 53.22L123.692 54.72C124.692 55.7 126.172 56.24 127.832 56.24ZM138.326 56.24C141.406 56.24 143.286 53.92 143.286 51.16C143.286 48.38 141.406 46.1 138.326 46.1C135.246 46.1 133.366 48.38 133.366 51.16C133.366 53.92 135.246 56.24 138.326 56.24ZM138.326 54.38C136.546 54.38 135.546 52.88 135.546 51.16C135.546 49.46 136.546 47.96 138.326 47.96C140.126 47.96 141.106 49.46 141.106 51.16C141.106 52.88 140.126 54.38 138.326 54.38ZM149.81 56.24C152.89 56.24 154.77 53.92 154.77 51.16C154.77 48.38 152.89 46.1 149.81 46.1C146.73 46.1 144.85 48.38 144.85 51.16C144.85 53.92 146.73 56.24 149.81 56.24ZM149.81 54.38C148.03 54.38 147.03 52.88 147.03 51.16C147.03 49.46 148.03 47.96 149.81 47.96C151.61 47.96 152.59 49.46 152.59 51.16C152.59 52.88 151.61 54.38 149.81 54.38ZM165.555 56V49.2C165.555 47.22 164.515 46.1 162.435 46.1C160.915 46.1 159.655 46.88 159.015 47.64V46.34H156.915V56H159.015V49.24C159.515 48.6 160.435 47.96 161.495 47.96C162.675 47.96 163.455 48.44 163.455 49.96V56H165.555ZM170.282 51.9L170.642 42.66H168.082L168.462 51.9H170.282ZM169.382 56.2C170.142 56.2 170.762 55.56 170.762 54.8C170.762 54.06 170.142 53.42 169.382 53.42C168.622 53.42 167.982 54.06 167.982 54.8C167.982 55.56 168.622 56.2 169.382 56.2Z" fill="#040811"/>
<path d="M163.175 68.3817C163.175 67.366 163.936 66.5116 164.945 66.395L188.357 63.6887C189.393 63.5689 190.348 64.266 190.549 65.2897L195.533 90.6376C195.856 92.2808 194.137 93.5696 192.651 92.7994L164.255 78.0897C163.591 77.746 163.175 77.0611 163.175 76.3139V68.3817Z" fill="#96FF50"/>
</svg>
