<svg width="701" height="505" viewBox="0 0 701 505" fill="none" xmlns="http://www.w3.org/2000/svg">
<path d="M513.917 459.999C630.21 459.999 668.752 415.517 692.691 355.999C727.486 269.481 644.962 195.087 593.697 207.499C540.603 220.355 541.41 209.049 513.917 148.386C483.568 81.4109 446.265 14.4366 352.197 46.3941C336.58 51.6991 312.733 45.5989 286.126 39.4994C226.83 25.9071 153.818 12.3149 127.598 124.906C118.565 163.696 86.5615 167.967 40.103 192.579C-34.8616 232.294 10.3098 389.5 54.0405 435C103.537 470.078 194.361 504.5 295.758 504.5C386.582 500.961 397.623 459.999 513.917 459.999Z" fill="#0B2238"/>
<mask id="mask0" mask-type="alpha" maskUnits="userSpaceOnUse" x="0" y="30" width="701" height="475">
<path d="M513.917 459.999C630.21 459.999 668.752 415.517 692.691 355.999C727.486 269.481 644.962 195.087 593.697 207.499C540.603 220.355 541.41 209.049 513.917 148.386C483.568 81.4109 446.265 14.4366 352.197 46.3941C336.58 51.6991 312.733 45.5989 286.126 39.4994C226.83 25.9071 153.818 12.3149 127.598 124.906C118.565 163.696 86.5615 167.967 40.103 192.579C-34.8616 232.294 10.3098 389.5 54.0405 435C103.537 470.078 194.361 504.5 295.758 504.5C386.582 500.961 397.623 459.999 513.917 459.999Z" fill="#0B2238"/>
</mask>
<g mask="url(#mask0)">
<path d="M726.913 447.98C722.918 430.138 695.949 443.956 673.741 458.934C672.699 457.044 671.627 455.174 670.525 453.326C686.43 441.95 708.759 423.033 700.259 411.516C691.864 400.146 675.457 425.899 665.188 444.889C637.695 403.738 596.92 374.446 596.92 374.446C596.92 374.446 767.073 211.399 639.929 125.388C512.784 39.3714 416.191 342.026 416.191 342.026C416.191 342.026 329.304 249.243 246.347 283.511C161.154 318.701 214.396 383.92 140.409 401.558C131.7 363.092 115.599 308.848 93.5793 305.666C64.5046 301.47 76.7378 343.437 120.924 404.748C112.357 405.638 102.603 406.091 91.4513 406.054C-27.2093 405.644 3.24086 504.178 3.24086 504.178L689.309 506C688.379 496.305 685.928 486.772 682.413 477.541C705.911 473.285 730.668 464.791 726.913 447.98Z" fill="#0A162E"/>
</g>
<path d="M300.777 191.91C295.481 197.44 289.646 202.241 283.345 206.289C268.087 194.676 251.783 184.733 234.797 176.687C237.131 172.232 239.434 167.524 241.68 162.612C257.235 164.756 272.183 166.045 285.831 166.376C289.393 166.483 292.852 166.483 296.209 166.458C304.91 166.351 312.653 165.812 319.286 164.843C314.643 174.871 308.42 183.954 300.777 191.91ZM270.344 213.278C258.521 218.492 245.999 221.127 233.066 221.127C223.103 221.127 213.369 219.56 204.019 216.458C211.105 212.594 218.225 203.711 223.707 195.528C226.535 191.308 229.361 186.637 232.152 181.596C248.235 189.179 263.7 198.499 278.228 209.352C275.666 210.779 273.04 212.089 270.344 213.278ZM144.778 160.195C144.562 159.661 144.352 159.128 144.146 158.592C151.517 158.901 165.182 160.06 182.638 164.198C183.889 164.495 185.134 164.804 186.383 165.121C185.485 170.576 184.822 175.789 184.412 180.69C183.638 189.971 183.581 200.672 186.067 208.315C178.499 203.879 171.555 198.395 165.326 191.91C156.524 182.745 149.605 172.075 144.778 160.195ZM141.396 137.645C143.874 138.613 146.404 139.579 149.012 140.519C160.996 144.845 174.433 148.865 188.804 152.43C188.284 154.853 187.801 157.244 187.359 159.594C186.183 159.299 185.01 159.007 183.832 158.729C163.965 154.022 149.055 153.062 142.143 152.902C140.432 147.532 139.173 142.041 138.376 136.435C139.382 136.839 140.389 137.24 141.396 137.645ZM127.508 126.222C109.204 116.922 100.841 107.945 104.584 101.575C107.604 96.4156 118.601 92.9206 135.433 91.6321C133.368 98.8887 132.103 106.387 131.612 113.994C131.457 116.251 131.38 118.508 131.354 120.793V121.385C131.354 123.668 131.431 125.953 131.561 128.21C130.166 127.567 128.824 126.893 127.508 126.222ZM144.778 82.5734C145.63 80.5297 146.508 78.5142 147.463 76.552L147.465 76.5492C159.298 91.9437 176.735 107.684 197.111 121.335C194.221 130.492 191.759 139.489 189.766 148.11C174.945 144.376 161.207 140.151 149.166 135.629C146.637 134.689 144.184 133.72 141.835 132.755C140.441 132.187 139.073 131.598 137.73 131.006C137.524 128.855 137.369 126.68 137.317 124.501C137.291 123.454 137.266 122.433 137.266 121.385C137.266 120.176 137.291 118.938 137.317 117.728C137.653 108.672 139.124 99.8291 141.706 91.2812C142.145 89.8299 142.61 88.4067 143.126 86.9806C143.642 85.5041 144.184 84.0247 144.778 82.5734ZM139.488 34.1242C142.602 28.9759 149.56 26.3203 159.333 26.3203C164.005 26.3203 169.326 26.9266 175.173 28.1646C177.393 28.6306 179.658 29.1836 181.966 29.8152L181.972 29.818C174.384 34.3853 167.417 39.9744 161.145 46.532C159.829 47.8738 158.563 49.2718 157.324 50.7231C155.775 52.4972 154.304 54.3528 152.884 56.2336C150.612 59.2429 148.521 62.3897 146.585 65.6152L146.58 65.6208C137.946 52.2755 135.35 40.9569 139.488 34.1242ZM233.066 21.6435C239.701 21.6435 246.226 22.3369 252.605 23.718C245.083 27.1288 237.401 36.6198 231.569 45.3221C225.6 54.2293 219.641 65.1296 214.011 77.3352C210.212 75.1849 206.621 72.8661 203.248 70.3734C187.24 58.5467 180.184 45.7965 177.618 40.039C181.546 37.1307 185.676 34.5341 189.99 32.2659L189.996 32.2687C191.754 31.3451 193.547 30.4805 195.367 29.6693C195.499 29.6103 195.628 29.5485 195.763 29.4924C195.793 29.4755 195.825 29.4643 195.855 29.4503C196.243 29.279 196.631 29.1134 197.022 28.9506C197.13 28.9057 197.235 28.8608 197.338 28.8186C208.67 24.0605 220.701 21.6435 233.066 21.6435ZM300.777 50.8578C309.582 60.0233 316.498 70.6934 321.327 82.5734C323.05 86.8178 324.477 91.1549 325.612 95.5706C303.532 97.2521 283.299 96.7216 265.213 93.9986C268.084 81.7902 270.015 70.3032 270.864 60.1608C271.8 48.9574 271.687 35.6907 267.324 28.2236C268.335 28.6278 269.344 29.0488 270.344 29.4924C281.752 34.5172 292 41.6924 300.777 50.8578ZM248.183 96.3875C251.548 97.2016 255.005 97.923 258.54 98.563C256.054 108.293 252.996 118.424 249.432 128.656C248.059 132.597 246.636 136.48 245.174 140.286C231.788 135.169 217.578 127.848 203.606 118.806C204.329 116.61 205.073 114.404 205.844 112.195C209.152 102.69 212.749 93.541 216.519 84.9763C226.012 89.7654 236.6 93.5859 248.183 96.3875ZM259.729 28.3049C262.665 29.4138 264.156 33.8042 264.889 37.2907C266.051 42.8012 266.259 50.5406 265.496 59.6752C264.663 69.6716 262.738 81.0266 259.877 93.1171C256.42 92.4967 253.045 91.7978 249.761 91.0089C238.401 88.2916 228.048 84.5721 218.802 79.8981C224.319 67.9199 230.154 57.2357 235.986 48.5307C241.022 41.013 245.951 35.2106 250.235 31.755C252.468 29.9528 255.477 28.0214 258.111 28.0214C258.669 28.0214 259.211 28.1113 259.729 28.3049ZM173.221 43.4974C174.103 45.381 175.322 47.7138 176.963 50.3553C183.964 61.6206 193.21 69.7867 199.734 74.6543C203.482 77.4475 207.481 80.0385 211.719 82.4218C207.85 91.1942 204.164 100.559 200.778 110.283C200.147 112.096 199.532 113.907 198.934 115.712C178.701 102.002 161.572 86.2676 150.337 71.0415L150.332 71.0359C153.145 66.0391 156.371 61.3118 159.983 56.8792C161.48 55.0518 163.029 53.2776 164.656 51.5568C164.887 51.3154 165.095 51.0993 165.326 50.8578C167.839 48.2415 170.475 45.7909 173.221 43.4974ZM207.044 152.132C202.97 151.259 198.953 150.347 195.008 149.401C196.866 141.353 199.147 132.962 201.811 124.414C215.661 133.277 229.744 140.485 243.079 145.603C241.408 149.76 239.688 153.817 237.935 157.741C227.805 156.228 217.441 154.35 207.044 152.132ZM229.852 174.41C217.702 168.959 205.205 164.453 192.587 160.975C193.032 158.589 193.52 156.164 194.051 153.702C197.559 154.533 201.115 155.335 204.723 156.11C215.265 158.356 225.783 160.262 236.083 161.803C234.042 166.196 231.96 170.407 229.852 174.41ZM195.547 212.547C192.611 211.435 191.117 207.046 190.387 203.559C189.227 198.049 189.017 190.309 189.78 181.176C190.165 176.558 190.786 171.645 191.619 166.511C203.658 169.851 215.583 174.146 227.193 179.326C224.58 184.02 221.935 188.373 219.29 192.319C214.254 199.838 209.325 205.64 205.041 209.093C202.334 211.28 198.483 213.653 195.547 212.547ZM321.379 160.06C314.484 161.351 305.891 162.104 295.848 162.21C280.263 162.41 262.371 161.127 243.511 158.538C245.096 154.942 246.652 151.245 248.17 147.467C254.023 149.505 259.702 151.119 265.119 152.264C271.323 153.575 276.987 154.224 282.043 154.224C293.89 154.224 302.378 150.662 306.571 143.733C307.261 142.591 307.824 141.381 308.256 140.104H302.219C302.117 140.295 302.011 140.485 301.901 140.668C298.784 145.816 291.828 148.475 282.054 148.472C277.381 148.472 272.061 147.863 266.213 146.628C261.12 145.552 255.773 144.039 250.265 142.136C251.716 138.346 253.131 134.487 254.498 130.568C258.178 119.999 261.33 109.522 263.881 99.4613C275.499 101.244 287.972 102.139 301.221 102.139C309.472 102.139 318.03 101.794 326.865 101.101C328.176 107.723 328.839 114.499 328.839 121.385C328.839 134.795 326.337 147.804 321.379 160.06ZM345.669 142.726L337.796 142.538C340.328 145.951 340.897 149.095 339.322 151.756C337.745 154.471 333.975 156.7 328.351 158.395C332.608 146.594 334.752 134.15 334.752 121.385C334.752 107.086 332.066 93.2154 326.749 80.1816C321.637 67.5746 314.306 56.2336 304.961 46.532C295.616 36.8023 284.747 29.1696 272.638 23.8191C260.093 18.3086 246.773 15.5154 233.066 15.5154C219.334 15.5154 206.011 18.3086 193.463 23.8191C191.967 24.4928 190.47 25.1918 189.025 25.916L189.011 25.9245C184.638 24.5349 180.381 23.3952 176.268 22.5278C155.521 18.143 140.797 21.1747 134.817 31.0588C129.125 40.4601 132.224 54.6111 143.517 71.1173L143.513 71.1229C141.99 74.0536 140.622 77.0629 139.357 80.1816C138.402 82.52 137.55 84.8584 136.775 87.2501C115.555 88.5667 104.196 92.4547 100.066 99.4979C95.2642 107.695 101.821 118.696 122.809 129.394C125.701 130.871 128.799 132.322 132.051 133.774C133.135 143.691 135.588 153.342 139.357 162.586C144.468 175.193 151.799 186.534 161.145 196.264C170.49 205.966 181.357 213.599 193.463 218.947C206.011 224.459 219.334 227.253 233.066 227.253C246.773 227.253 260.093 224.459 272.638 218.947C284.747 213.599 295.616 205.966 304.961 196.264C314.047 186.803 321.249 175.783 326.337 163.58C336.688 161.351 343.504 157.856 346.214 153.233C348.098 150.036 347.864 146.487 345.669 142.726Z" fill="#193868"/>
<path d="M358.053 194.845L341.785 396.221C341.785 396.221 340.082 408.43 348.803 408.451C363.143 408.487 420.175 408.451 420.175 408.451C420.175 408.451 409.384 405.91 409.515 400.192C409.668 393.453 428.525 192.939 428.525 192.939L358.053 194.845Z" fill="#309C47"/>
<path d="M424.803 404.798C421.984 404.806 367.509 404.984 353.543 404.798C347.459 404.718 346.394 399.163 346.343 395.57C346.317 393.846 346.526 392.571 346.526 392.571L346.951 387.337L348.026 373.996L348.982 362.21L350.205 347.065L351.235 334.282L362.794 191.188L433.269 189.284C433.269 189.284 425.325 273.198 419.708 334.282C419.08 341.089 418.482 347.613 417.928 353.706C417.751 355.65 417.58 357.552 417.413 359.403C416.891 365.183 416.415 370.49 416 375.174C415.781 377.645 415.581 379.938 415.398 382.042C414.683 390.278 414.262 395.539 414.255 396.539C414.252 397.124 414.304 397.666 414.394 398.17C415.552 404.589 423.744 404.798 424.803 404.798Z" fill="#29BF4A"/>
<path d="M186.904 85.2629L226.528 250.97L231.952 273.667L250.408 350.85H593.268L525.248 85.2629H186.904Z" fill="#39D55B"/>
<path d="M186.905 85.2612L181.413 87.1663L243.109 356.614L250.409 350.849L186.905 85.2612Z" fill="#29BF4A"/>
<path d="M243.108 356.614H583.86L593.268 350.85H250.408L243.108 356.614Z" fill="#309C47"/>
<path d="M362.768 404.878V408.529H436.546V404.878H362.768Z" fill="#39D55B"/>
<path d="M417.793 356.611L417.412 359.403L348.028 373.996L348.981 362.21L349.434 356.611H417.793Z" fill="#309C47"/>
<path d="M386.99 404.879H370.782C363.4 404.871 357.133 404.845 353.542 404.799C347.456 404.718 346.391 399.163 346.341 395.57L415.396 382.043C414.681 390.279 414.26 395.539 414.253 396.54C414.253 396.557 414.253 396.576 414.253 396.594C414.253 397.157 414.301 397.682 414.393 398.171C415.549 404.589 423.741 404.799 424.802 404.799C423.203 404.804 405 404.863 386.99 404.879Z" fill="#44DC65"/>
<path d="M378.339 404.883C375.736 404.883 373.203 404.881 370.785 404.878H386.994C384.083 404.881 381.172 404.883 378.339 404.883Z" fill="#29BF4A"/>
<path d="M250.407 350.85L231.952 273.667L401.022 297.085L250.407 350.85Z" fill="#29BF4A"/>
<path d="M186.905 85.2606H525.25L580.148 298.709H237.943L186.905 85.2606Z" fill="#182E52"/>
<path d="M430.929 325.692C429.953 320.457 425.086 316.213 420.059 316.213C415.031 316.213 411.744 320.457 412.723 325.692C413.699 330.927 418.569 335.171 423.597 335.171C428.624 335.171 431.908 330.927 430.929 325.692Z" fill="#309C47"/>
<path d="M564.19 289.46H247.395L211.52 140.66L208.769 129.249L206.423 119.516L200.921 96.6941H513.147L519.192 119.516L521.766 129.249L524.791 140.66L564.19 289.46Z" fill="#141F2D"/>
<path d="M519.191 119.516H206.423L200.921 96.6938H513.149L519.191 119.516Z" fill="#5978A9"/>
<path d="M215.892 104.155C214.38 104.155 213.459 105.435 213.836 107.009C214.213 108.586 215.745 109.863 217.26 109.863C218.772 109.863 219.693 108.586 219.316 107.009C218.938 105.435 217.406 104.155 215.892 104.155Z" fill="#141F2D"/>
<path d="M224.997 104.155C223.485 104.155 222.563 105.435 222.941 107.009C223.318 108.586 224.85 109.863 226.365 109.863C227.877 109.863 228.798 108.586 228.42 107.009C228.043 105.435 226.511 104.155 224.997 104.155Z" fill="#141F2D"/>
<path d="M238.225 107.009C237.848 105.435 236.316 104.155 234.802 104.155C233.289 104.155 232.368 105.435 232.746 107.009C233.123 108.586 234.655 109.863 236.167 109.863C237.682 109.863 238.603 108.586 238.225 107.009Z" fill="#141F2D"/>
<path d="M65.6079 173.987C65.6079 173.987 66.5777 170.813 65.056 167.954C63.5345 165.095 65.9925 163.112 65.3723 162.249C64.7521 161.385 60.7055 161.473 59.3246 165.625C57.9434 169.774 60.2767 174.455 60.2767 174.455L65.6079 173.987Z" fill="#2B354E"/>
<path d="M48.6281 196.823C51.4987 197.715 54.4563 195.729 54.8578 192.705L58.8872 174.455C58.8872 174.455 59.7276 173.041 62.6323 173.165C65.795 173.299 66.6503 174.931 66.6503 174.931C66.6503 174.931 68.6063 207.057 59.4711 211.591C50.336 216.125 39.9925 194.142 48.6281 196.823Z" fill="#1EA83C"/>
<path d="M67.5665 440.813H41.8368C40.0069 439.089 39.4036 428.946 39.4036 428.946C39.4036 428.946 47.381 421.462 49.988 427.384C52.4658 433.012 59.3135 436.005 63.4028 436.747C66.9259 437.386 67.4821 440.077 67.5665 440.813Z" fill="#163560"/>
<path d="M36.3993 440.813H10.6696C8.8397 439.089 8.23389 428.946 8.23389 428.946C8.23389 428.946 16.2113 421.462 18.8183 427.384C21.2962 433.012 28.1439 436.005 32.2331 436.747C35.7563 437.386 36.3149 440.077 36.3993 440.813Z" fill="#163560"/>
<path d="M54.901 300.575C54.901 300.575 51.2408 324.946 37.5876 368.209C23.9344 411.471 22.0738 430.205 22.0738 430.205L7.42718 429.778C7.42718 429.778 7.3023 382.496 13.5943 360.743C19.8866 338.988 14.9525 282.312 14.9525 282.312L54.901 300.575Z" fill="#163560"/>
<path d="M62.0284 283.648C62.0284 283.648 62.5468 320.373 56.4437 365.466C50.3403 410.559 52.4093 429.698 52.4093 429.698L37.792 430.205C37.792 430.205 29.0566 385.096 31.561 362.527C34.0657 339.957 19.5991 285.08 19.5991 285.08L62.0284 283.648Z" fill="#1C468A"/>
<path d="M33.7316 197.704L40.6259 203.022L50.5896 200.837C50.4518 199.891 49.7939 195.97 49.195 192.418C49.1587 192.209 49.1225 191.999 49.0887 191.795C48.5755 188.773 48.1326 186.178 48.1326 186.178L38.8264 181.349L35.3568 179.547C35.3658 179.612 35.6257 182.903 35.662 183.381C36.313 191.911 33.7316 197.704 33.7316 197.704Z" fill="#FFB27D"/>
<path d="M49.8923 195.024C49.6738 194.926 36.3382 190.829 34.8894 191.327C33.4409 191.826 32.5831 194.745 32.5831 194.745L54.3957 199.879C54.3957 199.879 52.6788 196.244 49.8923 195.024Z" fill="#29BF4A"/>
<path d="M13.9825 288.182C16.2429 298.917 53.8626 300.192 63.5598 290.446C64.663 289.335 64.7171 284.167 64.3012 277.198C63.4876 263.583 60.8746 243.105 60.7728 232.641C60.7229 227.587 60.0563 222.42 59.1679 217.728C57.2782 207.726 54.3962 199.876 54.3962 199.876C54.3962 199.876 36.0213 193.692 32.5833 194.745C16.0192 199.811 11.7219 277.444 13.9825 288.182Z" fill="#29BF4A"/>
<path d="M64.3011 277.198C63.4875 263.583 60.8745 243.105 60.7727 232.641C60.7228 227.587 60.0562 222.42 59.1678 217.728L48.1144 215.696C48.1144 215.696 37.3073 261.655 64.3011 277.198Z" fill="#1EA83C"/>
<path d="M36.3604 183.534C38.4038 187.605 46.0192 191.126 49.1951 192.418C49.1588 192.209 49.1226 191.999 49.0888 191.795C48.5756 188.773 48.1327 186.178 48.1327 186.178L38.8264 181.349C36.7696 181.316 35.5173 181.856 36.3604 183.534Z" fill="#2B354E"/>
<path d="M52.6547 185.612C52.6547 185.612 35.8657 191.064 32.7648 180.127C29.6645 169.187 25.4091 162.525 35.9975 158.581C46.5859 154.636 49.8613 158.167 51.7492 161.556C53.6369 164.945 56.9421 183.911 52.6547 185.612Z" fill="#FFB27D"/>
<path d="M50.252 161.633C50.252 161.633 49.1814 174.362 46.6531 173.809C44.1249 173.258 41.832 172.847 42.2021 176.683C42.5723 180.522 46.0781 184.95 38.2867 185.63C30.495 186.31 19.2939 165.387 21.4344 161.426C27.6105 149.998 59.1783 147.692 50.252 161.633Z" fill="#163560"/>
<path d="M73.865 158.901L57.5979 163.425L58.1017 170.407L74.6866 170.288C75.9995 170.185 76.8802 167.553 76.6533 164.407C76.4263 161.264 75.1779 158.798 73.865 158.901Z" fill="#193868"/>
<path d="M59.3076 166.803C59.1686 164.875 58.4031 163.363 57.5979 163.425C56.7927 163.489 56.2527 165.103 56.392 167.031C56.531 168.959 57.2965 170.472 58.1017 170.407C58.9069 170.345 59.4469 168.732 59.3076 166.803Z" fill="#182E52"/>
<path d="M65.3382 166.573L60.3075 166.671C60.1493 167.773 60.4212 168.246 60.4212 168.246L65.4366 168.595L65.3382 166.573Z" fill="#182E52"/>
<path d="M83.3384 158.656L64.6626 163.849L65.2411 171.865L84.2818 171.728C85.7889 171.609 86.8002 168.587 86.5395 164.979C86.279 161.367 84.8457 158.537 83.3384 158.656Z" fill="#193868"/>
<path d="M66.6254 167.726C66.4657 165.514 65.5868 163.776 64.6624 163.849C63.7381 163.921 63.1183 165.775 63.278 167.99C63.4376 170.203 64.3166 171.937 65.2409 171.865C66.1653 171.793 66.7853 169.942 66.6254 167.726Z" fill="#182E52"/>
<path d="M69.5257 173.959C69.5257 173.959 67.7631 171.178 68.4811 167.995C69.1994 164.813 66.3163 163.603 66.688 162.595C67.0597 161.59 70.9769 160.53 73.3892 164.133C75.8013 167.734 74.7779 172.902 74.7779 172.902L69.5257 173.959Z" fill="#FFB27D"/>
<path d="M46.5571 200.639C46.5571 200.639 56.3098 198.788 65.3203 198.925C68.3158 198.971 70.6435 196.223 70.2403 193.199L68.6667 174.846C68.6667 174.846 69.7941 172.896 72.6216 172.193C75.7006 171.428 76.6892 173.158 76.6892 173.158C76.6892 173.158 87.218 203.12 79.6103 210.069C72.0024 217.017 43.1936 221.375 43.1936 221.375L46.5571 200.639Z" fill="#29BF4A"/>
<path d="M681.561 43.573C680.559 67.7031 675.169 97.2412 658.028 121.005C657.397 121.877 656.766 122.742 656.13 123.597C654.208 126.184 652.249 128.698 650.265 131.138C648.049 133.856 644.177 134.292 641.439 132.151L565.352 72.6595C564.484 71.9792 563.839 71.0963 563.445 70.1166C563.179 69.457 563.022 68.754 562.989 68.0416C562.923 66.7728 563.236 65.476 563.957 64.3406C565.741 61.5196 567.611 58.7093 569.566 55.9159C570.178 55.0405 570.8 54.166 571.426 53.294C588.566 29.5305 614.315 15.9049 636.29 8.17243C647.897 4.08955 658.451 1.64841 666.133 0.22702C667.41 -0.00765991 668.653 -0.0565491 669.84 0.0654755C671.638 0.247787 673.304 0.820862 674.765 1.72153C677.926 3.66515 680.123 7.13441 680.574 11.5162C681.404 19.5945 682.097 30.8288 681.561 43.573Z" fill="#29BF4A"/>
<path d="M569.511 55.9889C567.291 59.1619 565.182 62.3579 563.183 65.5634C561.876 67.6512 562.357 70.4342 564.269 71.9295L642.281 132.926C644.514 134.672 647.664 134.308 649.48 132.1C651.718 129.383 653.919 126.572 656.075 123.671L569.511 55.9889Z" fill="#1B3357"/>
<path d="M637.214 37.5793C636.374 37.5793 635.53 37.6413 634.685 37.7662C630.001 38.4601 625.856 41.0111 623.013 44.9503C620.17 48.8895 618.975 53.7446 619.639 58.6213C620.304 63.498 622.755 67.8135 626.539 70.7715C630.324 73.7295 634.985 74.9764 639.674 74.283C644.354 73.5897 648.503 71.0382 651.341 67.0994C654.18 63.1602 655.38 58.3051 654.715 53.4279C654.046 48.5512 651.595 44.2363 647.815 41.2778C644.714 38.8546 641.022 37.5793 637.214 37.5793ZM637.131 80.0544C632.165 80.0544 627.361 78.3933 623.318 75.2354C618.393 71.3822 615.2 65.7607 614.332 59.4074C613.464 53.0541 615.024 46.7291 618.726 41.5973C622.427 36.4659 627.827 33.1427 633.928 32.2389C640.034 31.3355 646.103 32.9601 651.032 36.8138C655.961 40.6675 659.155 46.2885 660.023 52.6423C660.89 58.9956 659.33 65.3206 655.629 70.4519C651.928 75.5833 646.528 78.907 640.426 79.8103C639.323 79.9737 638.22 80.0544 637.131 80.0544Z" fill="#2C8A41"/>
<path d="M676.509 7.28763C676.296 5.20531 675.687 3.32744 674.767 1.72184C673.304 0.821487 671.637 0.248421 669.839 0.0660858C669.853 0.171265 669.867 0.276428 669.877 0.381599C670.708 8.45875 671.401 19.6945 670.868 32.4366C669.863 56.5673 664.472 86.105 647.332 109.869C646.705 110.743 646.067 111.606 645.43 112.463C645.005 113.033 644.58 113.598 644.151 114.162L651.595 119.993C651.751 119.785 651.911 119.579 652.067 119.371C652.704 118.513 653.337 117.648 653.964 116.777C671.109 93.0125 676.495 63.4748 677.5 39.3441C678.033 26.6005 677.34 15.3662 676.509 7.28763Z" fill="#36934B"/>
<path d="M680.574 11.5165C679.777 3.76424 673.508 -1.1363 666.134 0.227299C658.451 1.6487 647.898 4.08886 636.291 8.17223L681.566 43.5728C682.097 30.8296 681.404 19.5943 680.574 11.5165Z" fill="#1B3357"/>
<path d="M575.847 88.5223C568.431 83.3924 556.752 88.1109 549.766 99.0618C542.776 110.013 550.549 128.18 550.549 128.18C550.549 128.18 569.644 128.591 576.63 117.64C583.616 106.689 583.264 93.6526 575.847 88.5223Z" fill="#2C8A41"/>
<path d="M617.547 120.418C610.13 115.288 598.451 120.007 591.465 130.957C584.478 141.908 592.252 160.075 592.252 160.075C592.252 160.075 611.348 160.486 618.33 149.535C625.317 138.584 624.965 125.548 617.547 120.418Z" fill="#2C8A41"/>
<path d="M567.962 100.801C562.84 97.2601 554.782 100.517 549.961 108.075C545.137 115.634 550.5 128.173 550.5 128.173C550.5 128.173 563.68 128.456 568.504 120.898C573.324 113.34 573.08 104.342 567.962 100.801Z" fill="#29BF4A"/>
<path d="M609.752 132.659C604.634 129.118 596.572 132.375 591.752 139.934C586.928 147.492 592.289 160.031 592.289 160.031C592.289 160.031 605.47 160.315 610.294 152.756C615.114 145.198 614.871 136.2 609.752 132.659Z" fill="#29BF4A"/>
<path d="M626.826 67.9785L650.752 63.5762C648.098 68.5872 642.971 71.9817 637.084 71.9817C633.155 71.9817 629.567 70.4705 626.826 67.9785Z" fill="#E0F5F8"/>
<path d="M652.679 55.1937L622.377 61.1692C621.798 59.4701 621.483 57.6408 621.483 55.735C621.483 46.7639 628.467 39.4914 637.085 39.4914C645.53 39.4914 652.405 46.4725 652.679 55.1937Z" fill="#E0F5F8"/>
<path d="M173.778 298.286C173.778 298.286 178.851 299.643 182.076 298.632C185.301 297.619 190.853 299.281 191.747 300.506C192.641 301.729 192.313 302.218 190.716 302.639C189.122 303.06 183.471 305.57 179.757 304.118C176.043 302.667 171.199 302.613 171.199 302.613L173.778 298.286Z" fill="#FFB27D"/>
<path d="M129.931 252.402C129.931 252.402 135.631 294.576 145.068 298.353C149.724 300.217 170.305 304.441 176.393 304.867C176.393 304.867 177.883 303.606 177.52 298.48C177.52 298.48 155.958 290.239 152.895 285.756C148.337 279.087 155.726 258.505 150.005 252.242C144.285 245.976 134.65 243.285 129.931 252.402Z" fill="#4A75CB"/>
<path d="M138.541 414.722V405.527H152.445C152.82 405.527 153.128 405.207 153.128 404.816V403.343C153.128 402.953 152.82 402.632 152.445 402.632H138.541V350.288C138.541 348.82 137.387 347.618 135.976 347.618H133.224C131.813 347.618 130.659 348.82 130.659 350.288V402.632H116.755C116.379 402.632 116.073 402.953 116.073 403.343V404.816C116.073 405.207 116.379 405.527 116.755 405.527H130.659V414.722C120.599 415.513 112.539 419.285 110.278 424.157H158.922C156.661 419.285 148.601 415.513 138.541 414.722Z" fill="#2B478B"/>
<path d="M131.852 341.254C133.515 344.191 135.438 346.941 137.42 349.547C143.545 357.599 150.213 364.237 151.375 370.511C151.605 371.762 151.972 373.109 152.451 374.528C152.937 375.965 153.536 377.475 154.228 379.039C156.828 384.917 160.714 391.504 164.597 397.491C171.306 407.844 177.615 416.48 177.615 416.48L189.185 415.966C188.72 414.758 183.675 400.466 176.924 383.002C174.183 375.911 171.269 368.371 168.455 361.096C168.081 360.124 167.706 359.158 167.336 358.199C166.477 355.973 165.63 353.783 164.803 351.651C158.464 335.249 153.416 322.19 153.416 322.19C153.416 322.19 128.082 312.199 125.45 318.674C123.281 324.012 125.048 329.241 131.852 341.254Z" fill="#163560"/>
<path d="M177.975 414.055C177.975 414.055 178.568 423.994 180.415 424.137C180.661 424.157 189.783 424.157 189.783 424.157H201.43C201.43 424.157 201.353 421.164 197.949 420.546C194.545 419.928 188.847 417.439 186.784 412.755C184.616 407.825 177.975 414.055 177.975 414.055Z" fill="#163560"/>
<path d="M151.184 385.892C151.184 385.892 143.137 391.276 143.918 393.024C144.021 393.256 148.469 401.549 148.469 401.549L154.205 412.101C154.205 412.101 156.618 410.61 155.476 407.213C154.335 403.819 153.646 397.423 156.569 393.264C159.644 388.89 151.184 385.892 151.184 385.892Z" fill="#163560"/>
<path d="M162.037 317.425C162.037 317.425 193.872 338.071 197.423 351.93C200.971 365.788 155.121 395.355 155.121 395.355C155.121 395.355 150.093 390.736 149.205 387.347C149.205 387.347 169.93 361.497 174.427 355.701C177.187 352.142 133.602 343.381 128.277 334.757C122.953 326.134 124.859 318.878 124.859 318.878L162.037 317.425Z" fill="#1C468A"/>
<path d="M167.142 343.928H102.06C100.758 343.928 99.6929 345.037 99.6929 346.392V359.945C99.6929 361.3 100.758 362.409 102.06 362.409H167.142C168.443 362.409 169.508 361.3 169.508 359.945V346.392C169.508 345.037 168.443 343.928 167.142 343.928Z" fill="#29BF4A"/>
<path d="M152.212 249.742C144.595 251.795 131.965 244.445 131.965 244.445C131.965 244.445 136.868 241.015 138.686 233.477C138.778 233.097 138.862 232.707 138.934 232.309C139.734 232.131 141.238 231.8 142.847 231.446L148.667 236.871C148.667 236.871 148.535 239.126 147.805 242.998C147.679 243.675 147.535 244.399 147.368 245.172C150.492 247.186 152.212 249.742 152.212 249.742Z" fill="#FFB27D"/>
<path d="M163.033 316.345C163.018 316.425 162.993 316.508 162.966 316.593C162.231 318.736 155.393 321.626 149.119 323.647C146.869 324.374 144.689 324.986 142.892 325.416C138.033 326.574 125.86 328.639 124.792 325.165C123.555 321.143 124.991 297.901 123.898 282.621C122.61 263.942 127.578 246.94 134.485 241.39C135.006 240.992 136.039 242.052 139.031 243.531C141.794 244.893 144.848 245.283 147.433 244.694L149.75 246.762C152.95 249.76 156.468 253.852 158.065 260.126C159.04 263.975 159.778 270.06 160.324 276.905C160.535 279.558 160.719 282.326 160.875 285.121C161.123 289.569 161.339 294.057 161.444 298.325C161.446 298.407 161.449 298.488 161.449 298.57L161.451 298.725C161.496 299.155 161.503 299.625 161.508 300.057C161.618 303.883 161.598 307.442 161.722 310.464C161.724 310.549 161.729 310.632 161.734 310.712C161.891 313.245 162.782 314.388 163.02 315.445C163.085 315.742 163.1 316.035 163.033 316.345Z" fill="#385FB7"/>
<path d="M163.033 316.345C163.018 316.425 162.993 316.508 162.966 316.593C162.231 318.736 155.393 321.626 149.119 323.647C136.374 307.023 137.74 287.132 137.74 287.132L161.444 298.325C161.446 298.408 161.449 298.488 161.449 298.57L161.451 298.725C161.496 299.155 161.503 299.625 161.508 300.057C161.618 303.883 161.598 307.442 161.722 310.464C161.724 310.549 161.729 310.632 161.734 310.712C161.891 313.245 162.782 314.388 163.02 315.445C163.085 315.743 163.1 316.035 163.033 316.345Z" fill="#4A75CB"/>
<path d="M148.667 236.872C148.667 236.872 148.536 239.126 147.806 242.998C142.125 241.088 139.548 235.745 138.686 233.477C138.778 233.097 138.862 232.707 138.934 232.309C139.734 232.131 141.238 231.8 142.847 231.446L148.667 236.872Z" fill="#1E8E37"/>
<path d="M150.967 236.812C150.967 236.812 138.483 238.28 137.726 230.171C136.969 222.062 134.848 216.791 142.786 215.511C150.725 214.232 152.565 217.171 153.45 219.813C154.335 222.455 154.195 236.222 150.967 236.812Z" fill="#FFB27D"/>
<path d="M137.78 230.729C137.78 230.729 138.571 219.968 149.935 218.851C157.719 218.089 153.379 211.115 152.55 210C152.55 210 146.586 210.853 140.473 211.903C127.643 214.111 136.52 229.054 137.78 230.729Z" fill="#2B478B"/>
<path d="M207.505 279.064L198.711 307.245L167.777 306.558L167.735 308.522L199.302 309.226L208.598 279.434L207.505 279.064Z" fill="#4A75CB"/>
<path d="M171.166 304.769C171.166 304.769 176.065 306.7 179.38 306.067C182.692 305.431 188.032 307.719 188.792 309.039C189.549 310.358 189.172 310.802 187.543 311.04C185.912 311.278 180.03 313.124 176.492 311.252C172.954 309.383 168.145 308.776 168.145 308.776L171.166 304.769Z" fill="#FFB27D"/>
<path d="M132.447 254.131C132.447 254.131 133.645 296.704 142.625 301.54C147.056 303.929 167.062 310.49 173.068 311.609C173.068 311.609 174.685 310.528 174.866 305.392C174.866 305.392 154.309 294.726 151.739 289.918C147.914 282.765 157.437 263.161 152.415 256.277C147.393 249.393 138.102 245.611 132.447 254.131Z" fill="#385FB7"/>
<path d="M674.219 301.967L675.719 304.505C676.5 305.439 676.712 305.961 677.329 306.279C678.824 307.044 681.582 309.009 681.79 313.134C681.79 313.134 681.741 315.469 680.242 314.711C678.737 313.954 679.393 314.026 677.257 313.005C675.116 311.987 674.325 308.745 674.142 307.639L672.396 305.256L674.219 301.967Z" fill="#FFB27D"/>
<path d="M630.008 437.254C629.926 438.166 629.439 438.756 628.668 439.107L628.655 439.112C627.23 439.764 624.831 439.616 622.247 439.252C621.913 439.208 621.616 439.169 621.35 439.143C621.278 439.138 621.205 439.13 621.142 439.125C621.084 439.123 621.029 439.118 620.98 439.115C618.401 438.936 618.603 439.764 613.679 439.738C608.065 439.707 606.167 437.74 605.91 436.899C605.693 436.188 608.151 435.635 610.897 434.999C611.032 434.968 611.163 434.937 611.303 434.906C611.664 434.824 612.033 434.733 612.399 434.648C615.677 433.847 618.919 432.836 619.992 429.561C621.129 426.084 620.858 415.772 620.858 415.772H630.801C630.801 415.772 628.19 427.164 628.465 430.447C628.614 432.202 629.417 432.699 629.732 434.219C629.755 434.325 629.773 434.431 629.791 434.54C629.94 435.426 630.093 436.336 630.008 437.254Z" fill="#FFB27D"/>
<path d="M641.577 325.793C640.736 330.697 639.541 335.764 638.498 341.034C636.83 349.508 635.571 358.512 636.858 368.206C637.023 369.454 637.115 370.829 637.134 372.311C637.386 389.444 630.03 420.495 630.03 420.495C630.03 420.495 628.036 421.392 624.687 421.219C622.964 421.131 620.322 419.973 620.322 419.973C620.322 419.973 619.623 400.723 619.582 374.831C619.55 356.066 616.012 331.356 615.3 316.836C614.868 308.047 615.805 296.343 615.805 296.343C615.805 296.343 630.462 284.071 635.728 290.348C640.929 296.552 644.715 307.448 641.577 325.793Z" fill="#80BDCC"/>
<path d="M636.858 368.206C637.022 369.454 637.113 370.829 637.132 372.311C626.155 355.751 623.726 319.644 623.726 319.644L635.783 325.737C635.783 325.737 637.109 332.507 638.499 341.035C636.826 349.509 635.569 358.512 636.858 368.206Z" fill="#5F9AA8"/>
<path d="M661.721 437.254C661.641 438.166 661.152 438.755 660.382 439.107L660.372 439.112C658.939 439.764 656.547 439.616 653.957 439.252C653.628 439.208 653.328 439.169 653.06 439.143C652.989 439.138 652.923 439.13 652.853 439.125C652.801 439.123 652.745 439.117 652.693 439.115C650.118 438.936 650.315 439.764 645.395 439.738C639.779 439.707 637.88 437.739 637.622 436.899C637.406 436.188 639.864 435.636 642.613 434.999C642.744 434.968 642.881 434.937 643.012 434.906C643.379 434.824 643.75 434.733 644.112 434.648C647.392 433.847 650.635 432.836 651.706 429.561C652.844 426.084 651.218 415.933 651.218 415.933L660.429 415.131C660.429 415.131 659.855 426.699 660.128 429.982C660.278 431.734 661.133 432.699 661.444 434.219C661.467 434.325 661.486 434.431 661.505 434.54C661.655 435.426 661.805 436.336 661.721 437.254Z" fill="#FFB27D"/>
<path d="M660.423 421.371C660.423 421.371 658.056 422.537 656.352 422.892C654.649 423.248 651.105 422.555 651.105 422.555C650.465 415.098 648.982 403.442 646.097 390.284C642.817 375.307 637.932 357.609 631.117 340.849C629.663 337.268 623.662 320.326 622.645 316.051C619.563 303.131 622.655 304.521 622.655 304.521L649.566 301.233C649.566 301.233 652.884 303.009 654.413 321.251C654.87 326.714 654.922 350.305 655.613 354.776C656.263 359.011 657.03 362.531 657.924 364.822C662.922 377.597 660.423 421.371 660.423 421.371Z" fill="#80BDCC"/>
<path d="M661.721 437.254C661.641 438.166 661.152 438.755 660.382 439.107L660.372 439.112C658.859 439.673 656.5 439.552 653.967 439.236C653.633 439.195 653.332 439.164 653.06 439.143C652.989 439.138 652.923 439.13 652.853 439.125C652.801 439.123 652.745 439.117 652.693 439.115C650.118 438.936 650.315 439.764 645.395 439.738C639.779 439.707 637.88 437.739 637.622 436.899C637.406 436.188 639.864 435.636 642.613 434.999C643.336 435.372 646.795 437 651.095 436.566C654.874 436.188 658.732 434.611 661.444 434.219C661.467 434.325 661.486 434.431 661.505 434.54C661.655 435.426 661.805 436.336 661.721 437.254Z" fill="#29BF4A"/>
<path d="M630.008 437.254C629.927 438.166 629.44 438.756 628.665 439.107L628.652 439.112C627.143 439.673 624.787 439.552 622.246 439.236C621.917 439.195 621.615 439.164 621.345 439.143C621.277 439.138 621.205 439.13 621.137 439.125C621.083 439.123 621.029 439.118 620.975 439.115C618.399 438.937 618.601 439.764 613.677 439.738C608.064 439.707 606.168 437.74 605.906 436.9C605.69 436.189 608.15 435.636 610.898 435C611.623 435.372 615.078 437 619.376 436.566C623.156 436.189 627.016 434.612 629.728 434.219C629.751 434.325 629.769 434.431 629.787 434.539C629.94 435.426 630.089 436.336 630.008 437.254Z" fill="#29BF4A"/>
<path d="M619.242 217.332C618.33 209.603 620.652 197.235 635.47 199.211C650.287 201.187 654.955 216.349 651.964 223.09C648.978 229.831 656.269 231.457 658.558 238.705C660.522 244.935 661.21 252.667 664.393 256.136C674.647 267.326 654.544 284.529 642.422 280.903C620.346 274.293 617.503 273.308 618.282 255.247C618.688 245.995 625.602 242.41 621.211 239.732C610.603 233.264 621.297 234.822 619.242 217.332Z" fill="#2C8A41"/>
<path d="M641.024 237.564L636.941 248.545L628.131 248.993L623.737 242.16C626.508 239.963 627.683 236.667 628.112 233.72C628.464 231.36 628.364 229.225 628.268 228.066C628.208 227.476 628.149 227.13 628.149 227.13L639.131 223.652L639.168 223.632C639.305 226.663 639.46 229.042 639.634 230.892C640.26 237.419 641.024 237.564 641.024 237.564Z" fill="#FFB27D"/>
<path d="M623.699 237.177C624.263 237.177 633.885 235.137 650.138 239.467C650.138 239.467 641.238 281.921 644.261 289.921C647.283 297.922 648.43 305.025 648.43 305.025L615.632 305.447C615.632 305.447 616.095 277.983 614.582 268.264C613.068 258.542 623.699 237.177 623.699 237.177Z" fill="#FFB27D"/>
<path d="M665.549 281.603C663.912 269.803 657.82 245.568 653.73 241.605C650.114 238.1 642.312 237.78 642.312 237.78H642.307C640.688 240.421 635.142 246.987 628.26 245.803C624.544 245.168 623.787 238.211 623.706 237.283L623.73 237.177L623.696 237.182V237.177C623.672 237.182 623.643 237.19 623.62 237.195C622.532 237.361 613.902 238.824 611.34 243.412C607.561 250.187 603.442 270.521 599.396 270.218C597.537 270.082 578.85 262.769 578.85 262.769C578.85 262.769 575.737 265.804 576.33 269.531C576.33 269.531 585.559 275.965 593.361 280.07C594.443 280.639 595.502 281.161 596.498 281.619C599.309 282.903 601.68 283.648 602.978 283.33C603.347 283.239 603.739 283.064 604.151 282.815C605.842 281.797 607.815 279.563 609.712 277.015C610.971 275.319 612.192 273.486 613.275 271.78C613.299 271.744 613.318 271.71 613.342 271.674C613.802 278.137 614.266 285.17 613.787 290.682C613.423 294.877 613.155 303.958 613.845 306.305C615.286 311.196 625.875 312.489 635.755 311.979C640.415 311.736 643.706 311.46 646.1 310.886C649.577 310.054 651.167 308.598 652.312 305.726C653.399 302.991 648.356 290.152 647.877 284.532C647.441 279.437 648.188 275.291 649.424 271.214C652.911 279.605 656.459 285.605 656.929 286.905C657.906 289.643 672.8 306.949 672.8 306.949C672.8 306.949 674.002 306.693 674.96 306.042C675.942 305.372 676.435 304.485 676.435 304.485C673.811 297.984 665.549 281.603 665.549 281.603Z" fill="#29BF4A"/>
<path d="M652.307 305.726C651.164 308.598 649.574 310.053 646.102 310.886C641.459 309.955 638.392 301.055 636.816 296.676C634.999 291.63 644.471 265.679 647.083 265.917C649.026 266.091 649.361 269.526 649.426 271.214C648.166 275.329 647.436 279.385 647.878 284.532C648.357 290.151 653.4 302.991 652.307 305.726Z" fill="#1EA83C"/>
<path d="M578.983 264.808C578.983 264.808 577.39 260.739 575.634 260.574C573.882 260.408 568.299 259.496 567.901 260.325C567.499 261.155 567.901 264.143 569.096 265.224C570.294 266.302 577.709 268.047 577.709 268.047L578.983 264.808Z" fill="#FFB27D"/>
<path d="M613.274 271.78C612.195 273.486 610.971 275.319 609.712 277.015C607.908 279.329 605.914 281.567 604.149 282.816C603.739 283.064 603.343 283.24 602.973 283.33C601.679 283.648 599.311 282.903 596.498 281.619C598.171 281.745 599.813 281.683 601.428 281.541C604.259 281.29 605.086 278.098 609.563 273.313C612.235 270.452 613.049 270.893 613.274 271.78Z" fill="#1EA83C"/>
<path d="M639.126 223.654C637.466 226.481 633.462 232.297 628.108 233.721C628.459 231.361 628.359 229.226 628.263 228.067C628.208 227.477 628.145 227.132 628.145 227.132L639.126 223.654Z" fill="#1E8E37"/>
<path d="M625.264 227.908C625.264 227.908 638.465 230.667 639.989 222.084C641.514 213.5 644.241 208.075 635.88 205.95C627.518 203.826 625.296 206.785 624.116 209.521C622.94 212.258 621.87 226.969 625.264 227.908Z" fill="#FFB27D"/>
<path d="M631.715 203.807C631.715 203.807 631.485 206.719 635.827 211.659C640.165 216.599 639.318 226.59 639.318 226.59C639.318 226.59 646.447 211.091 642.542 206.519C638.641 201.948 631.715 203.807 631.715 203.807Z" fill="#2C8A41"/>
<path d="M637.022 200.019C637.022 200.019 630.46 197.733 623.948 204.413C621.142 207.291 621.569 212.948 623.07 216.231C623.07 216.231 625.38 209.197 629.577 207.663C633.775 206.128 637.022 200.019 637.022 200.019Z" fill="#2C8A41"/>
<path d="M629.377 223.685C629.377 223.685 629.025 224.703 626.537 224.241C626.537 224.241 624.453 223.853 624.646 222.71C624.646 222.71 626.775 222.136 629.377 223.685Z" fill="white"/>
<path d="M438.222 196.005C441.803 217.141 429.952 234.271 411.758 234.271C410.574 234.271 409.36 233.418 408.183 233.276C424.385 231.244 434.555 215.763 431.212 196.005C427.865 176.248 412.219 159.99 395.331 157.959C396.456 157.814 397.611 157.743 398.795 157.743C416.992 157.743 434.646 174.874 438.222 196.005Z" fill="#182E52"/>
<path d="M411.53 233.462C393.284 233.462 375.622 216.509 372.082 195.593C368.538 174.678 380.457 157.721 398.703 157.721C416.952 157.721 434.611 174.678 438.155 195.593C441.698 216.509 429.779 233.462 411.53 233.462ZM452.776 207.048C457.954 207.048 461.311 202.063 460.266 195.914C459.229 189.764 454.183 184.778 449.002 184.778C448.741 184.778 448.49 184.802 448.242 184.825C447.459 182.553 446.564 180.336 445.574 178.179C448.185 176.296 449.555 172.613 448.836 168.379C447.825 162.41 443.048 157.54 438.033 157.256L431.933 157.335C431.624 157.335 431.326 157.353 431.034 157.387C430.417 156.783 429.793 156.192 429.159 155.617C430 153.765 430.305 151.485 429.885 149.008C428.844 142.858 423.798 137.873 418.617 137.873C418.58 137.873 418.536 137.873 418.495 137.875V137.873L413.412 137.975C413.266 137.967 413.124 137.961 412.978 137.961C412.72 137.961 412.469 137.975 412.222 137.999L412.218 138.001C410.788 138.14 409.516 138.676 408.468 139.514C407.42 140.355 406.593 141.5 406.051 142.858C405.925 142.829 405.806 142.795 405.681 142.766C405.654 142.393 405.606 142.015 405.539 141.632C404.498 135.482 399.456 130.496 394.274 130.496L388.71 130.591C388.683 130.591 388.663 130.588 388.639 130.588C388.547 130.588 388.463 130.593 388.374 130.596L388.269 130.599H388.266C387.862 130.617 387.469 130.667 387.089 130.748L387.086 130.751C386.838 130.84 378.66 133.932 381.454 144.663L380.884 144.924C380.884 144.924 379.26 141.505 376.351 139.65C372.75 137.355 370.403 137.896 370.091 137.938L365.236 137.961L365.239 137.97C360.18 138.103 356.928 143.032 357.955 149.097C358.444 151.965 359.803 154.572 361.638 156.544C361.468 156.78 361.302 157.02 361.136 157.262L359.447 157.28C359.2 157.256 358.949 157.243 358.698 157.243C358.383 157.243 358.074 157.262 357.769 157.298L353.48 157.346C353.456 157.346 353.429 157.343 353.405 157.34C353.29 157.338 353.171 157.335 353.059 157.335C352.856 157.335 352.656 157.343 352.459 157.359H352.449C352.279 157.372 352.113 157.387 351.95 157.411C347.41 158.068 344.599 162.768 345.565 168.47C346.372 173.241 349.594 177.302 353.415 178.886C353.202 180.824 353.086 182.816 353.076 184.846L351.198 184.878C351.12 184.875 351.038 184.87 350.953 184.87C350.76 184.87 350.567 184.881 350.38 184.894L350.021 184.899L350.028 184.925C345.382 185.482 342.48 190.229 343.463 196.005C344.501 202.155 349.546 207.141 354.727 207.141L356.833 207.107C357.328 208.542 357.864 209.956 358.447 211.349C354.822 212.727 352.727 216.977 353.578 222.012C354.578 227.924 359.281 232.758 364.245 233.12V233.123H364.259C364.456 233.136 364.649 233.146 364.842 233.146C365.1 233.146 365.351 233.13 365.598 233.107L370.362 233.056L370.359 233.05C370.4 233.053 370.44 233.056 370.481 233.056C371.139 233.056 371.763 232.973 372.356 232.82C373.126 233.632 373.913 234.426 374.716 235.194C373.685 237.124 373.285 239.609 373.746 242.32C374.784 248.472 379.83 253.457 385.011 253.457L390.531 253.366L390.528 253.361C390.568 253.363 390.609 253.366 390.65 253.366C393.81 253.366 396.282 251.507 397.499 248.664C398.123 248.84 398.754 249.005 399.384 249.155C399.415 249.524 399.462 249.905 399.527 250.287C400.571 256.437 405.617 261.423 410.794 261.423L416.426 261.33H416.433H416.45L416.81 261.325V261.32C421.774 261.085 424.941 256.194 423.927 250.194C423.862 249.814 423.781 249.437 423.686 249.064C423.866 249.015 424.046 248.964 424.225 248.914C426.395 251.665 429.44 253.457 432.54 253.457L437.968 253.356C438.039 253.358 438.107 253.366 438.178 253.366C443.356 253.366 446.713 248.38 445.672 242.23C445.279 239.911 444.316 237.758 442.99 235.974C443.692 235.038 444.353 234.064 444.977 233.056H451.345V233.053C451.386 233.053 451.426 233.056 451.467 233.056C456.645 233.056 460.002 228.069 458.961 221.92C458.201 217.427 455.299 213.567 451.772 211.807C451.911 210.232 451.986 208.633 451.996 207.004C452.257 207.027 452.515 207.048 452.776 207.048Z" fill="#182E52"/>
<path d="M411.531 233.464C393.286 233.464 375.624 216.507 372.081 195.592C368.539 174.677 380.458 157.722 398.707 157.722C416.949 157.722 434.611 174.677 438.157 195.592C441.699 216.507 429.78 233.464 411.531 233.464ZM452.653 207.051C457.833 207.051 461.189 202.064 460.145 195.915C459.104 189.764 454.06 184.779 448.883 184.779C448.622 184.779 448.371 184.801 448.12 184.825C447.337 182.555 446.442 180.336 445.449 178.179C448.066 176.296 449.432 172.614 448.714 168.378C447.676 162.229 442.628 157.243 437.452 157.243C435.536 157.243 433.875 157.927 432.59 159.095C431.441 157.883 430.258 156.722 429.038 155.616C429.878 153.767 430.18 151.485 429.76 149.007C428.719 142.857 423.678 137.871 418.495 137.871C414.691 137.871 411.874 140.57 411.064 144.439C409.25 143.764 407.416 143.203 405.561 142.765C405.531 142.393 405.484 142.015 405.419 141.632C404.375 135.483 399.334 130.497 394.154 130.497C388.974 130.497 385.618 135.483 386.662 141.632C386.726 142.015 386.804 142.393 386.899 142.765C384.801 143.304 382.794 144.028 380.882 144.924C378.811 140.796 374.932 137.871 370.969 137.871C365.789 137.871 362.433 142.857 363.477 149.007C363.959 151.874 365.325 154.48 367.156 156.454C366.386 157.521 365.661 158.638 364.986 159.799C363.094 158.203 360.85 157.243 358.575 157.243C353.395 157.243 350.043 162.229 351.083 168.378C351.89 173.151 355.114 177.21 358.935 178.795C358.708 180.832 358.592 182.923 358.589 185.06C357.894 184.882 357.185 184.779 356.473 184.779C351.293 184.779 347.937 189.764 348.978 195.915C350.022 202.064 355.063 207.051 360.243 207.051C360.955 207.051 361.63 206.947 362.264 206.769C362.782 208.291 363.352 209.788 363.966 211.259C360.338 212.637 358.243 216.886 359.097 221.919C360.138 228.069 365.179 233.056 370.363 233.056C372.617 233.056 374.529 232.107 375.878 230.53C377.268 232.135 378.722 233.66 380.234 235.1C379.204 237.034 378.804 239.518 379.265 242.23C380.306 248.38 385.347 253.366 390.53 253.366C394.327 253.366 397.137 250.678 397.958 246.823C400.236 247.757 402.555 248.509 404.904 249.065C404.934 249.437 404.982 249.814 405.046 250.197C406.087 256.347 411.131 261.331 416.311 261.331C421.491 261.331 424.848 256.347 423.803 250.197C423.739 249.814 423.661 249.437 423.563 249.065C425.339 248.607 427.051 248.02 428.692 247.307C430.855 250.903 434.418 253.366 438.055 253.366C443.239 253.366 446.591 248.38 445.551 242.23C445.157 239.911 444.195 237.758 442.869 235.974C443.984 234.49 445.005 232.914 445.924 231.246C447.591 232.386 449.456 233.056 451.344 233.056C456.528 233.056 459.88 228.069 458.836 221.919C458.077 217.427 455.178 213.565 451.653 211.804C451.792 210.232 451.866 208.632 451.876 207.004C452.134 207.027 452.392 207.051 452.653 207.051Z" fill="#5978A9"/>
<path d="M499.559 197.524C502.294 213.682 493.236 226.778 479.327 226.778C478.42 226.778 477.491 226.126 476.591 226.018C488.979 224.464 496.755 212.627 494.198 197.524C491.637 182.42 479.68 169.991 466.765 168.438C467.628 168.327 468.509 168.272 469.416 168.272C483.326 168.272 496.824 181.369 499.559 197.524Z" fill="#309C47"/>
<path d="M479.15 226.159C465.201 226.159 451.7 213.198 448.993 197.209C446.282 181.219 455.396 168.256 469.345 168.256C483.295 168.256 496.8 181.219 499.507 197.209C502.214 213.198 493.103 226.159 479.15 226.159ZM510.682 205.968C514.643 205.968 517.208 202.155 516.413 197.454C515.618 192.752 511.757 188.941 507.799 188.941C507.601 188.941 507.407 188.959 507.217 188.977C506.619 187.24 505.936 185.545 505.178 183.896C507.176 182.456 508.221 179.641 507.672 176.403C506.899 171.841 503.244 168.118 499.413 167.901L494.75 167.961C494.515 167.961 494.283 167.975 494.059 168.001C493.589 167.539 493.114 167.087 492.629 166.647C493.271 165.232 493.503 163.488 493.185 161.595C492.386 156.893 488.529 153.082 484.568 153.082C484.538 153.082 484.508 153.082 484.478 153.084V153.082L480.591 153.16C480.479 153.154 480.367 153.15 480.259 153.15C480.061 153.15 479.871 153.16 479.68 153.178L479.677 153.18C478.583 153.287 477.612 153.696 476.809 154.337C476.006 154.979 475.375 155.855 474.961 156.893C474.864 156.871 474.778 156.845 474.681 156.823C474.659 156.538 474.621 156.249 474.569 155.956C473.777 151.254 469.92 147.443 465.959 147.443L461.702 147.515L461.65 147.513C461.583 147.513 461.516 147.517 461.449 147.519L461.37 147.521H461.366C461.057 147.535 460.754 147.573 460.467 147.635L460.463 147.637C460.276 147.705 454.018 150.069 456.162 158.273L455.721 158.472C455.721 158.472 454.478 155.858 452.256 154.441C449.504 152.686 447.712 153.1 447.469 153.132L443.762 153.15V153.156C439.894 153.259 437.411 157.026 438.195 161.663C438.564 163.856 439.606 165.848 441.006 167.356C440.879 167.537 440.752 167.72 440.625 167.905L439.334 167.919C439.143 167.901 438.953 167.891 438.759 167.891C438.52 167.891 438.284 167.905 438.053 167.933L434.771 167.969L434.715 167.965C434.625 167.963 434.536 167.961 434.45 167.961C434.293 167.961 434.14 167.967 433.994 167.979H433.983C433.852 167.989 433.726 168.001 433.602 168.019C430.134 168.521 427.983 172.114 428.719 176.474C429.338 180.121 431.803 183.226 434.722 184.437C434.558 185.918 434.472 187.441 434.461 188.993L433.027 189.017C432.964 189.016 432.904 189.011 432.841 189.011C432.691 189.011 432.546 189.019 432.4 189.03L432.127 189.033L432.135 189.054C428.58 189.479 426.363 193.109 427.113 197.524C427.908 202.225 431.762 206.038 435.727 206.038L437.336 206.012C437.713 207.108 438.124 208.191 438.568 209.253C435.798 210.308 434.192 213.555 434.846 217.406C435.611 221.928 439.207 225.621 443.004 225.898V225.901H443.011C443.161 225.911 443.31 225.919 443.456 225.919C443.654 225.919 443.848 225.906 444.034 225.888L447.678 225.849L447.675 225.844C447.705 225.847 447.738 225.849 447.772 225.849C448.272 225.849 448.75 225.787 449.202 225.671C449.792 226.291 450.393 226.896 451.005 227.483C450.217 228.959 449.911 230.859 450.262 232.932C451.061 237.634 454.918 241.445 458.88 241.445L463.095 241.377V241.372C463.125 241.375 463.155 241.377 463.188 241.377C465.604 241.377 467.493 239.955 468.427 237.781C468.901 237.916 469.383 238.043 469.864 238.156C469.891 238.441 469.924 238.73 469.973 239.022C470.772 243.724 474.629 247.534 478.59 247.534L482.895 247.465H482.899H482.914L483.186 247.462V247.457C486.984 247.276 489.407 243.538 488.626 238.952C488.578 238.66 488.518 238.371 488.443 238.087C488.582 238.05 488.716 238.012 488.858 237.973C490.516 240.074 492.846 241.445 495.213 241.445L499.361 241.369C499.417 241.369 499.469 241.377 499.521 241.377C503.483 241.377 506.052 237.564 505.253 232.865C504.954 231.089 504.215 229.442 503.203 228.08C503.737 227.364 504.245 226.619 504.723 225.849H509.591L509.588 225.847C509.621 225.847 509.651 225.849 509.681 225.849C513.642 225.849 516.208 222.036 515.412 217.337C514.83 213.901 512.616 210.949 509.916 209.605C510.024 208.401 510.08 207.178 510.088 205.932C510.286 205.95 510.484 205.968 510.682 205.968Z" fill="#309C47"/>
<path d="M479.156 226.159C465.202 226.159 451.703 213.197 448.992 197.208C446.286 181.218 455.398 168.256 469.345 168.256C483.296 168.256 496.799 181.218 499.506 197.208C502.216 213.197 493.103 226.159 479.156 226.159ZM510.59 205.967C514.55 205.967 517.115 202.156 516.32 197.455C515.525 192.753 511.668 188.941 507.707 188.941C507.51 188.941 507.316 188.958 507.125 188.977C506.528 187.241 505.845 185.544 505.087 183.895C507.08 182.456 508.129 179.641 507.581 176.403C506.785 171.701 502.929 167.89 498.968 167.89C497.505 167.89 496.235 168.413 495.25 169.306C494.376 168.38 493.469 167.492 492.536 166.646C493.178 165.232 493.409 163.488 493.092 161.593C492.293 156.892 488.437 153.08 484.48 153.08C481.568 153.08 479.418 155.143 478.794 158.102C477.409 157.585 476.005 157.157 474.587 156.822C474.568 156.537 474.531 156.248 474.479 155.956C473.683 151.254 469.831 147.443 465.87 147.443C461.909 147.443 459.344 151.254 460.139 155.956C460.188 156.248 460.251 156.537 460.322 156.822C458.717 157.234 457.183 157.787 455.723 158.472C454.137 155.316 451.172 153.08 448.145 153.08C444.184 153.08 441.619 156.892 442.414 161.593C442.784 163.785 443.826 165.777 445.229 167.286C444.639 168.103 444.087 168.956 443.572 169.844C442.123 168.624 440.406 167.89 438.67 167.89C434.709 167.89 432.144 171.701 432.94 176.403C433.556 180.052 436.019 183.155 438.943 184.366C438.771 185.924 438.681 187.522 438.678 189.156C438.144 189.019 437.602 188.941 437.061 188.941C433.1 188.941 430.535 192.753 431.331 197.455C432.13 202.156 435.986 205.967 439.943 205.967C440.488 205.967 441.003 205.89 441.489 205.753C441.884 206.916 442.317 208.059 442.788 209.186C440.014 210.238 438.412 213.487 439.066 217.336C439.861 222.036 443.717 225.849 447.678 225.849C449.403 225.849 450.863 225.125 451.897 223.918C452.961 225.146 454.073 226.311 455.227 227.412C454.439 228.889 454.133 230.788 454.484 232.862C455.283 237.564 459.135 241.377 463.096 241.377C466.001 241.377 468.147 239.322 468.778 236.375C470.518 237.088 472.291 237.662 474.083 238.086C474.109 238.37 474.146 238.66 474.195 238.952C474.99 243.654 478.846 247.465 482.807 247.465C486.768 247.465 489.333 243.654 488.538 238.952C488.489 238.66 488.426 238.37 488.355 238.086C489.71 237.737 491.017 237.29 492.271 236.745C493.925 239.492 496.65 241.377 499.431 241.377C503.392 241.377 505.957 237.564 505.161 232.862C504.859 231.089 504.124 229.442 503.112 228.079C503.959 226.947 504.743 225.74 505.445 224.466C506.718 225.337 508.148 225.849 509.593 225.849C513.554 225.849 516.118 222.036 515.319 217.336C514.741 213.901 512.523 210.949 509.824 209.602C509.932 208.402 509.988 207.177 509.996 205.931C510.194 205.952 510.392 205.967 510.59 205.967Z" fill="#39D55B"/>
<path d="M242.089 209.928L259.277 276.714H274.544L257.356 209.928H242.089Z" fill="#5978A9"/>
<path d="M262.532 203.109L281.476 276.714H296.743L277.799 203.109H262.532Z" fill="#5978A9"/>
<path d="M281.475 191.366L303.442 276.714H318.708L296.742 191.366H281.475Z" fill="#5978A9"/>
<path d="M317.64 182.713H302.373L324.34 268.064H339.608L317.64 182.713Z" fill="#5978A9"/>
<path d="M244.348 203.401L260.71 190.308L261.946 195.113C262.15 195.907 262.768 196.633 263.54 196.982C264.315 197.339 265.112 197.256 265.594 196.775L283.068 179.386L285.514 181.674C285.809 181.951 286.209 181.824 286.172 181.467L285.384 174.185C285.357 173.934 285.116 173.707 284.873 173.697L277.616 173.456C277.261 173.443 277.174 173.872 277.472 174.149L279.654 176.194L264.871 190.902L263.739 186.5C263.543 185.738 262.964 185.037 262.227 184.67C261.495 184.305 260.715 184.334 260.204 184.74L241.287 199.877C240.512 200.498 240.572 201.788 241.413 202.76C241.96 203.385 242.695 203.727 243.357 203.727C243.725 203.727 244.073 203.621 244.348 203.401Z" fill="#5978A9"/>
<path d="M239.605 258.449L240.251 261.049C239.889 260.294 239.687 259.413 239.605 258.449Z" fill="#193256"/>
<path d="M564.208 289.442H247.38L240.252 261.049C246.817 275.729 300.194 259.666 312.156 250.732C334.028 234.291 334.192 218.101 356.83 207.112C387.487 192.224 418.143 215.545 442.796 209.167C518.407 189.667 581.085 125.875 583.019 123.862C561.792 175.029 510.067 201.955 549.826 218.732C591.075 236.137 564.208 289.442 564.208 289.442Z" fill="#193256"/>
<path d="M246.364 145.034C245.45 144.455 243.591 143.659 240.79 142.646C239.472 142.173 238.54 141.788 237.997 141.485C237.304 141.097 236.85 140.539 236.634 139.807C236.375 138.926 236.47 138.241 236.917 137.757C237.366 137.274 238.012 137.031 238.861 137.031C239.442 137.031 240.236 137.22 241.247 137.597C242.257 137.975 242.95 138.163 243.322 138.163C243.839 138.163 244.224 138.008 244.474 137.698C244.725 137.388 244.77 136.964 244.614 136.429C244.425 135.788 243.948 135.222 243.183 134.728C241.8 133.828 240.065 133.378 237.974 133.378C235.946 133.378 234.404 133.939 233.346 135.059C232.189 136.263 231.911 137.887 232.51 139.931C233.155 142.126 234.541 143.781 236.671 144.9C238.555 145.611 240.44 146.319 242.324 147.03C244.353 147.805 245.569 148.881 245.974 150.256C246.252 151.202 246.153 152.016 245.681 152.694C245.207 153.371 244.514 153.71 243.603 153.71C242.754 153.71 241.9 153.58 241.038 153.322C240.989 153.301 240.413 153.094 239.305 152.707C238.491 152.407 237.972 152.254 237.743 152.254C237.205 152.254 236.807 152.417 236.552 152.74C236.294 153.063 236.249 153.505 236.413 154.064C236.748 155.206 237.907 156.09 239.891 156.716C241.356 157.189 242.781 157.427 244.167 157.427C246.466 157.427 248.169 156.78 249.279 155.491C250.468 154.113 250.719 152.252 250.031 149.907C249.418 147.821 248.196 146.198 246.364 145.034Z" fill="#5978A9"/>
<path d="M256.186 137.354H259.369C261.013 137.354 261.651 136.731 261.286 135.48C260.911 134.208 259.886 133.572 258.21 133.572H248.028C246.352 133.572 245.701 134.208 246.074 135.48C246.441 136.731 247.452 137.354 249.108 137.354H252.243L257.358 154.777C257.877 156.543 258.783 157.427 260.077 157.427C261.413 157.427 261.82 156.543 261.301 154.777L256.186 137.354Z" fill="#5978A9"/>
<path d="M269.005 148.214L269.37 138.262C269.385 138.112 269.402 138.003 269.422 137.938L275.793 148.214H269.005ZM283.726 154.387L271.719 135.708C270.686 134.089 269.477 133.283 268.089 133.283C266.743 133.283 266.018 134.154 265.909 135.902L264.735 154.42C264.712 154.764 264.764 155.152 264.891 155.584C265.055 156.145 265.368 156.592 265.829 156.925C266.291 157.259 266.79 157.427 267.332 157.427C268.201 157.427 268.667 156.855 268.727 155.718L268.873 151.835H278.02L280.379 155.607C281.126 156.819 281.973 157.427 282.921 157.427C283.455 157.427 283.865 157.259 284.145 156.925C284.428 156.592 284.493 156.155 284.334 155.617C284.232 155.271 284.029 154.862 283.726 154.387Z" fill="#5978A9"/>
<path d="M289.754 144.434C288.548 144.434 287.666 144.37 287.108 144.238L285.067 137.289H287.969C290.422 137.289 291.989 138.447 292.669 140.764C293.387 143.212 292.416 144.434 289.754 144.434ZM300.046 153.515L292.488 147.019C296.476 146.717 297.886 144.574 296.714 140.588C296.039 138.282 294.762 136.514 292.893 135.286C291.17 134.143 289.181 133.572 286.924 133.572H282.487C280.851 133.572 280.297 134.469 280.824 136.263L286.276 154.834C286.797 156.605 287.704 157.491 288.997 157.491C290.333 157.491 290.743 156.612 290.226 154.857L287.952 147.115L288.156 147.278L297.975 156.23C298.909 157.07 299.706 157.491 300.369 157.491C300.888 157.491 301.275 157.323 301.531 156.99C301.784 156.656 301.834 156.219 301.675 155.682C301.474 154.992 300.93 154.27 300.046 153.515Z" fill="#5978A9"/>
<path d="M306.228 137.354H309.411C311.055 137.354 311.693 136.731 311.325 135.48C310.953 134.208 309.927 133.572 308.251 133.572H298.069C296.393 133.572 295.743 134.208 296.115 135.48C296.483 136.731 297.493 137.354 299.149 137.354H302.285L307.4 154.777C307.919 156.543 308.825 157.427 310.119 157.427C311.454 157.427 311.861 156.543 311.343 154.777L306.228 137.354Z" fill="#5978A9"/>
<path d="M330.244 154.608C330.065 153.997 329.698 153.469 329.141 153.027C328.588 152.585 328.016 152.364 327.428 152.364C326.843 152.364 326.401 152.585 326.106 153.027C325.808 153.469 325.751 153.997 325.93 154.608C326.111 155.22 326.479 155.745 327.032 156.19C327.589 156.632 328.161 156.853 328.745 156.853C329.335 156.853 329.775 156.632 330.07 156.19C330.365 155.745 330.425 155.22 330.244 154.608Z" fill="#5978A9"/>
<path d="M327.829 147.304L324.362 135.51C323.865 133.802 322.977 132.949 321.7 132.949C320.443 132.949 320.067 133.802 320.569 135.51L324.03 147.304C324.553 149.073 325.449 149.958 326.724 149.958C327.981 149.958 328.349 149.073 327.829 147.304Z" fill="#5978A9"/>
<path d="M519.172 289.442H365.372C371.938 283.822 380.922 274.092 385.673 260.126C393.731 236.556 421.241 246.286 445.535 242.217C469.865 238.15 518.945 186.577 520.621 192.518C521.52 195.699 510.549 237.605 526.664 242.343C542.575 246.999 548.658 273.17 519.172 289.442Z" fill="#5978A9"/>
<path d="M428.396 359.688C428.724 359.688 429.004 359.712 429.236 359.76C429.476 359.808 429.644 359.852 429.74 359.892L429.536 360.852C429.44 360.804 429.304 360.76 429.128 360.72C428.952 360.672 428.736 360.648 428.48 360.648C427.96 360.648 427.596 360.792 427.388 361.08C427.18 361.36 427.076 361.74 427.076 362.22V362.76H429.476V363.696H427.076V369H425.96V362.196C425.96 361.396 426.156 360.78 426.548 360.348C426.94 359.908 427.556 359.688 428.396 359.688ZM432.893 362.628C432.989 362.628 433.097 362.636 433.217 362.652C433.345 362.66 433.469 362.676 433.589 362.7C433.709 362.716 433.817 362.736 433.913 362.76C434.017 362.776 434.093 362.792 434.141 362.808L433.949 363.78C433.861 363.748 433.713 363.712 433.505 363.672C433.305 363.624 433.045 363.6 432.725 363.6C432.517 363.6 432.309 363.624 432.101 363.672C431.901 363.712 431.769 363.74 431.705 363.756V369H430.589V363.024C430.853 362.928 431.181 362.84 431.573 362.76C431.965 362.672 432.405 362.628 432.893 362.628ZM434.87 365.892C434.87 365.34 434.95 364.86 435.11 364.452C435.27 364.036 435.482 363.692 435.746 363.42C436.01 363.148 436.314 362.944 436.658 362.808C437.002 362.672 437.354 362.604 437.714 362.604C438.554 362.604 439.198 362.868 439.646 363.396C440.094 363.916 440.318 364.712 440.318 365.784C440.318 365.832 440.318 365.896 440.318 365.976C440.318 366.048 440.314 366.116 440.306 366.18H436.034C436.082 366.828 436.27 367.32 436.598 367.656C436.926 367.992 437.438 368.16 438.134 368.16C438.526 368.16 438.854 368.128 439.118 368.064C439.39 367.992 439.594 367.924 439.73 367.86L439.886 368.796C439.75 368.868 439.51 368.944 439.166 369.024C438.83 369.104 438.446 369.144 438.014 369.144C437.47 369.144 436.998 369.064 436.598 368.904C436.206 368.736 435.882 368.508 435.626 368.22C435.37 367.932 435.178 367.592 435.05 367.2C434.93 366.8 434.87 366.364 434.87 365.892ZM439.154 365.28C439.162 364.776 439.034 364.364 438.77 364.044C438.514 363.716 438.158 363.552 437.702 363.552C437.446 363.552 437.218 363.604 437.018 363.708C436.826 363.804 436.662 363.932 436.526 364.092C436.39 364.252 436.282 364.436 436.202 364.644C436.13 364.852 436.082 365.064 436.058 365.28H439.154ZM441.573 365.892C441.573 365.34 441.653 364.86 441.813 364.452C441.973 364.036 442.185 363.692 442.449 363.42C442.713 363.148 443.017 362.944 443.361 362.808C443.705 362.672 444.057 362.604 444.417 362.604C445.257 362.604 445.901 362.868 446.349 363.396C446.797 363.916 447.021 364.712 447.021 365.784C447.021 365.832 447.021 365.896 447.021 365.976C447.021 366.048 447.017 366.116 447.009 366.18H442.737C442.785 366.828 442.973 367.32 443.301 367.656C443.629 367.992 444.141 368.16 444.837 368.16C445.229 368.16 445.557 368.128 445.821 368.064C446.093 367.992 446.297 367.924 446.433 367.86L446.589 368.796C446.453 368.868 446.213 368.944 445.869 369.024C445.533 369.104 445.149 369.144 444.717 369.144C444.173 369.144 443.701 369.064 443.301 368.904C442.909 368.736 442.585 368.508 442.329 368.22C442.073 367.932 441.881 367.592 441.753 367.2C441.633 366.8 441.573 366.364 441.573 365.892ZM445.857 365.28C445.865 364.776 445.737 364.364 445.473 364.044C445.217 363.716 444.861 363.552 444.405 363.552C444.149 363.552 443.921 363.604 443.721 363.708C443.529 363.804 443.365 363.932 443.229 364.092C443.093 364.252 442.985 364.436 442.905 364.644C442.833 364.852 442.785 365.064 442.761 365.28H445.857ZM452.956 365.892C452.956 365.164 452.776 364.604 452.416 364.212C452.056 363.82 451.576 363.624 450.976 363.624C450.64 363.624 450.376 363.636 450.184 363.66C450 363.684 449.852 363.712 449.74 363.744V367.68C449.876 367.792 450.072 367.9 450.328 368.004C450.584 368.108 450.864 368.16 451.168 368.16C451.488 368.16 451.76 368.104 451.984 367.992C452.216 367.872 452.404 367.712 452.548 367.512C452.692 367.304 452.796 367.064 452.86 366.792C452.924 366.512 452.956 366.212 452.956 365.892ZM454.12 365.892C454.12 366.364 454.056 366.8 453.928 367.2C453.808 367.6 453.628 367.944 453.388 368.232C453.148 368.52 452.852 368.744 452.5 368.904C452.156 369.064 451.76 369.144 451.312 369.144C450.952 369.144 450.632 369.096 450.352 369C450.08 368.904 449.876 368.812 449.74 368.724V371.22H448.624V362.952C448.888 362.888 449.216 362.82 449.608 362.748C450.008 362.668 450.468 362.628 450.988 362.628C451.468 362.628 451.9 362.704 452.284 362.856C452.668 363.008 452.996 363.224 453.268 363.504C453.54 363.784 453.748 364.128 453.892 364.536C454.044 364.936 454.12 365.388 454.12 365.892ZM456.806 369H455.69V362.76H456.806V369ZM456.242 361.632C456.042 361.632 455.87 361.568 455.726 361.44C455.59 361.304 455.522 361.124 455.522 360.9C455.522 360.676 455.59 360.5 455.726 360.372C455.87 360.236 456.042 360.168 456.242 360.168C456.442 360.168 456.61 360.236 456.746 360.372C456.89 360.5 456.962 360.676 456.962 360.9C456.962 361.124 456.89 361.304 456.746 361.44C456.61 361.568 456.442 361.632 456.242 361.632ZM460.982 365.568C461.222 365.752 461.474 365.98 461.738 366.252C462.01 366.524 462.274 366.82 462.53 367.14C462.794 367.452 463.042 367.772 463.274 368.1C463.506 368.42 463.702 368.72 463.862 369H462.554C462.386 368.72 462.19 368.436 461.966 368.148C461.75 367.852 461.522 367.572 461.282 367.308C461.042 367.036 460.798 366.788 460.55 366.564C460.302 366.34 460.066 366.152 459.842 366V369H458.726V359.88L459.842 359.688V365.376C460.034 365.184 460.246 364.972 460.478 364.74C460.71 364.508 460.938 364.272 461.162 364.032C461.386 363.792 461.598 363.564 461.798 363.348C461.998 363.124 462.17 362.928 462.314 362.76H463.622C463.438 362.96 463.238 363.18 463.022 363.42C462.806 363.66 462.582 363.904 462.35 364.152C462.118 364.392 461.882 364.636 461.642 364.884C461.41 365.124 461.19 365.352 460.982 365.568ZM466.315 368.352C466.315 368.568 466.243 368.756 466.099 368.916C465.955 369.076 465.759 369.156 465.511 369.156C465.263 369.156 465.067 369.076 464.923 368.916C464.779 368.756 464.707 368.568 464.707 368.352C464.707 368.136 464.779 367.948 464.923 367.788C465.067 367.628 465.263 367.548 465.511 367.548C465.759 367.548 465.955 367.628 466.099 367.788C466.243 367.948 466.315 368.136 466.315 368.352ZM470.66 369.144C470.156 369.144 469.712 369.064 469.328 368.904C468.952 368.744 468.632 368.52 468.368 368.232C468.112 367.944 467.92 367.604 467.792 367.212C467.664 366.812 467.6 366.372 467.6 365.892C467.6 365.412 467.668 364.972 467.804 364.572C467.948 364.172 468.148 363.828 468.404 363.54C468.66 363.244 468.972 363.016 469.34 362.856C469.716 362.688 470.132 362.604 470.588 362.604C470.868 362.604 471.148 362.628 471.428 362.676C471.708 362.724 471.976 362.8 472.232 362.904L471.98 363.852C471.812 363.772 471.616 363.708 471.392 363.66C471.176 363.612 470.944 363.588 470.696 363.588C470.072 363.588 469.592 363.784 469.256 364.176C468.928 364.568 468.764 365.14 468.764 365.892C468.764 366.228 468.8 366.536 468.872 366.816C468.952 367.096 469.072 367.336 469.232 367.536C469.4 367.736 469.612 367.892 469.868 368.004C470.124 368.108 470.436 368.16 470.804 368.16C471.1 368.16 471.368 368.132 471.608 368.076C471.848 368.02 472.036 367.96 472.172 367.896L472.328 368.832C472.264 368.872 472.172 368.912 472.052 368.952C471.932 368.984 471.796 369.012 471.644 369.036C471.492 369.068 471.328 369.092 471.152 369.108C470.984 369.132 470.82 369.144 470.66 369.144ZM478.882 365.88C478.882 366.376 478.81 366.824 478.666 367.224C478.522 367.624 478.318 367.968 478.054 368.256C477.798 368.544 477.49 368.768 477.13 368.928C476.77 369.08 476.378 369.156 475.954 369.156C475.53 369.156 475.138 369.08 474.778 368.928C474.418 368.768 474.106 368.544 473.842 368.256C473.586 367.968 473.386 367.624 473.242 367.224C473.098 366.824 473.026 366.376 473.026 365.88C473.026 365.392 473.098 364.948 473.242 364.548C473.386 364.14 473.586 363.792 473.842 363.504C474.106 363.216 474.418 362.996 474.778 362.844C475.138 362.684 475.53 362.604 475.954 362.604C476.378 362.604 476.77 362.684 477.13 362.844C477.49 362.996 477.798 363.216 478.054 363.504C478.318 363.792 478.522 364.14 478.666 364.548C478.81 364.948 478.882 365.392 478.882 365.88ZM477.718 365.88C477.718 365.176 477.558 364.62 477.238 364.212C476.926 363.796 476.498 363.588 475.954 363.588C475.41 363.588 474.978 363.796 474.658 364.212C474.346 364.62 474.19 365.176 474.19 365.88C474.19 366.584 474.346 367.144 474.658 367.56C474.978 367.968 475.41 368.172 475.954 368.172C476.498 368.172 476.926 367.968 477.238 367.56C477.558 367.144 477.718 366.584 477.718 365.88ZM480.452 362.94C480.708 362.876 481.044 362.808 481.46 362.736C481.884 362.664 482.372 362.628 482.924 362.628C483.324 362.628 483.66 362.684 483.932 362.796C484.204 362.9 484.432 363.056 484.616 363.264C484.672 363.224 484.76 363.168 484.88 363.096C485 363.024 485.148 362.956 485.324 362.892C485.5 362.82 485.696 362.76 485.912 362.712C486.128 362.656 486.36 362.628 486.608 362.628C487.088 362.628 487.48 362.7 487.784 362.844C488.088 362.98 488.324 363.176 488.492 363.432C488.668 363.688 488.784 363.992 488.84 364.344C488.904 364.696 488.936 365.08 488.936 365.496V369H487.82V365.736C487.82 365.368 487.8 365.052 487.76 364.788C487.728 364.524 487.66 364.304 487.556 364.128C487.46 363.952 487.324 363.824 487.148 363.744C486.98 363.656 486.76 363.612 486.488 363.612C486.112 363.612 485.8 363.664 485.552 363.768C485.312 363.864 485.148 363.952 485.06 364.032C485.124 364.24 485.172 364.468 485.204 364.716C485.236 364.964 485.252 365.224 485.252 365.496V369H484.136V365.736C484.136 365.368 484.116 365.052 484.076 364.788C484.036 364.524 483.964 364.304 483.86 364.128C483.764 363.952 483.628 363.824 483.452 363.744C483.284 363.656 483.068 363.612 482.804 363.612C482.692 363.612 482.572 363.616 482.444 363.624C482.316 363.632 482.192 363.644 482.072 363.66C481.96 363.668 481.856 363.68 481.76 363.696C481.664 363.712 481.6 363.724 481.568 363.732V369H480.452V362.94Z" fill="#193256"/>
</svg>
