<svg width="781" height="244" viewBox="0 0 781 244" fill="none" xmlns="http://www.w3.org/2000/svg">
<rect width="780.322" height="212.148" rx="27" fill="white"/>
<path d="M72.912 93.624C78.144 93.624 82.512 91.416 85.488 88.104V76.536H70.512V80.088H81.504V86.616C79.92 88.2 76.752 90.072 72.912 90.072C65.904 90.072 60.576 84.6 60.576 77.016C60.576 69.384 65.904 64.008 72.912 64.008C76.752 64.008 80.16 65.832 82.176 68.424L85.344 66.456C82.512 62.952 78.576 60.456 72.912 60.456C63.792 60.456 56.448 67.08 56.448 77.016C56.448 86.952 63.792 93.624 72.912 93.624ZM101.947 93.576C109.003 93.576 113.419 88.104 113.419 81.384C113.419 74.664 109.003 69.24 101.947 69.24C94.8908 69.24 90.4748 74.664 90.4748 81.384C90.4748 88.104 94.8908 93.576 101.947 93.576ZM101.947 90.36C97.0028 90.36 94.2188 86.136 94.2188 81.384C94.2188 76.68 97.0028 72.456 101.947 72.456C106.891 72.456 109.627 76.68 109.627 81.384C109.627 86.136 106.891 90.36 101.947 90.36ZM125.144 93.576C127.256 93.576 128.552 92.952 129.464 92.088L128.408 89.4C127.928 89.928 126.968 90.36 125.96 90.36C124.376 90.36 123.608 89.112 123.608 87.384V72.984H128.312V69.816H123.608V63.48H120.008V69.816H116.168V72.984H120.008V88.152C120.008 91.608 121.736 93.576 125.144 93.576ZM153.116 93.576C159.116 93.576 162.236 90.456 162.236 86.568C162.236 77.544 147.884 80.904 147.884 75.816C147.884 73.752 149.852 72.168 153.02 72.168C155.996 72.168 158.54 73.416 159.932 75.096L161.612 72.6C159.74 70.728 156.956 69.24 153.02 69.24C147.5 69.24 144.38 72.312 144.38 75.912C144.38 84.504 158.732 81.048 158.732 86.664C158.732 88.968 156.812 90.648 153.26 90.648C150.092 90.648 147.164 89.112 145.628 87.336L143.756 89.928C146.108 92.424 149.324 93.576 153.116 93.576ZM178.212 93.576C185.268 93.576 189.684 88.104 189.684 81.384C189.684 74.664 185.268 69.24 178.212 69.24C171.156 69.24 166.74 74.664 166.74 81.384C166.74 88.104 171.156 93.576 178.212 93.576ZM178.212 90.36C173.268 90.36 170.484 86.136 170.484 81.384C170.484 76.68 173.268 72.456 178.212 72.456C183.156 72.456 185.892 76.68 185.892 81.384C185.892 86.136 183.156 90.36 178.212 90.36ZM227.137 93V76.248C227.137 71.592 224.881 69.24 220.657 69.24C217.297 69.24 214.177 71.448 212.881 73.56C212.209 71.16 210.193 69.24 206.641 69.24C203.233 69.24 200.113 71.688 199.153 73.176V69.816H195.553V93H199.153V76.056C200.401 74.184 202.897 72.456 205.249 72.456C208.273 72.456 209.521 74.328 209.521 77.256V93H213.121V76.008C214.321 74.184 216.865 72.456 219.265 72.456C222.241 72.456 223.537 74.328 223.537 77.256V93H227.137ZM244.783 93.576C248.575 93.576 251.695 92.328 253.999 90.024L252.271 87.672C250.447 89.544 247.759 90.6 245.119 90.6C240.127 90.6 237.055 86.952 236.767 82.584H255.535V81.672C255.535 74.712 251.407 69.24 244.399 69.24C237.775 69.24 232.975 74.664 232.975 81.384C232.975 88.632 237.919 93.576 244.783 93.576ZM251.983 79.944H236.767C236.959 76.392 239.407 72.216 244.351 72.216C249.631 72.216 251.935 76.488 251.983 79.944ZM305.325 93V76.248C305.325 71.592 303.069 69.24 298.845 69.24C295.485 69.24 292.365 71.448 291.069 73.56C290.397 71.16 288.381 69.24 284.829 69.24C281.421 69.24 278.301 71.688 277.341 73.176V69.816H273.741V93H277.341V76.056C278.589 74.184 281.085 72.456 283.437 72.456C286.461 72.456 287.709 74.328 287.709 77.256V93H291.309V76.008C292.509 74.184 295.053 72.456 297.453 72.456C300.429 72.456 301.725 74.328 301.725 77.256V93H305.325ZM322.634 93.576C329.69 93.576 334.106 88.104 334.106 81.384C334.106 74.664 329.69 69.24 322.634 69.24C315.578 69.24 311.162 74.664 311.162 81.384C311.162 88.104 315.578 93.576 322.634 93.576ZM322.634 90.36C317.69 90.36 314.906 86.136 314.906 81.384C314.906 76.68 317.69 72.456 322.634 72.456C327.578 72.456 330.314 76.68 330.314 81.384C330.314 86.136 327.578 90.36 322.634 90.36ZM343.575 93V76.584C344.631 74.712 347.655 72.888 349.863 72.888C350.439 72.888 350.871 72.936 351.303 73.032V69.336C348.135 69.336 345.447 71.112 343.575 73.56V69.816H339.975V93H343.575ZM366.283 93.576C370.075 93.576 373.195 92.328 375.499 90.024L373.771 87.672C371.947 89.544 369.259 90.6 366.619 90.6C361.627 90.6 358.555 86.952 358.267 82.584H377.035V81.672C377.035 74.712 372.907 69.24 365.899 69.24C359.275 69.24 354.475 74.664 354.475 81.384C354.475 88.632 359.419 93.576 366.283 93.576ZM373.483 79.944H358.267C358.459 76.392 360.907 72.216 365.851 72.216C371.131 72.216 373.435 76.488 373.483 79.944ZM402.585 93.576C408.585 93.576 411.705 90.456 411.705 86.568C411.705 77.544 397.353 80.904 397.353 75.816C397.353 73.752 399.321 72.168 402.489 72.168C405.465 72.168 408.009 73.416 409.401 75.096L411.081 72.6C409.209 70.728 406.425 69.24 402.489 69.24C396.969 69.24 393.849 72.312 393.849 75.912C393.849 84.504 408.201 81.048 408.201 86.664C408.201 88.968 406.281 90.648 402.729 90.648C399.561 90.648 396.633 89.112 395.097 87.336L393.225 89.928C395.577 92.424 398.793 93.576 402.585 93.576ZM423.409 93.576C425.521 93.576 426.817 92.952 427.729 92.088L426.673 89.4C426.193 89.928 425.233 90.36 424.225 90.36C422.641 90.36 421.873 89.112 421.873 87.384V72.984H426.577V69.816H421.873V63.48H418.273V69.816H414.433V72.984H418.273V88.152C418.273 91.608 420.001 93.576 423.409 93.576ZM450.911 93V69.816H447.311V86.856C445.967 88.728 443.279 90.36 440.447 90.36C437.327 90.36 435.263 89.16 435.263 85.08V69.816H431.663V86.184C431.663 91.224 434.207 93.576 439.055 93.576C442.511 93.576 445.535 91.752 447.311 89.736V93H450.911ZM462.708 93V72.984H467.412V69.816H462.708V68.04C462.708 65.112 464.004 63.48 466.356 63.48C467.556 63.48 468.468 63.96 469.236 64.632L470.724 62.28C469.284 60.936 467.652 60.504 465.828 60.504C461.7 60.504 459.108 63.288 459.108 68.04V69.816H455.268V72.984H459.108V93H462.708ZM476.292 93V72.984H480.996V69.816H476.292V68.04C476.292 65.112 477.588 63.48 479.94 63.48C481.14 63.48 482.052 63.96 482.82 64.632L484.308 62.28C482.868 60.936 481.236 60.504 479.412 60.504C475.284 60.504 472.692 63.288 472.692 68.04V69.816H468.852V72.984H472.692V93H476.292ZM507.933 93.576C512.157 93.576 514.653 91.848 516.429 89.544L514.029 87.336C512.493 89.4 510.525 90.36 508.125 90.36C503.181 90.36 500.109 86.52 500.109 81.384C500.109 76.248 503.181 72.456 508.125 72.456C510.525 72.456 512.493 73.368 514.029 75.48L516.429 73.272C514.653 70.968 512.157 69.24 507.933 69.24C501.021 69.24 496.365 74.52 496.365 81.384C496.365 88.296 501.021 93.576 507.933 93.576ZM531.603 93.576C538.659 93.576 543.075 88.104 543.075 81.384C543.075 74.664 538.659 69.24 531.603 69.24C524.547 69.24 520.131 74.664 520.131 81.384C520.131 88.104 524.547 93.576 531.603 93.576ZM531.603 90.36C526.659 90.36 523.875 86.136 523.875 81.384C523.875 76.68 526.659 72.456 531.603 72.456C536.547 72.456 539.283 76.68 539.283 81.384C539.283 86.136 536.547 90.36 531.603 90.36ZM559.072 93.576C566.128 93.576 570.544 88.104 570.544 81.384C570.544 74.664 566.128 69.24 559.072 69.24C552.016 69.24 547.6 74.664 547.6 81.384C547.6 88.104 552.016 93.576 559.072 93.576ZM559.072 90.36C554.128 90.36 551.344 86.136 551.344 81.384C551.344 76.68 554.128 72.456 559.072 72.456C564.016 72.456 566.752 76.68 566.752 81.384C566.752 86.136 564.016 90.36 559.072 90.36ZM596.812 93L586.493 80.328L596.765 69.816H592.205L580.013 82.152V60.984H576.413V93H580.013V86.376L583.853 82.584L592.205 93H596.812ZM602.845 66.504C604.189 66.504 605.293 65.448 605.293 64.104C605.293 62.76 604.189 61.656 602.845 61.656C601.549 61.656 600.445 62.76 600.445 64.104C600.445 65.448 601.549 66.504 602.845 66.504ZM604.669 93V69.816H601.069V93H604.669ZM631.098 93V76.728C631.098 71.688 628.554 69.24 623.706 69.24C620.25 69.24 617.082 71.256 615.45 73.176V69.816H611.85V93H615.45V76.056C616.794 74.184 619.482 72.456 622.314 72.456C625.434 72.456 627.498 73.752 627.498 77.832V93H631.098ZM647.6 102.408C653.264 102.408 658.64 100.008 658.64 92.328V69.816H655.04V73.32C653.168 70.776 650.384 69.24 647.264 69.24C641.168 69.24 636.944 73.848 636.944 81.288C636.944 88.776 641.216 93.288 647.264 93.288C650.528 93.288 653.36 91.512 655.04 89.16V92.472C655.04 97.56 651.44 99.432 647.6 99.432C644.288 99.432 641.984 98.568 640.064 96.264L638.24 98.952C640.976 101.64 643.664 102.408 647.6 102.408ZM648.128 90.12C643.472 90.12 640.688 86.376 640.688 81.288C640.688 76.152 643.472 72.456 648.128 72.456C651.008 72.456 653.792 74.184 655.04 76.2V86.328C653.792 88.344 651.008 90.12 648.128 90.12ZM670.698 91.848C670.698 89.544 669.258 88.2 667.674 88.2C666.234 88.2 665.13 89.4 665.13 90.792C665.13 92.232 666.09 93.24 667.434 93.24C667.674 93.24 668.01 93.192 668.106 93.144C667.914 94.728 666.522 96.6 664.986 97.608L666.762 99.096C668.97 97.512 670.698 94.776 670.698 91.848ZM64.944 151.576C70.944 151.576 74.064 148.456 74.064 144.568C74.064 135.544 59.712 138.904 59.712 133.816C59.712 131.752 61.68 130.168 64.848 130.168C67.824 130.168 70.368 131.416 71.76 133.096L73.44 130.6C71.568 128.728 68.784 127.24 64.848 127.24C59.328 127.24 56.208 130.312 56.208 133.912C56.208 142.504 70.56 139.048 70.56 144.664C70.56 146.968 68.64 148.648 65.088 148.648C61.92 148.648 58.992 147.112 57.456 145.336L55.584 147.928C57.936 150.424 61.152 151.576 64.944 151.576ZM85.7685 151.576C87.8805 151.576 89.1765 150.952 90.0885 150.088L89.0325 147.4C88.5525 147.928 87.5925 148.36 86.5845 148.36C85.0005 148.36 84.2325 147.112 84.2325 145.384V130.984H88.9365V127.816H84.2325V121.48H80.6325V127.816H76.7925V130.984H80.6325V146.152C80.6325 149.608 82.3605 151.576 85.7685 151.576ZM112.118 151V135.064C112.118 129.448 108.038 127.24 103.142 127.24C99.3499 127.24 96.3739 128.488 93.8779 131.08L95.5579 133.576C97.6219 131.368 99.8779 130.36 102.662 130.36C106.022 130.36 108.518 132.136 108.518 135.256V139.432C106.646 137.272 104.006 136.264 100.838 136.264C96.9019 136.264 92.7259 138.712 92.7259 143.896C92.7259 148.936 96.9019 151.576 100.838 151.576C103.958 151.576 106.598 150.472 108.518 148.36V151H112.118ZM102.134 148.984C98.7739 148.984 96.4219 146.872 96.4219 143.944C96.4219 140.968 98.7739 138.856 102.134 138.856C104.678 138.856 107.126 139.816 108.518 141.736V146.104C107.126 148.024 104.678 148.984 102.134 148.984ZM118.038 160.072C118.71 160.264 119.91 160.408 120.678 160.408C123.75 160.36 126.102 159.064 127.494 155.704L139.11 127.816H135.174L127.494 146.824L119.766 127.816H115.878L125.574 151.24L124.038 154.744C123.222 156.664 122.166 157.192 120.582 157.192C120.006 157.192 119.142 157.048 118.614 156.808L118.038 160.072ZM161.097 151.576C163.209 151.576 164.505 150.952 165.417 150.088L164.361 147.4C163.881 147.928 162.921 148.36 161.913 148.36C160.329 148.36 159.561 147.112 159.561 145.384V130.984H164.265V127.816H159.561V121.48H155.961V127.816H152.121V130.984H155.961V146.152C155.961 149.608 157.689 151.576 161.097 151.576ZM188.598 151V127.816H184.998V144.856C183.654 146.728 180.966 148.36 178.134 148.36C175.014 148.36 172.95 147.16 172.95 143.08V127.816H169.35V144.184C169.35 149.224 171.894 151.576 176.742 151.576C180.198 151.576 183.222 149.752 184.998 147.736V151H188.598ZM215.036 151V134.728C215.036 129.688 212.492 127.24 207.644 127.24C204.188 127.24 201.02 129.256 199.388 131.176V127.816H195.788V151H199.388V134.056C200.732 132.184 203.42 130.456 206.252 130.456C209.372 130.456 211.436 131.752 211.436 135.832V151H215.036ZM232.689 151.576C236.481 151.576 239.601 150.328 241.905 148.024L240.177 145.672C238.353 147.544 235.665 148.6 233.025 148.6C228.033 148.6 224.961 144.952 224.673 140.584H243.441V139.672C243.441 132.712 239.313 127.24 232.305 127.24C225.681 127.24 220.881 132.664 220.881 139.384C220.881 146.632 225.825 151.576 232.689 151.576ZM239.889 137.944H224.673C224.865 134.392 227.313 130.216 232.257 130.216C237.537 130.216 239.841 134.488 239.889 137.944ZM269.672 151V118.984H266.072V131.32C264.2 128.776 261.368 127.24 258.248 127.24C252.152 127.24 247.928 132.04 247.928 139.432C247.928 146.968 252.2 151.576 258.248 151.576C261.512 151.576 264.344 149.896 266.072 147.544V151H269.672ZM259.112 148.36C254.456 148.36 251.672 144.568 251.672 139.432C251.672 134.296 254.456 130.456 259.112 130.456C261.992 130.456 264.776 132.184 266.072 134.2V144.712C264.776 146.728 261.992 148.36 259.112 148.36ZM280.289 142.024L281.057 118.984H276.545L277.313 142.024H280.289ZM278.801 151.48C280.241 151.48 281.441 150.232 281.441 148.84C281.441 147.4 280.241 146.2 278.801 146.2C277.361 146.2 276.161 147.4 276.161 148.84C276.161 150.232 277.361 151.48 278.801 151.48Z" fill="#040811"/>
<path d="M657.83 168.588C658.204 168.052 658.817 167.732 659.471 167.732L727.832 167.732C728.776 167.732 729.592 168.393 729.788 169.318L744.787 240.134C745.105 241.635 743.684 242.921 742.223 242.454L633.655 207.808C632.372 207.398 631.853 205.864 632.623 204.759L657.83 168.588Z" fill="white"/>
</svg>
