
<?xml version="1.0" encoding="UTF-8"?>
<svg width="38" height="24" viewBox="0 0 38 24" fill="none" xmlns="http://www.w3.org/2000/svg" xmlns="http://www.w3.org/2000/svg" xmlns:xlink="http://www.w3.org/1999/xlink">
<path d="M37.7585 10.9623C37.419 10.5146 29.3304 0 18.9998 0C8.66921 0 0.580243 10.5146 0.241137 10.9619C-0.0803791 11.3867 -0.0803791 11.9627 0.241137 12.3875C0.580243 12.8352 8.66921 23.3498 18.9998 23.3498C29.3304 23.3498 37.419 12.8351 37.7585 12.3878C38.0805 11.9632 38.0805 11.3867 37.7585 10.9623ZM18.9998 20.9343C11.3902 20.9343 4.79951 13.9556 2.84852 11.6741C4.79699 9.39062 11.3739 2.41549 18.9998 2.41549C26.609 2.41549 33.1993 9.39305 35.1511 11.6757C33.2026 13.9591 26.6257 20.9343 18.9998 20.9343Z" fill="#AEC4F4"/>
<path d="M18.9999 4.42839C14.8554 4.42839 11.4834 7.67926 11.4834 11.6749C11.4834 15.6706 14.8554 18.9215 18.9999 18.9215C23.1444 18.9215 26.5164 15.6706 26.5164 11.6749C26.5164 7.67926 23.1444 4.42839 18.9999 4.42839ZM18.9999 16.5059C16.2367 16.5059 13.989 14.3388 13.989 11.6749C13.989 9.01107 16.2368 6.84395 18.9999 6.84395C21.763 6.84395 24.0109 9.01107 24.0109 11.6749C24.0109 14.3388 21.7631 16.5059 18.9999 16.5059Z" fill="#AEC4F4"/>
</svg>
